<?xml version="1.0" encoding="UTF-8"?>
<svg version="1.1" xmlns="http://www.w3.org/2000/svg" width="256" height="256">
<path d="M0 0 C84.48 0 168.96 0 256 0 C256 57.09 256 114.18 256 173 C171.52 173 87.04 173 0 173 C0 115.91 0 58.82 0 0 Z " fill="#DADDDD" transform="translate(0,41)"/>
<path d="M0 0 C4.05888691 2.06634243 6.42576415 3.72809635 8 8 C8.30078125 11.56640625 8.30078125 11.56640625 8.3125 15.5625 C8.32861328 16.23474609 8.34472656 16.90699219 8.36132812 17.59960938 C8.36622072 22.52645495 8.36622072 22.52645495 6.48046875 24.96484375 C5.99191406 25.30644531 5.50335938 25.64804688 5 26 C5.52078125 25.82597656 6.0415625 25.65195313 6.578125 25.47265625 C9.74079331 24.85542582 12.54507464 25.14905672 15.75 25.4375 C16.92046875 25.53933594 18.0909375 25.64117187 19.296875 25.74609375 C20.18890625 25.82988281 21.0809375 25.91367188 22 26 C21.505 27.485 21.505 27.485 21 29 C21.7425 29.2475 22.485 29.495 23.25 29.75 C26.52060208 31.23663731 28.00578185 31.9717428 30 35 C30.68570216 38.79773506 30.71612686 42.20509152 30 46 C26.71544536 50.26104386 23.94918952 51.11295789 18.8125 52.3125 C12.01962029 53.90370881 7.39407653 57.75704033 2 62 C-1.22960983 63.61480492 -4.50855762 63.5916597 -8 63 C-10.44107072 61.59189907 -11.96873323 60.03126677 -14 58 C-14.5775 57.46375 -15.155 56.9275 -15.75 56.375 C-17 55 -17 55 -19 52 C-20.21030781 52.98512891 -20.21030781 52.98512891 -20.08178711 54.87011719 C-20.05483765 56.0713623 -20.05483765 56.0713623 -20.02734375 57.296875 C-20.01509766 58.1734375 -20.00285156 59.05 -19.99023438 59.953125 C-19.95537115 61.80216728 -19.91637961 63.65113682 -19.87304688 65.5 C-19.76140254 74.48408517 -19.76140254 74.48408517 -22 78 C-24.42578125 79.9140625 -24.42578125 79.9140625 -27.3125 81.625 C-28.25738281 82.19476563 -29.20226562 82.76453125 -30.17578125 83.3515625 C-31.10777344 83.89554687 -32.03976563 84.43953125 -33 85 C-34.6670935 85.99928827 -36.33383105 86.99917094 -38 88 C-39.299375 88.7734375 -39.299375 88.7734375 -40.625 89.5625 C-42.4444223 90.66372929 -44.23044918 91.82029945 -46 93 C-47.155 93.226875 -48.31 93.45375 -49.5 93.6875 C-54.49350347 94.80228583 -58.18210433 97.58831543 -62.2890625 100.5390625 C-65.52594531 102.2834345 -67.37649129 102.58571785 -71 102 C-74.19803088 98.81753627 -74.38606017 96.24699967 -74.41992188 91.84204102 C-74.43583374 90.59717422 -74.45174561 89.35230743 -74.46813965 88.06971741 C-74.46940692 86.7144476 -74.46958376 85.35917639 -74.46875 84.00390625 C-74.47585384 82.60912266 -74.48355317 81.21434199 -74.49182129 79.81956482 C-74.50525756 76.89842604 -74.50683886 73.97755749 -74.50097656 71.05639648 C-74.49508075 67.31906355 -74.52566827 63.58302987 -74.56609344 59.84594822 C-74.59198567 56.9659277 -74.59484661 54.08621942 -74.59120178 51.20609856 C-74.59289163 49.82860994 -74.60252143 48.4511067 -74.62034607 47.07373238 C-74.74702424 36.07482467 -74.74702424 36.07482467 -71.7956543 31.82836914 C-70.87308838 31.22500732 -69.95052246 30.62164551 -69 30 C-67.72443237 29.12384033 -67.72443237 29.12384033 -66.4230957 28.22998047 C-65.51648193 27.69775879 -64.60986816 27.16553711 -63.67578125 26.6171875 C-62.65540771 26.01197266 -61.63503418 25.40675781 -60.58374023 24.78320312 C-59.50423096 24.15349609 -58.42472168 23.52378906 -57.3125 22.875 C-55.05909874 21.55083469 -52.80649995 20.22530287 -50.5546875 18.8984375 C-49.44448242 18.24456055 -48.33427734 17.59068359 -47.19042969 16.91699219 C-44.2975033 15.17875695 -41.45823999 13.3843493 -38.6328125 11.5390625 C-37.83190186 11.02230957 -37.03099121 10.50555664 -36.20581055 9.97314453 C-34.73777963 9.01973816 -33.28000546 8.05026793 -31.83520508 7.06201172 C-28.28525566 4.78340721 -25.89984981 3.67135954 -21.62890625 4.09375 C-18 5 -18 5 -16 7 C-15.21625 6.030625 -14.4325 5.06125 -13.625 4.0625 C-9.80230056 -0.66557563 -5.85618033 -0.71848935 0 0 Z " fill="#186350" transform="translate(208,95)"/>
<path d="M0 0 C3.62984212 1.58940937 6.90793291 3.63081481 10.25 5.75 C12.1926784 6.94275709 14.13538745 8.13546426 16.078125 9.328125 C17.54862305 10.24368164 17.54862305 10.24368164 19.04882812 11.17773438 C21.903614 12.94048436 24.78005874 14.6581879 27.671875 16.359375 C28.56874023 16.88821289 29.46560547 17.41705078 30.38964844 17.96191406 C32.08449322 18.96055998 33.78039751 19.95741076 35.47753906 20.95214844 C40.00191321 23.64860731 44.18612513 26.34828989 48 30 C48.6875 33.5 48.6875 33.5 48 37 C44.69868337 40.7795953 41.16361666 43.35312742 36.87890625 45.92578125 C36.29769516 46.27706589 35.71648407 46.62835052 35.11766052 46.99028015 C33.26994176 48.10450499 31.41631523 49.20845543 29.5625 50.3125 C28.35443851 51.04038665 27.14675336 51.76889828 25.93945312 52.49804688 C23.52261049 53.95509719 21.09724368 55.39624469 18.66455078 56.82666016 C16.179451 58.28884956 13.72625896 59.79204997 11.28466797 61.32568359 C0.09101847 68.24495479 0.09101847 68.24495479 -5.8984375 67.61230469 C-10.20631651 66.35717451 -13.77462764 64.0717394 -17.5 61.625 C-19.25717356 60.51851592 -21.01499767 59.41306435 -22.7734375 58.30859375 C-24.08393066 57.47303955 -24.08393066 57.47303955 -25.42089844 56.62060547 C-29.26325905 54.20621795 -33.19337079 51.95228178 -37.125 49.6875 C-51.96435262 41.03564738 -51.96435262 41.03564738 -57 36 C-57.5625 33.25 -57.5625 33.25 -57 30 C-51.29054563 24.31480677 -44.54595995 20.61701713 -37.5625 16.6875 C-36.39640225 16.02704351 -35.23055112 15.36615141 -34.06494141 14.70483398 C-31.76546212 13.40086977 -29.46410771 12.10042747 -27.16162109 10.80175781 C-24.42535177 9.24240124 -21.71681509 7.64890443 -19.01953125 6.0234375 C-18.30531006 5.59973877 -17.59108887 5.17604004 -16.85522461 4.73950195 C-15.58650695 3.98540408 -14.32479246 3.21931895 -13.07250977 2.43823242 C-8.78714294 -0.0667286 -4.85190262 -1.06833382 0 0 Z " fill="#33AA92" transform="translate(133,53)"/>
<path d="M0 0 C5.07965132 0.57004976 8.50444163 2.9994172 12.765625 5.70703125 C13.63372803 6.24448975 14.50183105 6.78194824 15.39624023 7.33569336 C17.20389455 8.45521678 19.00847378 9.57971958 20.81005859 10.70898438 C23.43309336 12.34311468 26.07280923 13.94494572 28.72265625 15.53515625 C29.54024414 16.02717529 30.35783203 16.51919434 31.20019531 17.02612305 C32.75457986 17.96146677 34.30988142 18.8952887 35.86621094 19.82739258 C36.91663574 20.46584106 36.91663574 20.46584106 37.98828125 21.1171875 C38.90492554 21.67031616 38.90492554 21.67031616 39.84008789 22.23461914 C43.0668816 24.46840858 44.35541795 25.75370304 45.328125 29.64453125 C44.37231009 34.05598467 43.74005165 34.32447825 40.13671875 36.73046875 C39.22817139 37.33761719 38.31962402 37.94476563 37.38354492 38.5703125 C32.90774249 41.41726881 28.35731322 44.1145868 23.765625 46.76953125 C21.83113586 47.90602937 19.89754159 49.04405206 17.96484375 50.18359375 C12.58775357 53.35228607 12.58775357 53.35228607 10.25634766 54.71777344 C3.29586911 58.82554205 -2.58180363 62.70915403 -7.15234375 69.546875 C-8.484375 71.39453125 -8.484375 71.39453125 -11.484375 73.39453125 C-17.47933908 74.10579817 -20.70947296 73.17357437 -25.72265625 69.87890625 C-28.72902023 67.34582796 -30.35826622 65.59844978 -30.77734375 61.59765625 C-30.74253906 60.623125 -30.70773438 59.64859375 -30.671875 58.64453125 C-30.64480469 57.6596875 -30.61773437 56.67484375 -30.58984375 55.66015625 C-30.55503906 54.9125 -30.52023438 54.16484375 -30.484375 53.39453125 C-31.144375 53.39453125 -31.804375 53.39453125 -32.484375 53.39453125 C-33.144375 54.71453125 -33.804375 56.03453125 -34.484375 57.39453125 C-36.27669837 57.08582003 -38.06821821 56.77244061 -39.859375 56.45703125 C-40.85710938 56.28300781 -41.85484375 56.10898438 -42.8828125 55.9296875 C-45.484375 55.39453125 -45.484375 55.39453125 -47.484375 54.39453125 C-47.484375 53.40453125 -47.484375 52.41453125 -47.484375 51.39453125 C-48.103125 51.12640625 -48.721875 50.85828125 -49.359375 50.58203125 C-51.484375 49.39453125 -51.484375 49.39453125 -53.484375 46.39453125 C-53.88368274 43.29989624 -54.13484963 41.35332737 -53.484375 38.39453125 C-50.50241027 34.90345059 -48.66504966 33.56944601 -44.109375 32.89453125 C-39.82469354 33.4855218 -36.46535582 34.7183288 -32.484375 36.39453125 C-32.814375 35.73453125 -33.144375 35.07453125 -33.484375 34.39453125 C-33.55471269 32.5207352 -33.5686772 30.64452023 -33.546875 28.76953125 C-33.53785156 27.76664063 -33.52882813 26.76375 -33.51953125 25.73046875 C-33.50792969 24.95960937 -33.49632813 24.18875 -33.484375 23.39453125 C-28.58010704 20.99244082 -25.06666087 19.77427726 -19.484375 20.39453125 C-15.62063914 21.88733829 -14.64163839 23.11145715 -12.609375 26.76953125 C-11.12715575 31.54557104 -11.9550528 33.80656466 -13.484375 38.39453125 C-12.494375 38.88953125 -12.494375 38.88953125 -11.484375 39.39453125 C-11.484375 40.05453125 -11.484375 40.71453125 -11.484375 41.39453125 C-8.21976527 39.59040482 -6.59507705 38.56058432 -4.484375 35.39453125 C-4.2560527 32.79780202 -4.13563424 30.29872191 -4.10546875 27.69921875 C-4.08847427 26.95116974 -4.0714798 26.20312073 -4.05397034 25.43240356 C-4.00086581 23.04486499 -3.96054306 20.65734389 -3.921875 18.26953125 C-3.8779875 15.8746645 -3.83134559 13.47993425 -3.77906799 11.0852356 C-3.74703982 9.59516647 -3.720172 8.10497617 -3.69883728 6.61471558 C-3.57726578 0.56808781 -3.57726578 0.56808781 0 0 Z " fill="#1FB9AB" transform="translate(71.484375,96.60546875)"/>
<path d="M0 0 C4.05888691 2.06634243 6.42576415 3.72809635 8 8 C8.30078125 11.56640625 8.30078125 11.56640625 8.3125 15.5625 C8.32861328 16.23474609 8.34472656 16.90699219 8.36132812 17.59960938 C8.36622072 22.52645495 8.36622072 22.52645495 6.48046875 24.96484375 C5.99191406 25.30644531 5.50335938 25.64804688 5 26 C5.52078125 25.82597656 6.0415625 25.65195313 6.578125 25.47265625 C9.74079331 24.85542582 12.54507464 25.14905672 15.75 25.4375 C16.92046875 25.53933594 18.0909375 25.64117187 19.296875 25.74609375 C20.18890625 25.82988281 21.0809375 25.91367188 22 26 C21.505 27.485 21.505 27.485 21 29 C21.7425 29.2475 22.485 29.495 23.25 29.75 C26.52060208 31.23663731 28.00578185 31.9717428 30 35 C30.68570216 38.79773506 30.71612686 42.20509152 30 46 C26.71544536 50.26104386 23.94918952 51.11295789 18.8125 52.3125 C12.01962029 53.90370881 7.39407653 57.75704033 2 62 C-1.22960983 63.61480492 -4.50855762 63.5916597 -8 63 C-10.44107072 61.59189907 -11.96873323 60.03126677 -14 58 C-14.5775 57.46375 -15.155 56.9275 -15.75 56.375 C-17 55 -17 55 -19 52 C-20.21030781 52.98512891 -20.21030781 52.98512891 -20.08178711 54.87011719 C-20.05483765 56.0713623 -20.05483765 56.0713623 -20.02734375 57.296875 C-20.01509766 58.1734375 -20.00285156 59.05 -19.99023438 59.953125 C-19.95537115 61.80216728 -19.91637961 63.65113682 -19.87304688 65.5 C-19.76140254 74.48408517 -19.76140254 74.48408517 -22 78 C-24.42578125 79.9140625 -24.42578125 79.9140625 -27.3125 81.625 C-28.72982422 82.47964844 -28.72982422 82.47964844 -30.17578125 83.3515625 C-31.10777344 83.89554687 -32.03976563 84.43953125 -33 85 C-34.6670935 85.99928827 -36.33383105 86.99917094 -38 88 C-38.86625 88.515625 -39.7325 89.03125 -40.625 89.5625 C-42.4444223 90.66372929 -44.23044918 91.82029945 -46 93 C-48.1875 92.625 -48.1875 92.625 -50 92 C-46.21270762 89.65950844 -42.41947015 87.32883358 -38.625 85 C-37.54476562 84.33226562 -36.46453125 83.66453125 -35.3515625 82.9765625 C-34.3203125 82.34492188 -33.2890625 81.71328125 -32.2265625 81.0625 C-31.27346191 80.47597656 -30.32036133 79.88945312 -29.33837891 79.28515625 C-27 78 -27 78 -25 78 C-23.06694729 73.91988341 -22.73046204 70.59378905 -22.68115234 66.09838867 C-22.67110672 65.42466217 -22.6610611 64.75093567 -22.65071106 64.05679321 C-22.61997566 61.8438599 -22.60287121 59.63104704 -22.5859375 57.41796875 C-22.56721805 55.87810741 -22.54764405 54.33825624 -22.5272522 52.79841614 C-22.47600694 48.75597135 -22.43634069 44.71349334 -22.39910889 40.67089844 C-22.35902141 36.54158357 -22.30795075 32.41240602 -22.2578125 28.28320312 C-22.16114334 20.18889602 -22.07670992 12.09452075 -22 4 C-19.13275314 4.57344937 -18.1385485 4.8614515 -16 7 C-15.21625 6.030625 -14.4325 5.06125 -13.625 4.0625 C-9.80230056 -0.66557563 -5.85618033 -0.71848935 0 0 Z " fill="#C2CFD2" transform="translate(208,95)"/>
<path d="M0 0 C1.72524616 1.72524616 1.15427009 4.03688355 1.17700195 6.39013672 C1.19625481 8.11730423 1.19625481 8.11730423 1.21589661 9.87936401 C1.22328354 11.13347076 1.23067047 12.38757751 1.23828125 13.6796875 C1.246353 14.95852814 1.25442474 16.23736877 1.26274109 17.55496216 C1.27778053 20.2669461 1.2876127 22.97890371 1.29516602 25.69091797 C1.30623411 29.1671123 1.34063294 32.64266708 1.38033772 36.11863518 C1.41274585 39.43062773 1.4172779 42.74254856 1.42578125 46.0546875 C1.44328934 47.30474579 1.46079742 48.55480408 1.47883606 49.84274292 C1.47591049 51.00049225 1.47298492 52.15824158 1.4699707 53.35107422 C1.47583694 54.37175995 1.48170319 55.39244568 1.48774719 56.44406128 C1 59 1 59 -0.8631134 60.82009888 C-3.95224838 62.52579249 -5.48127084 62.55558882 -9 62 C-12.31111319 60.44583525 -15.35400432 58.52325381 -18.4375 56.5625 C-20.22114585 55.45669517 -22.00500204 54.35122954 -23.7890625 53.24609375 C-24.66852539 52.69550293 -25.54798828 52.14491211 -26.45410156 51.57763672 C-29.4089953 49.7465547 -32.40229803 47.9901071 -35.40625 46.24121094 C-50.25774674 37.54486833 -50.25774674 37.54486833 -51.875 32 C-49.4034658 23.52616847 -37.44795111 18.83581191 -30.25 14.5625 C-28.41835337 13.46773666 -26.58786392 12.37107894 -24.75817871 11.27304077 C-23.56123417 10.55580087 -22.36275882 9.84110904 -21.16271973 9.12905884 C-16.44234886 6.31545689 -11.89467031 3.28326236 -7.39355469 0.13256836 C-4.45030703 -1.26010054 -3.04761505 -1.00542259 0 0 Z " fill="#07516C" transform="translate(126,136)"/>
<path d="M0 0 C1.06927734 0.80824219 1.06927734 0.80824219 2.16015625 1.6328125 C2.89105469 2.16648437 3.62195313 2.70015625 4.375 3.25 C8.15129669 6.33171358 8.15129669 6.33171358 8.62890625 9.18359375 C8.8796838 16.90545244 8.8796838 16.90545244 5.91015625 20.7578125 C3.10224388 22.62316273 0.29671596 23.30865887 -2.96484375 24.0703125 C-9.75772346 25.66152131 -14.38326722 29.51485283 -19.77734375 33.7578125 C-23.0075582 35.37291972 -26.28541726 35.34845434 -29.77734375 34.7578125 C-33.28189938 32.77597864 -35.54957546 30.09946493 -37.77734375 26.7578125 C-38.63507524 22.34260451 -39.00302767 17.79923876 -36.62109375 13.83203125 C-34.4812307 11.79429802 -32.29020782 10.32626683 -29.77734375 8.7578125 C-29.11718262 8.34047852 -28.45702148 7.92314453 -27.77685547 7.49316406 C-25.48450094 6.0656684 -23.1696396 4.68578253 -20.83984375 3.3203125 C-19.71376709 2.64536743 -19.71376709 2.64536743 -18.56494141 1.95678711 C-12.39561382 -1.48763154 -6.67651299 -2.98611973 0 0 Z " fill="#089EA1" transform="translate(229.77734375,123.2421875)"/>
<path d="M0 0 C3.07155976 2.64495424 4.05657066 5.09200547 5.25 8.9375 C4.9821857 11.88345728 4.18648828 14.12803516 3.25 16.9375 C4.24 17.9275 5.23 18.9175 6.25 19.9375 C3.49557901 23.16786874 -0.0894067 24.97842235 -3.75 27 C-7.14734737 28.89708434 -10.50927545 30.77701696 -13.75 32.9375 C-14.41 32.6075 -15.07 32.2775 -15.75 31.9375 C-16.41 33.2575 -17.07 34.5775 -17.75 35.9375 C-19.54232337 35.62878878 -21.33384321 35.31540936 -23.125 35 C-24.12273438 34.82597656 -25.12046875 34.65195313 -26.1484375 34.47265625 C-28.75 33.9375 -28.75 33.9375 -30.75 32.9375 C-30.75 31.9475 -30.75 30.9575 -30.75 29.9375 C-31.36875 29.669375 -31.9875 29.40125 -32.625 29.125 C-34.75 27.9375 -34.75 27.9375 -36.75 24.9375 C-37.14930774 21.84286499 -37.40047463 19.89629612 -36.75 16.9375 C-33.76803527 13.44641934 -31.93067466 12.11241476 -27.375 11.4375 C-23.09031854 12.02849055 -19.73098082 13.26129755 -15.75 14.9375 C-16.08 14.2775 -16.41 13.6175 -16.75 12.9375 C-16.82033769 11.06370395 -16.8343022 9.18748898 -16.8125 7.3125 C-16.80347656 6.30960937 -16.79445313 5.30671875 -16.78515625 4.2734375 C-16.77355469 3.50257812 -16.76195313 2.73171875 -16.75 1.9375 C-10.98360679 -0.88685586 -6.31869386 -2.44131354 0 0 Z " fill="#D0DAD8" transform="translate(54.75,118.0625)"/>
<path d="M0 0 C5.46341463 2.92682927 5.46341463 2.92682927 7 6 C8.07508046 17.25762822 8.07508046 17.25762822 5.1875 21.9375 C-8.57834651 30.84481245 -8.57834651 30.84481245 -14 30 C-16.81966797 25.77049805 -16.40549018 22.16324803 -16.4375 17.1875 C-16.47037109 16.29740234 -16.50324219 15.40730469 -16.53710938 14.49023438 C-16.57337554 10.04268375 -16.46984779 6.96086741 -13.59765625 3.42578125 C-9.32133656 -0.56759398 -5.68592554 -0.71551076 0 0 Z " fill="#055375" transform="translate(208,95)"/>
<path d="M0 0 C0.33 0 0.66 0 1 0 C1.02712066 1.43739513 1.04645067 2.87493863 1.0625 4.3125 C1.07410156 5.11300781 1.08570312 5.91351563 1.09765625 6.73828125 C1 9 1 9 0 12 C2.475 11.505 2.475 11.505 5 11 C1.20238704 14.17186992 -2.79217753 16.8524371 -7 19.4375 C-7.67772461 19.85781494 -8.35544922 20.27812988 -9.05371094 20.71118164 C-11.36682229 22.14457521 -13.68307074 23.57278625 -16 25 C-18.8104219 26.73165381 -21.62058927 28.46370933 -24.4296875 30.19750977 C-26.2825979 31.34066181 -28.13672934 32.4818375 -29.9921875 33.62084961 C-30.84554687 34.14686768 -31.69890625 34.67288574 -32.578125 35.21484375 C-33.33512695 35.68011475 -34.09212891 36.14538574 -34.87207031 36.62475586 C-36.99225772 37.9949963 -38.99967785 39.46122527 -41 41 C-41.33 40.34 -41.66 39.68 -42 39 C-42.7734375 39.5878125 -42.7734375 39.5878125 -43.5625 40.1875 C-44.95741424 41.22474392 -46.36120014 42.25078961 -47.7890625 43.2421875 C-48.41554688 43.67789063 -49.04203125 44.11359375 -49.6875 44.5625 C-50.28949219 44.97628906 -50.89148438 45.39007813 -51.51171875 45.81640625 C-53.14995079 46.9485032 -53.14995079 46.9485032 -54 49 C-62.19256018 49.4726477 -62.19256018 49.4726477 -65.5625 47.5 C-66.036875 47.005 -66.51125 46.51 -67 46 C-66.67 45.34 -66.34 44.68 -66 44 C-65.34 44.33 -64.68 44.66 -64 45 C-58.33195403 45.51127604 -58.33195403 45.51127604 -53.25 43.375 C-50.90457741 41.07071374 -50.90457741 41.07071374 -49.3125 38.1875 C-43.83495024 30.63736384 -34.20766816 26.22650699 -26.25 21.625 C-24.32336058 20.49234389 -22.39757972 19.35822612 -20.47265625 18.22265625 C-17.86593693 16.68628743 -15.25897493 15.15076903 -12.64404297 13.62841797 C-10.64619183 12.45895521 -8.66516707 11.26567759 -6.6875 10.0625 C-5.59824219 9.41410156 -4.50898437 8.76570312 -3.38671875 8.09765625 C-0.71346227 6.14199972 -0.71346227 6.14199972 -0.14453125 2.74609375 C-0.09683594 1.83988281 -0.04914063 0.93367188 0 0 Z " fill="#C5D2D7" transform="translate(116,124)"/>
<path d="M0 0 C0.5775 0.226875 1.155 0.45375 1.75 0.6875 C0.76 1.38875 -0.23 2.09 -1.25 2.8125 C-3.57278853 4.79550412 -4.20713091 5.55603479 -5.1875 8.5625 C-2.64599474 17.03418421 9.18456282 21.31660964 16.5078125 25.33203125 C20.81772374 27.70278215 25.03996449 30.20696436 29.25 32.75 C29.90307129 33.14429199 30.55614258 33.53858398 31.22900391 33.94482422 C32.73711692 34.85721012 34.2437403 35.77205769 35.75 36.6875 C32.82175348 37.66358217 30.79386724 37.76976668 27.75 37.6875 C27.75 38.3475 27.75 39.0075 27.75 39.6875 C28.74 39.6875 29.73 39.6875 30.75 39.6875 C30.75 40.3475 30.75 41.0075 30.75 41.6875 C26.86156765 40.24066221 23.3751136 38.42691399 19.78515625 36.3515625 C18.65529297 35.69929688 17.52542969 35.04703125 16.36132812 34.375 C15.77810791 34.03597656 15.1948877 33.69695312 14.59399414 33.34765625 C12.823441 32.31885738 11.04969103 31.29575727 9.27539062 30.2734375 C0.19348424 25.01576406 0.19348424 25.01576406 -3.25610352 22.46240234 C-6.59607462 20.48233303 -8.43860105 20.32450962 -12.25 20.6875 C-12.26458252 21.70175049 -12.27916504 22.71600098 -12.29418945 23.76098633 C-12.35216253 27.52404029 -12.42939459 31.28649521 -12.51245117 35.04907227 C-12.54570536 36.67755409 -12.57373584 38.30615131 -12.59643555 39.93481445 C-12.62997357 42.27605361 -12.68228585 44.61623486 -12.73828125 46.95703125 C-12.74467117 47.68525589 -12.7510611 48.41348053 -12.75764465 49.16377258 C-12.90534388 54.24134196 -12.90534388 54.24134196 -14.78198242 56.6706543 C-15.26642822 57.00621338 -15.75087402 57.34177246 -16.25 57.6875 C-16.1565993 52.31202409 -16.0505365 46.93700579 -15.93261719 41.56201172 C-15.89428223 39.73265471 -15.85943737 37.90322115 -15.828125 36.07373047 C-15.78257195 33.44731241 -15.72456269 30.82142341 -15.6640625 28.1953125 C-15.65251129 27.37443146 -15.64096008 26.55355042 -15.62905884 25.70779419 C-15.47774341 19.91524341 -15.47774341 19.91524341 -13.25 17.6875 C-11.0859375 17.4921875 -11.0859375 17.4921875 -8.625 17.5625 C-7.39910156 17.58957031 -7.39910156 17.58957031 -6.1484375 17.6171875 C-5.20871094 17.65199219 -5.20871094 17.65199219 -4.25 17.6875 C-3.92 17.0275 -3.59 16.3675 -3.25 15.6875 C-4.57 16.0175 -5.89 16.3475 -7.25 16.6875 C-7.18998496 14.41593079 -7.10120032 12.14510726 -7 9.875 C-6.93039063 7.97814453 -6.93039063 7.97814453 -6.859375 6.04296875 C-6.25 2.6875 -6.25 2.6875 -4.34375 0.71875 C-2.25 -0.3125 -2.25 -0.3125 0 0 Z " fill="#CDE1DE" transform="translate(81.25,77.3125)"/>
<path d="M0 0 C0.99 0.33 1.98 0.66 3 1 C3.34907695 4.75257718 3.27011863 6.56588078 1.25 9.8125 C-1.11041284 12.10734582 -1.93732102 12.33003897 -5 13 C-7.27144074 14.85432087 -7.27144074 14.85432087 -9 17 C-9 17.66 -9 18.32 -9 19 C-7.35 18.67 -5.7 18.34 -4 18 C-6.58714876 20.91634095 -9.56771613 22.65718956 -12.91796875 24.6171875 C-13.49404373 24.95622101 -14.07011871 25.29525452 -14.66365051 25.64456177 C-16.50244041 26.72569141 -18.34478116 27.80058323 -20.1875 28.875 C-22.0073483 29.94094913 -23.82641995 31.00820683 -25.64505005 32.07623291 C-27.38419353 33.09735666 -29.12445908 34.11656857 -30.86474609 35.13574219 C-33.5217335 36.71561727 -36.13629564 38.33976751 -38.73828125 40.0078125 C-42 42 -42 42 -44 42 C-44 40.35 -44 38.7 -44 37 C-44.99 37.495 -44.99 37.495 -46 38 C-47.70702735 38.06996014 -49.41668003 38.08440154 -51.125 38.0625 C-52.03507813 38.05347656 -52.94515625 38.04445312 -53.8828125 38.03515625 C-54.58148438 38.02355469 -55.28015625 38.01195312 -56 38 C-56 37.01 -56 36.02 -56 35 C-54.7728125 35.14050781 -53.545625 35.28101563 -52.28125 35.42578125 C-45.36476335 35.41092161 -40.23785616 31.70075697 -34.5 28.1875 C-33.35110976 27.50304823 -32.20136152 26.8200347 -31.05078125 26.13842773 C-23.54883432 21.6675925 -16.1485726 17.02341839 -8.90039062 12.15112305 C-4.193359 9 -4.193359 9 -2 9 C-1.34 6.03 -0.68 3.06 0 0 Z " fill="#C2D3D2" transform="translate(181,84)"/>
<path d="M0 0 C2.87305972 1.40460697 4.74510999 2.74510999 7 5 C7.57085213 8.05856563 7.50821232 10.93484444 7 14 C4.48165527 17.66304688 2.79716189 18.75360451 -1.4375 20.0625 C-5.85877235 19.98493382 -7.64565246 18.80829096 -11 16 C-13.11889653 12.8216552 -13.54651796 10.80584911 -13.44140625 7.0078125 C-13 5 -13 5 -10.4375 2 C-6.46412407 -0.31178236 -4.51990817 -0.65744119 0 0 Z " fill="#0C526E" transform="translate(31,130)"/>
<path d="M0 0 C4.6 2.2 4.6 2.2 6 5 C6.68571429 11.97142857 6.68571429 11.97142857 4 16 C0.6660243 18.22265047 -1.14052666 18.73748232 -5.06640625 18.5 C-8.34720232 17.65163253 -9.96643739 15.5881706 -12 13 C-13.462958 10.074084 -13.44523109 8.24382653 -13 5 C-8.94186265 0.44696785 -6.2575823 -0.91019379 0 0 Z " fill="#32B999" transform="translate(52,117)"/>
<path d="M0 0 C0.33 0.99 0.66 1.98 1 3 C0.38125 3.0825 -0.2375 3.165 -0.875 3.25 C-1.57625 3.4975 -2.2775 3.745 -3 4 C-3.28230469 4.62261719 -3.56460938 5.24523437 -3.85546875 5.88671875 C-5.310147 8.57266051 -6.72811982 9.21448326 -9.4375 10.5625 C-12.48582007 12.09419295 -14.65994648 13.52468327 -17 16 C-17.721875 16.433125 -18.44375 16.86625 -19.1875 17.3125 C-21.27809726 18.92764188 -21.27809726 18.92764188 -21.5625 21.875 C-20.82259093 25.98560592 -19.1570047 27.3569263 -16 30 C-12.32653229 32.44897847 -10.33643601 32.31537716 -6 32 C-5.34 31.34 -4.68 30.68 -4 30 C-3.01 30 -2.02 30 -1 30 C-0.773125 29.113125 -0.54625 28.22625 -0.3125 27.3125 C1.57703616 22.54367065 4.16342055 19.85707041 8.8125 17.6875 C9.534375 17.460625 10.25625 17.23375 11 17 C11 16.34 11 15.68 11 15 C14 14 14 14 18 14 C18 13.01 18 12.02 18 11 C19.98 10.67 21.96 10.34 24 10 C24 9.34 24 8.68 24 8 C25.98 7.67 27.96 7.34 30 7 C27.32663124 9.84770231 24.76639266 11.91181769 21.375 13.83984375 C20.50359375 14.34580078 19.6321875 14.85175781 18.734375 15.37304688 C16.91313971 16.41505363 15.09022138 17.45412429 13.265625 18.49023438 C8.61993987 21.19449044 5.02819281 23.42696771 2 28 C-2.67527675 33.83763838 -2.67527675 33.83763838 -5 35 C-10.99815449 35.62049874 -14.21711345 34.78429055 -19.23828125 31.484375 C-22.01377638 29.14582034 -23.7477991 27.20235311 -24.50390625 23.59765625 C-24.52324219 22.76105469 -24.54257812 21.92445313 -24.5625 21.0625 C-24.60503906 20.22847656 -24.64757813 19.39445312 -24.69140625 18.53515625 C-23.31216938 13.47795438 -18.2882816 11.0896766 -13.984375 8.61328125 C-12.57641519 7.83995017 -11.16489388 7.07307024 -9.75 6.3125 C-8.32647926 5.54078849 -6.90452751 4.76617378 -5.484375 3.98828125 C-4.86272461 3.65352783 -4.24107422 3.31877441 -3.60058594 2.97387695 C-1.81808688 1.97577059 -1.81808688 1.97577059 0 0 Z " fill="#1F9B95" transform="translate(65,135)"/>
<path d="M0 0 C6.95053439 3.35824858 13.63903445 7.01724705 20.25 11 C21.10851562 11.50789063 21.96703125 12.01578125 22.8515625 12.5390625 C27.57253618 15.37164671 32.0246929 18.17145383 36 22 C36.6875 25.5 36.6875 25.5 36 29 C32.69868337 32.7795953 29.16361666 35.35312742 24.87890625 37.92578125 C24.29769516 38.27706589 23.71648407 38.62835052 23.11766052 38.99028015 C21.26994176 40.10450499 19.41631523 41.20845543 17.5625 42.3125 C16.35443851 43.04038665 15.14675336 43.76889828 13.93945312 44.49804688 C10.92022405 46.31716674 7.88926672 48.11549132 4.85217285 49.90460205 C2.94855648 51.03042433 1.0531176 52.16933233 -0.84277344 53.30810547 C-2.08618599 54.04332445 -3.32998771 54.77788576 -4.57421875 55.51171875 C-6.23263794 56.49918091 -6.23263794 56.49918091 -7.92456055 57.5065918 C-12.28570639 59.62432849 -15.25140192 59.65497905 -20 59 C-20.33 58.34 -20.66 57.68 -21 57 C-19.63875 57.185625 -19.63875 57.185625 -18.25 57.375 C-13.15716435 57.42707398 -9.13494808 54.7805944 -4.76953125 52.41015625 C-2.44591213 51.22704412 -0.5411452 50.47911807 2 50 C2 49.34 2 48.68 2 48 C4.01687578 46.59058087 6.01293333 45.31366993 8.125 44.0625 C8.69476563 43.71509766 9.26453125 43.36769531 9.8515625 43.00976562 C12.63123351 41.33248687 15.42897097 39.78651913 18.3359375 38.33984375 C20.96442262 37.19257931 20.96442262 37.19257931 22.5 35.5 C25.37918618 32.62081382 29.19270184 31.26909939 33 30 C33.50074688 25.42999506 33.50074688 25.42999506 31.765625 21.43359375 C29.78983108 19.829354 27.79285002 18.60112834 25.5625 17.375 C24.80066406 16.94960937 24.03882813 16.52421875 23.25390625 16.0859375 C21.07515598 14.93601648 21.07515598 14.93601648 18.85546875 14.49609375 C17 14 17 14 14.75 11.6875 C11.47801469 8.48987799 8.13964345 6.83870019 4 5 C4 4.34 4 3.68 4 3 C2.68 2.67 1.36 2.34 0 2 C0 1.34 0 0.68 0 0 Z " fill="#62B493" transform="translate(145,61)"/>
<path d="M0 0 C0.375 2.1875 0.375 2.1875 0 5 C-3.43801277 8.90260909 -6.15257583 10.18000273 -11.1875 11.3125 C-17.98037971 12.90370881 -22.60592347 16.75704033 -28 21 C-31.17024765 22.58512383 -34.54667028 22.42372144 -38 22 C-40 20.5 -40 20.5 -41 19 C-40.67 18.67 -40.34 18.34 -40 18 C-40 17.67 -40 17.34 -40 17 C-38.6078125 17.0928125 -38.6078125 17.0928125 -37.1875 17.1875 C-33.49878508 16.97051677 -33.35906744 16.55565639 -31 14 C-29.96875 13.67 -28.9375 13.34 -27.875 13 C-26.92625 12.67 -25.9775 12.34 -25 12 C-24.67 11.01 -24.34 10.02 -24 9 C-23.236875 9.185625 -22.47375 9.37125 -21.6875 9.5625 C-18.91032625 10.22819173 -18.91032625 10.22819173 -16 9 C-15.38125 8.896875 -14.7625 8.79375 -14.125 8.6875 C-11.22549551 7.74942502 -9.34316798 5.91153177 -7 4 C-6.34 4 -5.68 4 -5 4 C-5 3.34 -5 2.68 -5 2 C-1.125 0 -1.125 0 0 0 Z " fill="#23BCBA" transform="translate(238,136)"/>
<path d="M0 0 C1.32 0 2.64 0 4 0 C6.55609325 4.26015542 6.04366285 7.79101081 4.94140625 12.421875 C3.29968784 16.91786733 0.94963817 20.25840134 -3 23 C-5.62489627 23.60102765 -8.0186666 23.74774786 -10.70703125 23.8046875 C-14.06054256 24.09033582 -15.63885037 25.70631179 -18 28 C-18.928125 28.515625 -19.85625 29.03125 -20.8125 29.5625 C-21.534375 30.036875 -22.25625 30.51125 -23 31 C-23 31.99 -23 32.98 -23 34 C-24.485 34.495 -24.485 34.495 -26 35 C-26 34.34 -26 33.68 -26 33 C-26.66 33 -27.32 33 -28 33 C-28 33.66 -28 34.32 -28 35 C-32.59471924 33.92999689 -37.03725994 32.62114704 -41 30 C-42.37672788 27.56062665 -42.61902202 25.83012212 -43 23 C-42.236875 23.78375 -41.47375 24.5675 -40.6875 25.375 C-37.59224655 28.39827081 -35.84575513 29.84622634 -31.5625 30.625 C-25.06890944 30.52844103 -20.00018872 25.68902812 -15 22 C-12.12581191 20.0838746 -10.88886449 19.67083399 -7.625 19.125 C-3.44845668 18.20520661 -0.68158721 17.54661534 2 14 C2.73713697 8.77730613 2.97118011 4.45677016 0 0 Z " fill="#A5C8CA" transform="translate(235,127)"/>
<path d="M0 0 C0.33 0 0.66 0 1 0 C1.1772083 8.51877655 1.34314615 17.03766687 1.49477577 25.5569334 C1.56553911 29.51294171 1.64015464 33.4687985 1.72363281 37.42456055 C1.80407974 41.24344505 1.87433049 45.06239453 1.93757248 48.88160133 C1.9634579 50.33727722 1.99299122 51.79289304 2.02626419 53.24841881 C2.07230934 55.29016539 2.1052744 57.33174223 2.13525391 59.3737793 C2.15746002 60.53515915 2.17966614 61.696539 2.20254517 62.89311218 C1.995631 66.06701714 1.45831271 68.18648309 0 71 C-2.42578125 72.9140625 -2.42578125 72.9140625 -5.3125 74.625 C-6.72982422 75.47964844 -6.72982422 75.47964844 -8.17578125 76.3515625 C-9.10777344 76.89554687 -10.03976563 77.43953125 -11 78 C-12.6670935 78.99928827 -14.33383105 79.99917094 -16 81 C-16.86625 81.515625 -17.7325 82.03125 -18.625 82.5625 C-20.4444223 83.66372929 -22.23044918 84.82029945 -24 86 C-26.1875 85.625 -26.1875 85.625 -28 85 C-24.21270762 82.65950844 -20.41947015 80.32883358 -16.625 78 C-15.54476562 77.33226562 -14.46453125 76.66453125 -13.3515625 75.9765625 C-12.3203125 75.34492188 -11.2890625 74.71328125 -10.2265625 74.0625 C-9.27346191 73.47597656 -8.32036133 72.88945312 -7.33837891 72.28515625 C-5 71 -5 71 -3 71 C-1.12173639 67.00254153 -0.73162722 63.77350587 -0.68115234 59.3737793 C-0.67110672 58.72931351 -0.6610611 58.08484772 -0.65071106 57.42085266 C-0.61999064 55.30531652 -0.60287552 53.18990628 -0.5859375 51.07421875 C-0.56721683 49.60161769 -0.54764274 48.12902725 -0.5272522 46.65644836 C-0.47601977 42.79155758 -0.43634672 38.92663205 -0.39910889 35.06158447 C-0.3590133 31.11323515 -0.30794636 27.16502924 -0.2578125 23.21679688 C-0.16115856 15.47796314 -0.07672037 7.73905975 0 0 Z " fill="#AEC6C4" transform="translate(186,102)"/>
<path d="M0 0 C1.06927734 0.80824219 1.06927734 0.80824219 2.16015625 1.6328125 C2.89105469 2.16648437 3.62195313 2.70015625 4.375 3.25 C6.22265625 4.7578125 6.22265625 4.7578125 8.22265625 6.7578125 C8.34765625 9.8828125 8.34765625 9.8828125 8.22265625 12.7578125 C7.89265625 12.7578125 7.56265625 12.7578125 7.22265625 12.7578125 C6.88234375 11.3965625 6.88234375 11.3965625 6.53515625 10.0078125 C5.02164661 6.26007435 3.56007496 4.95562482 0.22265625 2.7578125 C-4.58736921 1.15447068 -8.93615123 1.07737179 -13.65234375 2.8203125 C-17.31083852 5.08857926 -20.82025664 7.52332321 -24.3125 10.0390625 C-26.77734375 11.7578125 -26.77734375 11.7578125 -29.4453125 13.27734375 C-32.5087469 15.22213711 -33.88152485 17.7109607 -35.77734375 20.7578125 C-36.10734375 20.7578125 -36.43734375 20.7578125 -36.77734375 20.7578125 C-37.21484375 18.1328125 -37.21484375 18.1328125 -36.77734375 14.7578125 C-32.50352684 9.8365979 -26.51691244 6.53802852 -20.90234375 3.3828125 C-19.77505859 2.70798828 -19.77505859 2.70798828 -18.625 2.01953125 C-12.43629385 -1.47289469 -6.71749555 -3.00444948 0 0 Z " fill="#238B90" transform="translate(229.77734375,123.2421875)"/>
<path d="M0 0 C-1.875 4.75 -1.875 4.75 -3 7 C-4.11375 7.309375 -5.2275 7.61875 -6.375 7.9375 C-10.9086556 9.26633009 -12.07148026 10.39619317 -14.375 14.375 C-16.35175571 17.56822077 -17.99209048 19.71137319 -21 22 C-25.28872556 22.82091885 -28.77016144 22.7199055 -32.5625 20.5 C-33.036875 20.005 -33.51125 19.51 -34 19 C-33.67 18.34 -33.34 17.68 -33 17 C-32.34 17.33 -31.68 17.66 -31 18 C-25.33195403 18.51127604 -25.33195403 18.51127604 -20.25 16.375 C-17.90457741 14.07071374 -17.90457741 14.07071374 -16.3125 11.1875 C-13.03209456 6.66586006 -5.98893125 0 0 0 Z " fill="#ACCDCE" transform="translate(83,151)"/>
<path d="M0 0 C5.18332149 0.59565241 8.74657571 3.14546223 13.09765625 5.90625 C14.41588379 6.72077637 14.41588379 6.72077637 15.76074219 7.55175781 C17.52837349 8.64545138 19.29259776 9.74467226 21.05322266 10.84960938 C23.88243894 12.62406177 26.72852615 14.36948978 29.57788086 16.11132812 C31.9024862 17.534081 34.21925841 18.96937908 36.53515625 20.40625 C33.53515625 21.40625 33.53515625 21.40625 29.53515625 21.40625 C28.89578125 20.601875 28.25640625 19.7975 27.59765625 18.96875 C25.76126555 16.18928602 25.76126555 16.18928602 22.78515625 15.59375 C22.04265625 15.531875 21.30015625 15.47 20.53515625 15.40625 C20.53515625 14.41625 20.53515625 13.42625 20.53515625 12.40625 C18.22515625 12.07625 15.91515625 11.74625 13.53515625 11.40625 C13.53515625 10.41625 13.53515625 9.42625 13.53515625 8.40625 C12.40078125 8.1175 11.26640625 7.82875 10.09765625 7.53125 C8.92203125 7.16 7.74640625 6.78875 6.53515625 6.40625 C6.20515625 5.74625 5.87515625 5.08625 5.53515625 4.40625 C3.89152491 3.68465576 2.22465239 3.01273579 0.53515625 2.40625 C-2.01435021 6.22055069 -1.62311973 10.07263453 -1.46484375 14.46875 C-1.19509014 22.00161958 -1.19509014 22.00161958 -3.46484375 25.40625 C-3.49371359 21.42709841 -3.51159781 17.44797347 -3.52734375 13.46875 C-3.53572266 12.33244141 -3.54410156 11.19613281 -3.55273438 10.02539062 C-3.55595703 8.94580078 -3.55917969 7.86621094 -3.5625 6.75390625 C-3.56773682 5.75367432 -3.57297363 4.75344238 -3.57836914 3.72290039 C-3.42059783 0.50334786 -3.18014569 0.52414446 0 0 Z " fill="#46D4BE" transform="translate(71.46484375,96.59375)"/>
<path d="M0 0 C0.99 0.33 1.98 0.66 3 1 C3.34907695 4.75257718 3.27011863 6.56588078 1.25 9.8125 C-1.05221746 12.05076697 -1.94411065 12.50711462 -5 13 C-5.99 13.66 -6.98 14.32 -8 15 C-8.99 15 -9.98 15 -11 15 C-11.23074219 15.59554687 -11.46148437 16.19109375 -11.69921875 16.8046875 C-13.34133981 19.57607499 -15.03014702 20.53150849 -17.8125 22.125 C-18.66457031 22.62257813 -19.51664063 23.12015625 -20.39453125 23.6328125 C-22.88438025 24.93932997 -25.38894153 25.96518251 -28 27 C-28.845625 27.556875 -29.69125 28.11375 -30.5625 28.6875 C-33 30 -33 30 -35.15234375 29.58203125 C-35.76207031 29.38996094 -36.37179688 29.19789062 -37 29 C-36.04222656 28.47792969 -35.08445313 27.95585938 -34.09765625 27.41796875 C-25.63633694 22.75598138 -17.4416559 17.82916406 -9.41040039 12.45581055 C-4.20166932 9 -4.20166932 9 -2 9 C-1.34 6.03 -0.68 3.06 0 0 Z " fill="#B6D1C9" transform="translate(181,84)"/>
<path d="M0 0 C1.98 0 3.96 0 6 0 C6.84310842 3.64984624 7.11516398 6.99418575 7.08520508 10.73657227 C7.07801956 11.86446671 7.07083405 12.99236115 7.06343079 14.1544342 C7.04894394 15.36288498 7.03445709 16.57133575 7.01953125 17.81640625 C7.00540695 19.06501938 6.99128265 20.31363251 6.97673035 21.6000824 C6.94365172 24.23698782 6.90765128 26.87370022 6.86791992 29.51049805 C6.81842847 32.88528553 6.7923362 36.25983538 6.77148914 39.63490391 C6.74621622 42.86231106 6.6934375 46.08928399 6.64453125 49.31640625 C6.64016556 50.52688126 6.63579987 51.73735626 6.63130188 52.98451233 C6.5968824 54.67162575 6.5968824 54.67162575 6.56176758 56.39282227 C6.5439196 57.87577538 6.5439196 57.87577538 6.52571106 59.38868713 C5.85448099 62.72282226 4.62705141 63.90278131 2 66 C-0.875 67 -0.875 67 -4 67 C-7.375 65.0625 -7.375 65.0625 -10 63 C-9.67 62.34 -9.34 61.68 -9 61 C-8.46375 61.33 -7.9275 61.66 -7.375 62 C-4.3838974 63.25941162 -2.22270017 63.26855835 1 63 C2.35208914 62.37224433 3.69001797 61.71145576 5 61 C4.96196861 53.4892741 4.90264486 45.97897302 4.81609726 38.46865368 C4.77657934 34.98128051 4.7444126 31.49416144 4.72900391 28.0065918 C4.71096949 23.99747025 4.66103871 19.98929895 4.609375 15.98046875 C4.60814636 14.72727341 4.60691772 13.47407806 4.60565186 12.1829071 C4.58593323 11.02193008 4.5662146 9.86095306 4.54589844 8.66479492 C4.53701599 7.64109299 4.52813354 6.61739105 4.51898193 5.56266785 C4.23102071 2.84396951 4.23102071 2.84396951 1.96588135 1.14595032 C1.3171405 0.76778671 0.66839966 0.38962311 0 0 Z " fill="#B2C7CC" transform="translate(122,134)"/>
<path d="M0 0 C0 22.77 0 45.54 0 69 C-0.33 69 -0.66 69 -1 69 C-1 46.56 -1 24.12 -1 1 C-2.485 2.485 -2.485 2.485 -4 4 C-7.67510779 6.54955274 -10.40386906 8 -15 8 C-12.86495107 5.73192622 -10.68604821 3.98935519 -8.0625 2.3125 C-7.39347656 1.87550781 -6.72445312 1.43851562 -6.03515625 0.98828125 C-4 0 -4 0 0 0 Z " fill="#4C8272" transform="translate(186,99)"/>
<path d="M0 0 C0.495 1.485 0.495 1.485 1 3 C-6.45008504 8.39786497 -14.13595006 13.27132184 -22.0625 17.9375 C-23.18205078 18.62134766 -24.30160156 19.30519531 -25.45507812 20.00976562 C-32.00216162 23.85353722 -36.3789954 25.91129473 -44 25 C-44.33 24.34 -44.66 23.68 -45 23 C-44.0925 23.12375 -43.185 23.2475 -42.25 23.375 C-37.15716435 23.42707398 -33.13494808 20.7805944 -28.76953125 18.41015625 C-26.44591213 17.22704412 -24.5411452 16.47911807 -22 16 C-22 15.34 -22 14.68 -22 14 C-19.98312422 12.59058087 -17.98706667 11.31366993 -15.875 10.0625 C-15.30523437 9.71509766 -14.73546875 9.36769531 -14.1484375 9.00976562 C-11.37643078 7.33711157 -8.586442 5.79419637 -5.6875 4.3515625 C-3.2409546 3.12117775 -1.76345686 2.05736634 0 0 Z " fill="#5CB193" transform="translate(169,95)"/>
<path d="M0 0 C6.48436786 0.66014911 6.48436786 0.66014911 9.00390625 3.1796875 C9.31328125 3.8190625 9.62265625 4.4584375 9.94140625 5.1171875 C9.24015625 4.7871875 8.53890625 4.4571875 7.81640625 4.1171875 C4.67320319 3.02389948 2.24346133 3.04401176 -1.05859375 3.1171875 C-1.07317627 4.13143799 -1.08775879 5.14568848 -1.1027832 6.19067383 C-1.16075628 9.95372779 -1.23798834 13.71618271 -1.32104492 17.47875977 C-1.35429911 19.10724159 -1.38232959 20.73583881 -1.4050293 22.36450195 C-1.43856732 24.70574111 -1.4908796 27.04592236 -1.546875 29.38671875 C-1.55326492 30.11494339 -1.55965485 30.84316803 -1.5662384 31.59346008 C-1.71393763 36.67102946 -1.71393763 36.67102946 -3.59057617 39.1003418 C-4.07502197 39.43590088 -4.55946777 39.77145996 -5.05859375 40.1171875 C-4.96519305 34.74171159 -4.85913025 29.36669329 -4.74121094 23.99169922 C-4.70287598 22.16234221 -4.66803112 20.33290865 -4.63671875 18.50341797 C-4.5911657 15.87699991 -4.53315644 13.25111091 -4.47265625 10.625 C-4.46110504 9.80411896 -4.44955383 8.98323792 -4.43765259 8.13748169 C-4.23137414 0.24087519 -4.23137414 0.24087519 0 0 Z " fill="#B7E5E1" transform="translate(70.05859375,94.8828125)"/>
<path d="M0 0 C0.33 0.99 0.66 1.98 1 3 C0.38125 3.0825 -0.2375 3.165 -0.875 3.25 C-1.57625 3.4975 -2.2775 3.745 -3 4 C-3.28230469 4.62261719 -3.56460938 5.24523437 -3.85546875 5.88671875 C-5.310147 8.57266051 -6.72811982 9.21448326 -9.4375 10.5625 C-12.48472805 12.09364424 -14.66373752 13.52153023 -17 16 C-17.70125 16.433125 -18.4025 16.86625 -19.125 17.3125 C-21.701036 19.6309324 -21.70092534 21.63541004 -22 25 C-22.33 25 -22.66 25 -23 25 C-23.33232818 23.61328513 -23.61427971 22.21444332 -23.875 20.8125 C-24.03742187 20.03519531 -24.19984375 19.25789063 -24.3671875 18.45703125 C-23.88857716 15.25441526 -22.38104232 14.13771678 -19.85791016 12.23852539 C-16.59453348 10.06308388 -13.20267971 8.16847343 -9.75 6.3125 C-8.32647926 5.54078849 -6.90452751 4.76617378 -5.484375 3.98828125 C-4.86272461 3.65352783 -4.24107422 3.31877441 -3.60058594 2.97387695 C-1.81808688 1.97577059 -1.81808688 1.97577059 0 0 Z " fill="#2CA59D" transform="translate(65,135)"/>
<path d="M0 0 C-2.9905167 3.33557632 -5.93184627 5.15083921 -10 7 C-9.71890887 8.64767247 -9.42481474 10.29313145 -9.125 11.9375 C-8.96257812 12.85402344 -8.80015625 13.77054688 -8.6328125 14.71484375 C-8.42398438 15.46894531 -8.21515625 16.22304687 -8 17 C-7.34 17.33 -6.68 17.66 -6 18 C-6 18.66 -6 19.32 -6 20 C-9.91020436 18.69659855 -12.50108551 17.33188599 -15 14 C-15.6875 11.125 -15.6875 11.125 -15 8 C-10.89329559 3.39087962 -6.3070071 -0.3409193 0 0 Z " fill="#26898D" transform="translate(91,75)"/>
<path d="M0 0 C0 2 0 2 -1.28515625 3.4375 C-5.39793478 7.05312948 -8.58350181 8.71973679 -14 10 C-16.02323613 10.95211112 -18.02699884 11.94773272 -20 13 C-21.33333333 13.66666667 -22.66666667 14.33333333 -24 15 C-23.63027241 12.56312992 -23.41399926 11.33681073 -21.46533203 9.75146484 C-20.49635986 9.23640381 -20.49635986 9.23640381 -19.5078125 8.7109375 C-18.80269531 8.32679687 -18.09757812 7.94265625 -17.37109375 7.546875 C-16.62988281 7.16015625 -15.88867188 6.7734375 -15.125 6.375 C-13.66886017 5.59190898 -12.21311586 4.80808193 -10.7578125 4.0234375 C-10.1095752 3.68231934 -9.46133789 3.34120117 -8.79345703 2.98974609 C-3.37592501 0 -3.37592501 0 0 0 Z " fill="#2A9C91" transform="translate(116,60)"/>
<path d="M0 0 C0.66 0.33 1.32 0.66 2 1 C0.20966193 2.31431172 -1.58231203 3.6263953 -3.375 4.9375 C-4.37273437 5.66839844 -5.37046875 6.39929688 -6.3984375 7.15234375 C-10.55391681 10.10360758 -13.9447124 10.62028069 -19 10 C-21 8.5 -21 8.5 -22 7 C-21.67 6.67 -21.34 6.34 -21 6 C-21 5.67 -21 5.34 -21 5 C-18.69 5.33 -16.38 5.66 -14 6 C-14 6.66 -14 7.32 -14 8 C-13.01 8 -12.02 8 -11 8 C-11 7.01 -11 6.02 -11 5 C-7.71379848 2.80919899 -4.78119262 2.05033128 -1 1 C-0.67 0.67 -0.34 0.34 0 0 Z " fill="#38C1BF" transform="translate(219,148)"/>
<path d="M0 0 C0.33 0 0.66 0 1 0 C1 2.31 1 4.62 1 7 C1.99 7.33 2.98 7.66 4 8 C5.35432675 9.31200404 6.68733482 10.64631404 8 12 C11.67346771 14.44897847 13.66356399 14.31537716 18 14 C18.66 13.34 19.32 12.68 20 12 C20.99 12 21.98 12 23 12 C23.33 11.34 23.66 10.68 24 10 C23.64978759 12.53903996 23.15988127 13.82093298 21.4375 15.75 C17.9219391 17.55285174 14.80952255 17.74399355 11 17 C6.70684109 15.0715222 2.0066612 12.38957137 0 8 C-0.22530013 5.28067987 -0.13694602 2.73892047 0 0 Z " fill="#24898B" transform="translate(41,153)"/>
<path d="M0 0 C0.33 0 0.66 0 1 0 C1 4.29 1 8.58 1 13 C-0.98 13.99 -0.98 13.99 -3 15 C-3.309375 15.61875 -3.61875 16.2375 -3.9375 16.875 C-5.50255902 20.00511805 -6.96055624 21.22699114 -10 23 C-13.36120019 23.3294285 -16.63463035 23.23524914 -20 23 C-19.46632812 22.74476562 -18.93265625 22.48953125 -18.3828125 22.2265625 C-14.3729845 20.1624871 -10.54738914 17.77777589 -6.6796875 15.4609375 C-4 14 -4 14 -2 14 C-0.99740493 10.99221479 -0.69685358 8.46179353 -0.4375 5.3125 C-0.35371094 4.31863281 -0.26992187 3.32476562 -0.18359375 2.30078125 C-0.09271484 1.16189453 -0.09271484 1.16189453 0 0 Z " fill="#9EBEC6" transform="translate(215,103)"/>
<path d="M0 0 C2.9375 1.375 2.9375 1.375 5 3 C5 3.66 5 4.32 5 5 C4.06027344 4.85691406 4.06027344 4.85691406 3.1015625 4.7109375 C2.28429688 4.60007812 1.46703125 4.48921875 0.625 4.375 C-0.18710937 4.25898437 -0.99921875 4.14296875 -1.8359375 4.0234375 C-2.55007812 4.01570313 -3.26421875 4.00796875 -4 4 C-4.66 4.66 -5.32 5.32 -6 6 C-7.98821313 6.39764263 -9.98944339 6.73775349 -12 7 C-12.33 8.32 -12.66 9.64 -13 11 C-13.375 8.3125 -13.375 8.3125 -13 5 C-8.94186265 0.44696785 -6.2575823 -0.91019379 0 0 Z " fill="#5BCAAC" transform="translate(52,117)"/>
<path d="M0 0 C0.66 0.33 1.32 0.66 2 1 C0.64022513 5.62800569 -1.21199145 7.19465799 -5.3125 9.625 C-6.25738281 10.19476563 -7.20226562 10.76453125 -8.17578125 11.3515625 C-9.10777344 11.89554688 -10.03976563 12.43953125 -11 13 C-12.6670935 13.99928827 -14.33383105 14.99917094 -16 16 C-16.86625 16.515625 -17.7325 17.03125 -18.625 17.5625 C-20.4444223 18.66372929 -22.23044918 19.82029945 -24 21 C-26.1875 20.625 -26.1875 20.625 -28 20 C-24.21270762 17.65950844 -20.41947015 15.32883358 -16.625 13 C-15.54476562 12.33226562 -14.46453125 11.66453125 -13.3515625 10.9765625 C-11.8046875 10.02910156 -11.8046875 10.02910156 -10.2265625 9.0625 C-9.27346191 8.47597656 -8.32036133 7.88945312 -7.33837891 7.28515625 C-5 6 -5 6 -3 6 C-2.690625 5.195625 -2.38125 4.39125 -2.0625 3.5625 C-1 1 -1 1 0 0 Z " fill="#A2BAB8" transform="translate(186,167)"/>
<path d="M0 0 C2.0625 0.4375 2.0625 0.4375 4 1 C2.5433323 2.14795006 1.08461063 3.29329419 -0.375 4.4375 C-1.59316406 5.39462891 -1.59316406 5.39462891 -2.8359375 6.37109375 C-5 8 -5 8 -7 9 C-7.33 8.34 -7.66 7.68 -8 7 C-9.32 7.99 -10.64 8.98 -12 10 C-12.33 9.01 -12.66 8.02 -13 7 C-10.13493591 3.61401517 -8.67554243 2.13510849 -4.25 1.25 C-2.64125 1.12625 -2.64125 1.12625 -1 1 C-0.67 0.67 -0.34 0.34 0 0 Z " fill="#C1D2DA" transform="translate(82,156)"/>
<path d="M0 0 C0.33 0 0.66 0 1 0 C1.49122807 7.36842105 1.49122807 7.36842105 -0.75 10.25 C-1.4925 10.8275 -2.235 11.405 -3 12 C-3.515625 12.70125 -4.03125 13.4025 -4.5625 14.125 C-8.49943276 17.15340981 -13.16243024 17.36611155 -18 18 C-14.95664925 14.62585026 -11.89834237 12.75848335 -7.875 10.6875 C-3.7332764 8.47114365 -3.7332764 8.47114365 -0.7734375 4.9921875 C-0.14304396 2.90037806 -0.14304396 2.90037806 0 0 Z " fill="#B1D1D0" transform="translate(116,124)"/>
<path d="M0 0 C0.33 0 0.66 0 1 0 C1.06058594 1.09699219 1.12117187 2.19398437 1.18359375 3.32421875 C1.26804498 4.77865654 1.35269066 6.23308305 1.4375 7.6875 C1.47681641 8.40873047 1.51613281 9.12996094 1.55664062 9.87304688 C1.78185678 13.66707282 2.12839305 17.28651492 3 21 C6.465 20.505 6.465 20.505 10 20 C10 19.34 10 18.68 10 18 C12.8125 16.4375 12.8125 16.4375 16 15 C16.99 15.33 17.98 15.66 19 16 C17.11248318 17.18007431 15.21460805 18.34359173 13.3125 19.5 C12.25675781 20.1496875 11.20101562 20.799375 10.11328125 21.46875 C7.00908447 22.99553186 5.3859051 23.61669725 2 23 C-0.13604308 19.79593538 -0.24208908 19.00399253 -0.1953125 15.33203125 C-0.18564453 13.99301758 -0.18564453 13.99301758 -0.17578125 12.62695312 C-0.15902344 11.69818359 -0.14226562 10.76941406 -0.125 9.8125 C-0.11597656 8.87212891 -0.10695312 7.93175781 -0.09765625 6.96289062 C-0.07409056 4.64167032 -0.04119116 2.32096356 0 0 Z " fill="#2E6A82" transform="translate(192,102)"/>
<path d="M0 0 C0.763125 0.185625 1.52625 0.37125 2.3125 0.5625 C5.08967375 1.22819173 5.08967375 1.22819173 8 0 C7 3 7 3 4.9375 4.5625 C1.32239738 6.33159277 -2.07176601 7.13445692 -6 8 C-6 8.99 -6 9.98 -6 11 C-6.99 11 -7.98 11 -9 11 C-9.33 10.01 -9.66 9.02 -10 8 C-8.05063872 5.61744733 -6.88308087 4.96258588 -3.875 4 C-2.92625 3.67 -1.9775 3.34 -1 3 C-0.67 2.01 -0.34 1.02 0 0 Z " fill="#10C2BF" transform="translate(214,145)"/>
<path d="M0 0 C1.1446875 1.175625 1.1446875 1.175625 2.3125 2.375 C6.01151017 6.06599869 6.01151017 6.06599869 10.91796875 7.1953125 C11.99691406 7.17210937 13.07585937 7.14890625 14.1875 7.125 C15.81751953 7.09792969 15.81751953 7.09792969 17.48046875 7.0703125 C18.31191406 7.04710937 19.14335937 7.02390625 20 7 C19.67 7.99 19.34 8.98 19 10 C19.33 10.66 19.66 11.32 20 12 C19.01 12 18.02 12 17 12 C17 11.34 17 10.68 17 10 C16.34 10 15.68 10 15 10 C15 10.66 15 11.32 15 12 C10.40528076 10.92999689 5.96274006 9.62114704 2 7 C0.62327212 4.56062665 0.38097798 2.83012212 0 0 Z " fill="#ACCFCE" transform="translate(192,150)"/>
<path d="M0 0 C3 2 3 2 3.8125 5.1875 C2.87124395 9.60416299 2.22617279 10.03487658 -1.3125 12.5625 C-6.71818944 15.98068989 -12.32471973 19.05446481 -18 22 C-18.33 21.34 -18.66 20.68 -19 20 C-15.66666667 18 -12.33333333 16 -9 14 C-8.10667969 13.43925781 -7.21335937 12.87851563 -6.29296875 12.30078125 C-4 11 -4 11 -2 11 C-2 10.34 -2 9.68 -2 9 C-1.01 8.34 -0.02 7.68 1 7 C0.67 4.69 0.34 2.38 0 0 Z " fill="#45B4A4" transform="translate(113,121)"/>
<path d="M0 0 C3.5 0.3125 3.5 0.3125 7 1 C7.33 1.66 7.66 2.32 8 3 C4.26043767 5.49304155 1.56885393 5.40180557 -2.8203125 5.65625 C-3.89925781 5.82640625 -3.89925781 5.82640625 -5 6 C-5.33 6.66 -5.66 7.32 -6 8 C-6.33 6.68 -6.66 5.36 -7 4 C-6.030625 3.525625 -5.06125 3.05125 -4.0625 2.5625 C-1.19522563 1.29806053 -1.19522563 1.29806053 0 0 Z " fill="#37C5A0" transform="translate(48,120)"/>
<path d="M0 0 C0.33 0.99 0.66 1.98 1 3 C-1.88868349 6.3166366 -3.60594965 7.61790867 -8 8 C-11.33533126 8.06660416 -14.66463628 8.05828791 -18 8 C-18 7.01 -18 6.02 -18 5 C-16.0509375 5.1546875 -16.0509375 5.1546875 -14.0625 5.3125 C-8.42315453 5.35725671 -4.60328913 3.04709446 0 0 Z " fill="#B2CFCB" transform="translate(143,114)"/>
<path d="M0 0 C5.875 3.875 5.875 3.875 7 5 C7.49487851 9.28894707 7.55925914 11.27625288 4.875 14.75 C2.0281304 16.9779849 -0.699916 18.54182335 -4 20 C-4 19.01 -4 18.02 -4 17 C-1.37403939 15.15473038 0.95127546 14.01624151 4 13 C4.33417929 9.6675213 4.33417929 9.6675213 4 6 C2.10415891 3.68622853 2.10415891 3.68622853 0 2 C0 1.34 0 0.68 0 0 Z " fill="#71BF9B" transform="translate(174,78)"/>
<path d="M0 0 C0.99 0.66 1.98 1.32 3 2 C2.40832031 1.99097656 1.81664062 1.98195312 1.20703125 1.97265625 C-3.6380975 2.08809533 -3.6380975 2.08809533 -7.640625 4.51953125 C-8.88550375 6.30060778 -9.96262582 8.0918981 -11 10 C-11.66 10.99 -12.32 11.98 -13 13 C-13.2978711 10.07093421 -13.50159903 7.85647449 -13 5 C-9.03390645 0.35676853 -6.03055828 -0.79648883 0 0 Z " fill="#3D7B90" transform="translate(31,130)"/>
<path d="M0 0 C0.86625 0.3403125 0.86625 0.3403125 1.75 0.6875 C0.76 1.38875 -0.23 2.09 -1.25 2.8125 C-3.7033342 4.87539859 -4.19046864 5.42772681 -4.9375 8.6875 C-4.04524557 12.58097389 -2.24695829 14.14008545 0.75 16.6875 C-1.89 16.6875 -4.53 16.6875 -7.25 16.6875 C-7.18998496 14.41593079 -7.10120032 12.14510726 -7 9.875 C-6.95359375 8.61042969 -6.9071875 7.34585938 -6.859375 6.04296875 C-6.25 2.6875 -6.25 2.6875 -4.34375 0.71875 C-2.25 -0.3125 -2.25 -0.3125 0 0 Z " fill="#C4DFE0" transform="translate(81.25,77.3125)"/>
<path d="M0 0 C2 2 2 2 2.1953125 4.6262207 C2.16050781 6.25950317 2.16050781 6.25950317 2.125 7.92578125 C2.10953125 9.11494141 2.0940625 10.30410156 2.078125 11.52929688 C2.02628356 14.03971855 1.9742025 16.55013529 1.921875 19.06054688 C1.90640625 20.25357422 1.8909375 21.44660156 1.875 22.67578125 C1.85179687 23.76802002 1.82859375 24.86025879 1.8046875 25.9855957 C2.00444422 29.06859097 2.69028377 31.2216871 4 34 C3.01 34 2.02 34 1 34 C-0.47905238 31.04189524 -0.12190903 28.0452845 -0.09765625 24.8046875 C-0.0962413 24.09724396 -0.09482635 23.38980042 -0.09336853 22.66091919 C-0.087766 20.39890331 -0.07521318 18.13698602 -0.0625 15.875 C-0.05748532 14.34244935 -0.05292236 12.80989714 -0.04882812 11.27734375 C-0.03779577 7.51819112 -0.02052952 3.75911228 0 0 Z " fill="#1D514A" transform="translate(134,161)"/>
<path d="M0 0 C-0.66 1.98 -1.32 3.96 -2 6 C-2.66 6 -3.32 6 -4 6 C-4 15.57 -4 25.14 -4 35 C-4.33 35 -4.66 35 -5 35 C-5.07429025 30.65840162 -5.12866741 26.3171423 -5.16479492 21.97509766 C-5.17985923 20.49879509 -5.20031482 19.02253712 -5.22631836 17.54638672 C-5.26280739 15.42143742 -5.27974933 13.29708099 -5.29296875 11.171875 C-5.3086792 9.8940918 -5.32438965 8.61630859 -5.34057617 7.29980469 C-4.96529164 3.66371452 -4.23276442 0 0 0 Z " fill="#2F685C" transform="translate(139,126)"/>
<path d="M0 0 C0.33 0 0.66 0 1 0 C1 2.97 1 5.94 1 9 C-0.32 9.33 -1.64 9.66 -3 10 C-4.29660434 12.49034386 -4.29660434 12.49034386 -5 15 C-9.455 14.01 -9.455 14.01 -14 13 C-14 12.34 -14 11.68 -14 11 C-12.4221875 11.0928125 -12.4221875 11.0928125 -10.8125 11.1875 C-6.69530071 10.98501479 -5.02780199 10.76827611 -2 8 C-0.98633915 5.32330181 -0.51222094 2.84049794 0 0 Z " fill="#AFC6CC" transform="translate(38,138)"/>
<path d="M0 0 C0.99 0.495 0.99 0.495 2 1 C1.01 1.495 1.01 1.495 0 2 C0 1.34 0 0.68 0 0 Z M-2.25 1.25 C-1.5075 1.4975 -0.765 1.745 0 2 C0 2.66 0 3.32 0 4 C-0.969375 4.5775 -1.93875 5.155 -2.9375 5.75 C-6.28740528 7.72054161 -6.28740528 7.72054161 -6.875 11.25 C-6.91625 12.1575 -6.9575 13.065 -7 14 C-7.33 14 -7.66 14 -8 14 C-9.58383234 5.94311377 -9.58383234 5.94311377 -7.375 2.375 C-5 1 -5 1 -2.25 1.25 Z " fill="#1A9B97" transform="translate(50,146)"/>
<path d="M0 0 C0 0.99 0 1.98 0 3 C-3.60847413 6.49912643 -7.39737741 8.19504997 -12 10 C-12.33 9.01 -12.66 8.02 -13 7 C-11.21190303 5.82786955 -9.41940875 4.66244474 -7.625 3.5 C-6.62726563 2.8503125 -5.62953125 2.200625 -4.6015625 1.53125 C-2 0 -2 0 0 0 Z " fill="#145E76" transform="translate(123,135)"/>
<path d="M0 0 C0.8125 1.6875 0.8125 1.6875 1 4 C-2.82929311 9.14973901 -8.270143 11.38540506 -14 14 C-13.67 12.68 -13.34 11.36 -13 10 C-11.68 10 -10.36 10 -9 10 C-9 9.34 -9 8.68 -9 8 C-8.236875 7.773125 -7.47375 7.54625 -6.6875 7.3125 C-3.43573397 5.72442822 -2.62356929 4.16596012 -1 1 C-0.67 0.67 -0.34 0.34 0 0 Z " fill="#1E5549" transform="translate(184,166)"/>
<path d="M0 0 C0.99 0.33 1.98 0.66 3 1 C-10.2642369 10.18451025 -10.2642369 10.18451025 -19 9 C-19.33 8.34 -19.66 7.68 -20 7 C-19.0925 7.12375 -18.185 7.2475 -17.25 7.375 C-11.29271116 7.43628898 -6.03205442 3.86525496 -1 1 C-0.67 0.67 -0.34 0.34 0 0 Z " fill="#52A992" transform="translate(144,111)"/>
<path d="M0 0 C4.34863652 0.56444825 7.17827655 2.15427964 10.8125 4.5625 C12.27623047 5.52349609 12.27623047 5.52349609 13.76953125 6.50390625 C14.50558594 6.99761719 15.24164063 7.49132812 16 8 C13 9 13 9 9 9 C8.360625 8.195625 7.72125 7.39125 7.0625 6.5625 C5.2261093 3.78303602 5.2261093 3.78303602 2.25 3.1875 C1.13625 3.0946875 1.13625 3.0946875 0 3 C0 2.01 0 1.02 0 0 Z " fill="#41CDB3" transform="translate(92,109)"/>
<path d="M0 0 C3 2 3 2 5 4 C4.38253906 3.91621094 3.76507813 3.83242188 3.12890625 3.74609375 C-2.82453683 3.03023073 -8.06653189 3.13869011 -14 4 C-9.36616315 0.44739175 -5.94688447 -0.87554513 0 0 Z " fill="#4CA495" transform="translate(133,53)"/>
<path d="M0 0 C0.99 0.33 1.98 0.66 3 1 C2.3709375 1.37511719 1.741875 1.75023438 1.09375 2.13671875 C-3.79041211 5.05691809 -8.63828733 8.01019543 -13.40625 11.1171875 C-15 12 -15 12 -17 12 C-17 11.34 -17 10.68 -17 10 C-14.48046875 8.2734375 -14.48046875 8.2734375 -11.1875 6.375 C-10.10855469 5.74335937 -9.02960938 5.11171875 -7.91796875 4.4609375 C-5 3 -5 3 -2 3 C-2 2.34 -2 1.68 -2 1 C-1.34 0.67 -0.68 0.34 0 0 Z " fill="#CAE5E8" transform="translate(100,65)"/>
<path d="M0 0 C0 0.66 0 1.32 0 2 C-3.67452438 4.8394052 -5.26886581 6 -10 6 C-10.33 7.32 -10.66 8.64 -11 10 C-12.32 9.34 -13.64 8.68 -15 8 C-12.8782637 6.66121428 -10.75294812 5.32884524 -8.625 4 C-8.02171875 3.6184375 -7.4184375 3.236875 -6.796875 2.84375 C-2.2265625 0 -2.2265625 0 0 0 Z " fill="#A7CECC" transform="translate(98,142)"/>
<path d="M0 0 C1.33998047 0.06960937 1.33998047 0.06960937 2.70703125 0.140625 C3.60808594 0.17671875 4.50914063 0.2128125 5.4375 0.25 C6.46810547 0.31960937 6.46810547 0.31960937 7.51953125 0.390625 C7.51953125 1.380625 7.51953125 2.370625 7.51953125 3.390625 C6.77703125 3.184375 6.03453125 2.978125 5.26953125 2.765625 C0.10988583 2.06203699 -3.34524145 5.57115184 -7.48046875 8.390625 C-3.86760467 0.6090716 -3.86760467 0.6090716 0 0 Z " fill="#0F5E7A" transform="translate(27.48046875,131.609375)"/>
<path d="M0 0 C1.051875 0.495 1.051875 0.495 2.125 1 C6.15681285 2.40236969 9.39897049 2.67411769 13.375 1 C14.179375 0.505 14.179375 0.505 15 0 C14.67 1.32 14.34 2.64 14 4 C11.18759885 4.9697935 8.92781571 5.74814488 6 6 C2.5 4.25 2.5 4.25 0 2 C0 1.34 0 0.68 0 0 Z " fill="#ABBEC2" transform="translate(112,195)"/>
<path d="M0 0 C4.04301175 1.48518799 7.61146256 3.42877998 11.3125 5.625 C12.38113281 6.25664062 13.44976562 6.88828125 14.55078125 7.5390625 C15.76314453 8.26222656 15.76314453 8.26222656 17 9 C14.19191053 10.13787512 13.14727583 10.05802414 10.2734375 8.92578125 C9.31695312 8.39339844 8.36046875 7.86101562 7.375 7.3125 C6.41335937 6.79300781 5.45171875 6.27351562 4.4609375 5.73828125 C1.94440861 3.96073307 1.05403072 2.84588294 0 0 Z " fill="#B2C2C9" transform="translate(84,178)"/>
<path d="M0 0 C1.26328125 0.11085938 2.5265625 0.22171875 3.828125 0.3359375 C4.79234375 0.43132812 5.7565625 0.52671875 6.75 0.625 C6.42 1.285 6.09 1.945 5.75 2.625 C4.68072266 2.55539063 4.68072266 2.55539063 3.58984375 2.484375 C-3.09940504 2.23229025 -6.72637233 2.86423222 -12.25 6.625 C-12.91 6.625 -13.57 6.625 -14.25 6.625 C-14.25 4.625 -14.25 4.625 -13 3.125 C-8.70048217 -0.56030099 -5.60857392 -0.5193124 0 0 Z " fill="#ADD0D5" transform="translate(223.25,120.375)"/>
<path d="M0 0 C0.66 0.33 1.32 0.66 2 1 C1.21753906 1.56589844 0.43507812 2.13179688 -0.37109375 2.71484375 C-1.88896484 3.81505859 -1.88896484 3.81505859 -3.4375 4.9375 C-4.44683594 5.66839844 -5.45617187 6.39929688 -6.49609375 7.15234375 C-8.82292608 8.77321885 -8.82292608 8.77321885 -10 10 C-11.66617115 10.04063832 -13.33388095 10.042721 -15 10 C-12.38221206 7.0447272 -9.32416665 5.24167273 -5.9375 3.25 C-4.87402344 2.61578125 -3.81054688 1.9815625 -2.71484375 1.328125 C-1.81894531 0.88984375 -0.92304688 0.4515625 0 0 Z " fill="#3C7967" transform="translate(154,116)"/>
<path d="M0 0 C-4.62 2.97 -9.24 5.94 -14 9 C-14 8.01 -14 7.02 -14 6 C-13.34 6 -12.68 6 -12 6 C-12 5.01 -12 4.02 -12 3 C-10.02 2.67 -8.04 2.34 -6 2 C-6 1.34 -6 0.68 -6 0 C-3 -1 -3 -1 0 0 Z " fill="#2DA69C" transform="translate(95,143)"/>
<path d="M0 0 C0.66 0.33 1.32 0.66 2 1 C-3.10417116 5.51066289 -6.89454795 8.40602583 -14 8 C-14 7.01 -14 6.02 -14 5 C-13.175 5.103125 -12.35 5.20625 -11.5 5.3125 C-7.25229342 4.93324048 -5.13978292 3.43135639 -1.734375 0.99609375 C-1.16203125 0.66738281 -0.5896875 0.33867187 0 0 Z " fill="#ADC0BF" transform="translate(151,191)"/>
<path d="M0 0 C8.19256018 -0.4726477 8.19256018 -0.4726477 11.5625 1.5 C12.036875 1.995 12.51125 2.49 13 3 C12.67 3.66 12.34 4.32 12 5 C11.29875 4.67 10.5975 4.34 9.875 4 C6.70893872 2.89876129 4.32935296 2.77804314 1 3 C0.01 3.495 0.01 3.495 -1 4 C-0.67 2.68 -0.34 1.36 0 0 Z " fill="#165065" transform="translate(199,95)"/>
<path d="M0 0 C0.33 0.99 0.66 1.98 1 3 C-1.21368294 5.21368294 -2.93016625 6.86552921 -6.11328125 7.265625 C-8.07746787 7.25166986 -10.0402625 7.13286356 -12 7 C-12 6.34 -12 5.68 -12 5 C-10.88625 4.87625 -9.7725 4.7525 -8.625 4.625 C-4.96896323 4.3534187 -4.96896323 4.3534187 -3 2 C-2.01 2 -1.02 2 0 2 C0 1.34 0 0.68 0 0 Z " fill="#1E8186" transform="translate(64,163)"/>
<path d="M0 0 C-0.33 0.66 -0.66 1.32 -1 2 C-0.34 2.33 0.32 2.66 1 3 C0.26394531 2.98839844 -0.47210938 2.97679687 -1.23046875 2.96484375 C-2.20628906 2.95582031 -3.18210937 2.94679687 -4.1875 2.9375 C-5.15042969 2.92589844 -6.11335938 2.91429687 -7.10546875 2.90234375 C-9.85576513 2.99513378 -12.32479591 3.37888315 -15 4 C-11.00296185 0.1278693 -5.49952171 -2.74976086 0 0 Z " fill="#D5E2E7" transform="translate(34,128)"/>
<path d="M0 0 C0.99 0 1.98 0 3 0 C2.38722388 2.96175123 1.74627478 4.38058783 0 7 C0.66 7 1.32 7 2 7 C1.67 7.66 1.34 8.32 1 9 C-0.65 8.01 -2.3 7.02 -4 6 C-3.34 5.67 -2.68 5.34 -2 5 C-1.6278958 3.67696283 -1.29369827 2.34262065 -1 1 C-0.67 0.67 -0.34 0.34 0 0 Z " fill="#19A9AA" transform="translate(198,147)"/>
<path d="M0 0 C-0.33 0.66 -0.66 1.32 -1 2 C-2.33333333 2.33333333 -3.66666667 2.66666667 -5 3 C-6.67739862 3.98189187 -8.34467377 4.98133771 -10 6 C-10.99 6.33 -11.98 6.66 -13 7 C-12.875 5.1875 -12.875 5.1875 -12 3 C-7.91068936 0.33719307 -4.83960066 -0.34568576 0 0 Z " fill="#268F8C" transform="translate(105,68)"/>
<path d="M0 0 C0.598125 0.226875 1.19625 0.45375 1.8125 0.6875 C1.1628125 1.2753125 1.1628125 1.2753125 0.5 1.875 C-1.44624318 3.96540934 -2.73187028 6.23939548 -4.1875 8.6875 C-4.5175 8.6875 -4.8475 8.6875 -5.1875 8.6875 C-5.55003776 3.24943353 -5.55003776 3.24943353 -3.9375 0.75 C-2.1875 -0.3125 -2.1875 -0.3125 0 0 Z " fill="#14888E" transform="translate(198.1875,135.3125)"/>
<path d="M0 0 C1.5471219 2.4571936 2.04484402 3.632279 1.6875 6.5625 C1.17232879 8.38901612 0.60013019 10.19960942 0 12 C-1.65 12 -3.3 12 -5 12 C-4.360625 11.319375 -3.72125 10.63875 -3.0625 9.9375 C-0.6741507 6.53591161 -0.32122847 4.09566299 0 0 Z " fill="#ACD3CB" transform="translate(58,123)"/>
<path d="M0 0 C1.32 0.33 2.64 0.66 4 1 C3.67 2.65 3.34 4.3 3 6 C2.01 6 1.02 6 0 6 C0 6.66 0 7.32 0 8 C-0.99 7.67 -1.98 7.34 -3 7 C-2.34 6.34 -1.68 5.68 -1 5 C-0.35232207 2.42938689 -0.35232207 2.42938689 0 0 Z " fill="#0BA9AC" transform="translate(233,132)"/>
<path d="M0 0 C-1.4042481 2.80849619 -3.10807701 2.88266612 -6 4 C-7.2684375 4.8353125 -7.2684375 4.8353125 -8.5625 5.6875 C-11 7 -11 7 -13.15234375 6.58203125 C-14.06693359 6.29392578 -14.06693359 6.29392578 -15 6 C-13.07010782 4.80017556 -11.13080772 3.61547182 -9.1875 2.4375 C-8.10855469 1.77621094 -7.02960938 1.11492187 -5.91796875 0.43359375 C-3 -1 -3 -1 0 0 Z " fill="#ABCCC5" transform="translate(159,107)"/>
<path d="M0 0 C0.66 0.33 1.32 0.66 2 1 C0.40412987 4.19174026 -2.80631026 5.63788802 -6 7 C-7.32 7 -8.64 7 -10 7 C-7.20283196 3.70921407 -3.80471422 1.93694542 0 0 Z " fill="#43846A" transform="translate(181,100)"/>
<path d="M0 0 C2 2 2 2 2.5 4.0625 C2.665 4.701875 2.83 5.34125 3 6 C3.66 6.33 4.32 6.66 5 7 C5 7.66 5 8.32 5 9 C6.32 9.33 7.64 9.66 9 10 C9 10.66 9 11.32 9 12 C5.08979564 10.69659855 2.49891449 9.33188599 0 6 C-0.25 2.75 -0.25 2.75 0 0 Z " fill="#275B6E" transform="translate(75,165)"/>
<path d="M0 0 C-0.5625 1.9375 -0.5625 1.9375 -2 4 C-8.14634146 5.42682927 -8.14634146 5.42682927 -11 4 C-11 3.34 -11 2.68 -11 2 C-9.68 1.67 -8.36 1.34 -7 1 C-7 1.66 -7 2.32 -7 3 C-6.21625 2.505 -5.4325 2.01 -4.625 1.5 C-2 0 -2 0 0 0 Z " fill="#155162" transform="translate(35,145)"/>
<path d="M0 0 C1.98 0 3.96 0 6 0 C6.9360342 3.79267192 6.98276252 6.93674565 6.5625 10.8125 C6.46066406 11.78832031 6.35882813 12.76414063 6.25390625 13.76953125 C6.12822266 14.87361328 6.12822266 14.87361328 6 16 C5.67 16 5.34 16 5 16 C4.97421875 15.09636719 4.9484375 14.19273437 4.921875 13.26171875 C4.86515625 12.08222656 4.8084375 10.90273437 4.75 9.6875 C4.70359375 8.51574219 4.6571875 7.34398437 4.609375 6.13671875 C4.29945851 2.90521318 4.29945851 2.90521318 1.953125 1.08203125 C1.30859375 0.72496094 0.6640625 0.36789063 0 0 Z " fill="#B8CDD2" transform="translate(122,134)"/>
<path d="M0 0 C0.33 0.99 0.66 1.98 1 3 C-2.3 5.31 -5.6 7.62 -9 10 C-9.33 9.01 -9.66 8.02 -10 7 C-9.44570312 6.66226563 -8.89140625 6.32453125 -8.3203125 5.9765625 C-7.59585938 5.53054687 -6.87140625 5.08453125 -6.125 4.625 C-5.04605469 3.96371094 -5.04605469 3.96371094 -3.9453125 3.2890625 C-1.88206418 2.0146287 -1.88206418 2.0146287 0 0 Z " fill="#65B796" transform="translate(169,95)"/>
<path d="M0 0 C3.99500618 1.3697164 6.80009492 3.25722422 10 6 C7.36 6 4.72 6 2 6 C1.34 4.02 0.68 2.04 0 0 Z " fill="#C0DAD7" transform="translate(107,109)"/>
<path d="M0 0 C0.66 0 1.32 0 2 0 C2.33 2.97 2.66 5.94 3 9 C1 7.8125 1 7.8125 -1 6 C-1.3125 3.375 -1.3125 3.375 -1 1 C-0.67 0.67 -0.34 0.34 0 0 Z " fill="#048C92" transform="translate(79,83)"/>
<path d="M0 0 C0.56203125 0.31710938 1.1240625 0.63421875 1.703125 0.9609375 C4.15196317 2.06874525 6.08387855 2.38975399 8.75 2.625 C9.54921875 2.69976562 10.3484375 2.77453125 11.171875 2.8515625 C11.77515625 2.90054688 12.3784375 2.94953125 13 3 C13 3.66 13 4.32 13 5 C4.87371744 5.46882399 4.87371744 5.46882399 1.4375 3.625 C0 2 0 2 0 0 Z " fill="#C2D4D5" transform="translate(49,168)"/>
<path d="M0 0 C0.99 0.33 1.98 0.66 3 1 C2.01 1.33 1.02 1.66 0 2 C-0.34342449 3.33076989 -0.67619874 4.66431979 -1 6 C-1.99 6.66 -2.98 7.32 -4 8 C-4.33 7.01 -4.66 6.02 -5 5 C-3.35 3.35 -1.7 1.7 0 0 Z " fill="#CDCFD2" transform="translate(74,158)"/>
<path d="M0 0 C-3.63 1.98 -7.26 3.96 -11 6 C-10.67 4.68 -10.34 3.36 -10 2 C-8.68 2 -7.36 2 -6 2 C-6 1.34 -6 0.68 -6 0 C-3 -1 -3 -1 0 0 Z " fill="#B8E1E0" transform="translate(61,139)"/>
<path d="M0 0 C1.32 0 2.64 0 4 0 C6.48887372 4.68493876 5.85687773 7.9444214 5 13 C4.67 13 4.34 13 4 13 C3.96261719 12.39671875 3.92523438 11.7934375 3.88671875 11.171875 C3.43746659 5.00632228 3.43746659 5.00632228 0 0 Z " fill="#B3CCCF" transform="translate(235,127)"/>
<path d="M0 0 C2.475 0.99 2.475 0.99 5 2 C5 2.66 5 3.32 5 4 C5.66 4 6.32 4 7 4 C7.125 6.875 7.125 6.875 7 10 C6.34 10.66 5.68 11.32 5 12 C4.9175 10.948125 4.835 9.89625 4.75 8.8125 C3.94679238 4.72952791 2.80665291 2.9877273 0 0 Z " fill="#C1DCDA" transform="translate(112,119)"/>
<path d="M0 0 C3.63 1.98 7.26 3.96 11 6 C8 7 8 7 5.95703125 6.22265625 C5.24933594 5.83980469 4.54164062 5.45695313 3.8125 5.0625 C3.09707031 4.68222656 2.38164063 4.30195313 1.64453125 3.91015625 C1.10183594 3.60980469 0.55914062 3.30945313 0 3 C0 2.01 0 1.02 0 0 Z " fill="#B2C5CA" transform="translate(101,188)"/>
<path d="M0 0 C0 0.66 0 1.32 0 2 C-1.32 2 -2.64 2 -4 2 C-4 2.66 -4 3.32 -4 4 C-6.31 4 -8.62 4 -11 4 C-9.07392696 1.53890667 -8.06050223 1.01358213 -4.9375 0.3125 C-2 0 -2 0 0 0 Z " fill="#91C9C7" transform="translate(231,146)"/>
<path d="M0 0 C0.33 0 0.66 0 1 0 C1.1080023 2.10304477 1.18558987 4.20766909 1.25 6.3125 C1.29640625 7.48425781 1.3428125 8.65601562 1.390625 9.86328125 C1 13 1 13 -1.015625 14.91796875 C-1.67046875 15.27503906 -2.3253125 15.63210937 -3 16 C-3.66 15.67 -4.32 15.34 -5 15 C-4.01 14.67 -3.02 14.34 -2 14 C-0.99740493 10.99221479 -0.69685358 8.46179353 -0.4375 5.3125 C-0.35371094 4.31863281 -0.26992187 3.32476562 -0.18359375 2.30078125 C-0.12300781 1.54152344 -0.06242188 0.78226562 0 0 Z " fill="#96BBC6" transform="translate(215,103)"/>
<path d="M0 0 C0.66 0.33 1.32 0.66 2 1 C-1.67832102 5.0655127 -5.56866979 7.22409568 -11 8 C-8.83385197 5.69125289 -6.60793392 3.94709819 -3.9375 2.25 C-2.89916016 1.57710938 -2.89916016 1.57710938 -1.83984375 0.890625 C-1.23269531 0.59671875 -0.62554687 0.3028125 0 0 Z " fill="#47876E" transform="translate(167,108)"/>
<path d="M0 0 C0.99 0.33 1.98 0.66 3 1 C-1.75 6.75 -1.75 6.75 -4 9 C-4.25 6.75 -4.25 6.75 -4 4 C-2 1.6875 -2 1.6875 0 0 Z " fill="#238F8C" transform="translate(69,156)"/>
<path d="M0 0 C-2.97 2.475 -2.97 2.475 -6 5 C-6.66 4.67 -7.32 4.34 -8 4 C-5.97675095 -0.48005146 -4.79569304 -1.43870791 0 0 Z " fill="#ACC4CD" transform="translate(212,120)"/>
<path d="M0 0 C0.33 0 0.66 0 1 0 C1.13277344 0.68707031 1.26554688 1.37414062 1.40234375 2.08203125 C1.57894531 2.98308594 1.75554687 3.88414062 1.9375 4.8125 C2.11152344 5.70582031 2.28554687 6.59914062 2.46484375 7.51953125 C2.97741153 10.11397171 2.97741153 10.11397171 4 13 C3.01 13 2.02 13 1 13 C-0.32229189 10.35541621 -0.09677194 8.32238699 -0.0625 5.375 C-0.05347656 4.37210938 -0.04445312 3.36921875 -0.03515625 2.3359375 C-0.02355469 1.56507813 -0.01195312 0.79421875 0 0 Z " fill="#184944" transform="translate(134,182)"/>
<path d="M0 0 C0.99 0.495 0.99 0.495 2 1 C1.01 1.495 1.01 1.495 0 2 C0 1.34 0 0.68 0 0 Z M-6 2 C-3.125 1.8125 -3.125 1.8125 0 2 C0.66 2.99 1.32 3.98 2 5 C1.01 5 0.02 5 -1 5 C-1 4.34 -1 3.68 -1 3 C-1.66 3 -2.32 3 -3 3 C-3 3.66 -3 4.32 -3 5 C-4.32 4.67 -5.64 4.34 -7 4 C-6.67 3.34 -6.34 2.68 -6 2 Z " fill="#C4CACA" transform="translate(210,157)"/>
<path d="M0 0 C5.29441695 -0.50423019 7.81413519 0.81076967 12 4 C11.01 4.495 11.01 4.495 10 5 C9.071875 4.505 8.14375 4.01 7.1875 3.5 C3.73458973 1.87510105 2.5409246 1.85440675 -1 3 C-0.67 2.01 -0.34 1.02 0 0 Z " fill="#58DAC4" transform="translate(69,97)"/>
<path d="M0 0 C-0.66 1.65 -1.32 3.3 -2 5 C-3.32 5 -4.64 5 -6 5 C-3.74193548 0 -3.74193548 0 0 0 Z " fill="#B8CED1" transform="translate(83,151)"/>
<path d="M0 0 C2.97 0.33 5.94 0.66 9 1 C9 1.99 9 2.98 9 4 C4.545 3.01 4.545 3.01 0 2 C0 1.34 0 0.68 0 0 Z " fill="#C3D0D6" transform="translate(24,149)"/>
<path d="M0 0 C-4.95 2.475 -4.95 2.475 -10 5 C-9.34 3.35 -8.68 1.7 -8 0 C-4.71071522 -1.1807689 -3.34715311 -1.1157177 0 0 Z " fill="#B1D4DD" transform="translate(209,128)"/>
<path d="M0 0 C-3.19990508 2.74277578 -6.00499382 4.6302836 -10 6 C-10 5.34 -10 4.68 -10 4 C-6.68165449 0.77646436 -4.65842688 -0.53239164 0 0 Z " fill="#CBE7E3" transform="translate(114,59)"/>
<path d="M0 0 C3.48539917 0.64544429 6.02819057 2.10134397 9 4 C7.3125 4.6875 7.3125 4.6875 5 5 C2.25 3.6875 2.25 3.6875 0 2 C0 1.34 0 0.68 0 0 Z " fill="#17515E" transform="translate(84,176)"/>
<path d="M0 0 C0.33 0 0.66 0 1 0 C1.1953125 6.0546875 1.1953125 6.0546875 1 8 C0.34 8.66 -0.32 9.32 -1 10 C-3.125 9.625 -3.125 9.625 -5 9 C-4.0409375 8.443125 -4.0409375 8.443125 -3.0625 7.875 C-0.36141928 5.41947207 -0.31592995 3.55421195 0 0 Z " fill="#A5CFCC" transform="translate(116,124)"/>
<path d="M0 0 C2 3 2 3 2 5 C3.65 5 5.3 5 7 5 C6.67 5.66 6.34 6.32 6 7 C4.33388095 7.042721 2.66617115 7.04063832 1 7 C0 6 0 6 -0.0625 2.9375 C-0.041875 1.968125 -0.02125 0.99875 0 0 Z " fill="#175669" transform="translate(193,118)"/>
<path d="M0 0 C0.66 0.33 1.32 0.66 2 1 C0.35 2.65 -1.3 4.3 -3 6 C-3.99 5.34 -4.98 4.68 -6 4 C-4.02 2.68 -2.04 1.36 0 0 Z " fill="#205D72" transform="translate(85,157)"/>
<path d="M0 0 C0.66 0.33 1.32 0.66 2 1 C0.35 2.65 -1.3 4.3 -3 6 C-3.99 5.34 -4.98 4.68 -6 4 C-4.02 2.68 -2.04 1.36 0 0 Z " fill="#1D5D7A" transform="translate(108,143)"/>
<path d="M0 0 C0.33 0 0.66 0 1 0 C1 1.65 1 3.3 1 5 C-0.98 5.99 -0.98 5.99 -3 7 C-3 5.68 -3 4.36 -3 3 C-2.34 3 -1.68 3 -1 3 C-0.67 2.01 -0.34 1.02 0 0 Z " fill="#39B9B5" transform="translate(237,136)"/>
<path d="M0 0 C1.98 0 3.96 0 6 0 C3.38485683 2.12038635 0.80362384 4.13091744 -2 6 C-1.34 4.02 -0.68 2.04 0 0 Z " fill="#BEDEDF" transform="translate(43,145)"/>
<path d="M0 0 C-2.8125 2.0625 -2.8125 2.0625 -6 4 C-6.99 3.67 -7.98 3.34 -9 3 C-8 1 -8 1 -5.625 -0.1875 C-3 -1 -3 -1 0 0 Z " fill="#BBD2D9" transform="translate(121,136)"/>
<path d="M0 0 C0.99 0.33 1.98 0.66 3 1 C2.34 1.66 1.68 2.32 1 3 C0.53993654 5.20250992 0.53993654 5.20250992 0.375 7.625 C0.30023438 8.44226563 0.22546875 9.25953125 0.1484375 10.1015625 C0.07496094 11.04128906 0.07496094 11.04128906 0 12 C-0.33 12 -0.66 12 -1 12 C-1.02687279 10.18757948 -1.04633715 8.37504767 -1.0625 6.5625 C-1.07410156 5.55316406 -1.08570313 4.54382813 -1.09765625 3.50390625 C-1 1 -1 1 0 0 Z " fill="#CFE8E2" transform="translate(39,119)"/>
<path d="M0 0 C0.99 0.66 1.98 1.32 3 2 C2.67 3.32 2.34 4.64 2 6 C0.68 5.67 -0.64 5.34 -2 5 C-1.34 3.35 -0.68 1.7 0 0 Z " fill="#27C3AA" transform="translate(112,122)"/>
</svg>
