<?xml version="1.0" encoding="UTF-8"?>
<svg version="1.1" xmlns="http://www.w3.org/2000/svg" width="256" height="256">
<path d="M0 0 C42.24 0 84.48 0 128 0 C128 6.93 128 13.86 128 21 C170.24 21 212.48 21 256 21 C256 78.09 256 135.18 256 194 C171.52 194 87.04 194 0 194 C0 129.98 0 65.96 0 0 Z " fill="#D7DADA" transform="translate(0,20)"/>
<path d="M0 0 C42.24 0 84.48 0 128 0 C128.64368312 20.59785991 129.05369467 40.93699584 128.5625 61.5 C128.50900086 64.00389003 128.45626507 66.50779648 128.40429688 69.01171875 C128.27824655 75.00803682 128.1421622 81.00404319 128 87 C117.605 87.495 117.605 87.495 107 88 C108.65 89.32 110.3 90.64 112 92 C111.01 92 110.02 92 109 92 C108.67 92.66 108.34 93.32 108 94 C108 93.34 108 92.68 108 92 C106.68 92 105.36 92 104 92 C104 92.66 104 93.32 104 94 C105.65 94.33 107.3 94.66 109 95 C109 95.66 109 96.32 109 97 C109.99 97 110.98 97 112 97 C112 97.66 112 98.32 112 99 C108.26957446 97.71194741 105.30028516 95.86496915 102.03710938 93.67358398 C91.24332012 86.69593396 80.56576426 86.65480485 68 87 C68.01571045 87.74161377 68.0314209 88.48322754 68.04760742 89.24731445 C68.10990714 92.60229896 68.14897507 95.95716186 68.1875 99.3125 C68.21263672 100.47974609 68.23777344 101.64699219 68.26367188 102.84960938 C68.27333984 103.96787109 68.28300781 105.08613281 68.29296875 106.23828125 C68.3086792 107.26993408 68.32438965 108.30158691 68.34057617 109.36450195 C68 112 68 112 65 115 C65.33 105.76 65.66 96.52 66 87 C44.22 87.33 22.44 87.66 0 88 C0 58.96 0 29.92 0 0 Z " fill="#DBDEDE" transform="translate(0,20)"/>
<path d="M0 0 C3.97222494 0.93248164 6.94467939 2.78721364 9.25390625 6.1640625 C10.48228398 9.49743299 10.41539513 12.51692656 10.42578125 16.05859375 C10.44189453 16.73083984 10.45800781 17.40308594 10.47460938 18.09570312 C10.47950197 23.0225487 10.47950197 23.0225487 8.59375 25.4609375 C8.10519531 25.80253906 7.61664063 26.14414063 7.11328125 26.49609375 C7.644375 26.32207031 8.17546875 26.14804688 8.72265625 25.96875 C11.72634697 25.37488304 14.31996153 25.63587769 17.36328125 25.93359375 C18.4409375 26.03542969 19.51859375 26.13726562 20.62890625 26.2421875 C21.44875 26.32597656 22.26859375 26.40976563 23.11328125 26.49609375 C23.11328125 27.48609375 23.11328125 28.47609375 23.11328125 29.49609375 C23.85578125 29.74359375 24.59828125 29.99109375 25.36328125 30.24609375 C28.63388333 31.73273106 30.1190631 32.46783655 32.11328125 35.49609375 C32.79898341 39.29382881 32.82940811 42.70118527 32.11328125 46.49609375 C28.82872661 50.75713761 26.06247077 51.60905164 20.92578125 52.80859375 C14.13290154 54.39980256 9.50735778 58.25313408 4.11328125 62.49609375 C0.88367142 64.11089867 -2.39527637 64.08775345 -5.88671875 63.49609375 C-8.32778947 62.08799282 -9.85545198 60.52736052 -11.88671875 58.49609375 C-12.46421875 57.95984375 -13.04171875 57.42359375 -13.63671875 56.87109375 C-14.88671875 55.49609375 -14.88671875 55.49609375 -16.88671875 52.49609375 C-18.09702656 53.48122266 -18.09702656 53.48122266 -17.96850586 55.36621094 C-17.9415564 56.56745605 -17.9415564 56.56745605 -17.9140625 57.79296875 C-17.90181641 58.66953125 -17.88957031 59.54609375 -17.87695312 60.44921875 C-17.8420899 62.29826103 -17.80309836 64.14723057 -17.75976562 65.99609375 C-17.64812129 74.98017892 -17.64812129 74.98017892 -19.88671875 78.49609375 C-22.3125 80.41015625 -22.3125 80.41015625 -25.19921875 82.12109375 C-26.14410156 82.69085938 -27.08898437 83.260625 -28.0625 83.84765625 C-28.99449219 84.39164062 -29.92648438 84.935625 -30.88671875 85.49609375 C-32.55381225 86.49538202 -34.2205498 87.49526469 -35.88671875 88.49609375 C-37.18609375 89.26953125 -37.18609375 89.26953125 -38.51171875 90.05859375 C-40.33114105 91.15982304 -42.11716793 92.3163932 -43.88671875 93.49609375 C-45.04171875 93.72296875 -46.19671875 93.94984375 -47.38671875 94.18359375 C-52.38022222 95.29837958 -56.06882308 98.08440918 -60.17578125 101.03515625 C-63.41266406 102.77952825 -65.26321004 103.0818116 -68.88671875 102.49609375 C-72.08474963 99.31363002 -72.27277892 96.74309342 -72.30664062 92.33813477 C-72.32255249 91.09326797 -72.33846436 89.84840118 -72.3548584 88.56581116 C-72.35612567 87.21054135 -72.35630251 85.85527014 -72.35546875 84.5 C-72.36257259 83.10521641 -72.37027192 81.71043574 -72.37854004 80.31565857 C-72.39197631 77.39451979 -72.39355761 74.47365124 -72.38769531 71.55249023 C-72.3817995 67.8151573 -72.41238702 64.07912362 -72.45281219 60.34204197 C-72.47870442 57.46202145 -72.48156536 54.58231317 -72.47792053 51.70219231 C-72.47961038 50.32470369 -72.48924018 48.94720045 -72.50706482 47.56982613 C-72.63374299 36.57091842 -72.63374299 36.57091842 -69.68237305 32.32446289 C-68.75980713 31.72110107 -67.83724121 31.11773926 -66.88671875 30.49609375 C-65.61115112 29.61993408 -65.61115112 29.61993408 -64.30981445 28.72607422 C-63.40320068 28.19385254 -62.49658691 27.66163086 -61.5625 27.11328125 C-60.54212646 26.50806641 -59.52175293 25.90285156 -58.47045898 25.27929688 C-57.39094971 24.64958984 -56.31144043 24.01988281 -55.19921875 23.37109375 C-52.94581749 22.04692844 -50.6932187 20.72139662 -48.44140625 19.39453125 C-47.33120117 18.7406543 -46.22099609 18.08677734 -45.07714844 17.41308594 C-42.18422205 15.6748507 -39.34495874 13.88044305 -36.51953125 12.03515625 C-35.71862061 11.51840332 -34.91770996 11.00165039 -34.0925293 10.46923828 C-32.62449838 9.51583191 -31.16672421 8.54636168 -29.72192383 7.55810547 C-26.14593992 5.26279021 -23.75559896 4.16962432 -19.453125 4.58984375 C-18.27621094 4.88890625 -17.09929687 5.18796875 -15.88671875 5.49609375 C-15.39171875 6.48609375 -15.39171875 6.48609375 -14.88671875 7.49609375 C-14.41363281 6.99078125 -13.94054687 6.48546875 -13.453125 5.96484375 C-9.14211111 1.72946168 -6.17253141 -0.52237312 0 0 Z " fill="#186350" transform="translate(205.88671875,94.50390625)"/>
<path d="M0 0 C2.63433625 1.13222697 4.97817831 2.55843361 7.375 4.125 C8.02476807 4.53588867 8.67453613 4.94677734 9.34399414 5.37011719 C10.63829123 6.19169909 11.92854667 7.01968832 13.21435547 7.85449219 C14.77825376 8.85774769 16.37331633 9.8120793 17.97265625 10.7578125 C19.19275391 11.49644531 19.19275391 11.49644531 20.4375 12.25 C21.13746094 12.66765625 21.83742188 13.0853125 22.55859375 13.515625 C24 15 24 15 24.28515625 17.609375 C24 20 24 20 23 21 C25.26601865 22.29042763 25.26601865 22.29042763 28 23 C29.35335895 22.02727325 30.68662604 21.0260734 32 20 C34.5 20.25 34.5 20.25 37 21 C37.7425 21.144375 38.485 21.28875 39.25 21.4375 C39.8275 21.623125 40.405 21.80875 41 22 C42.49297212 24.98594424 42.11755228 27.70853624 42 31 C41.67 31.66 41.34 32.32 41 33 C41.721875 33.0825 42.44375 33.165 43.1875 33.25 C46.66784771 34.17809272 48.4934447 35.42182883 51 38 C51.5 40.5625 51.5 40.5625 51 43 C48.84280314 45.62908367 46.61549602 46.77995414 43.5 48.0625 C40.71437656 49.21853373 38.53614914 50.30923391 36 52 C32.80079639 51.66674962 30.05141522 51.01713841 27 50 C27.165 50.58007812 27.33 51.16015625 27.5 51.7578125 C28.04178955 54.3228474 28.28441275 56.38857385 28 59 C25.8671739 61.74220499 22.930105 63.19852804 20 65 C18.99582031 65.79277344 17.99164063 66.58554688 16.95703125 67.40234375 C7.65442609 74.7274069 7.65442609 74.7274069 1 74 C-0.2684375 73.7215625 -0.2684375 73.7215625 -1.5625 73.4375 C-4.33248956 72.94032239 -6.27446843 73.41106604 -9 74 C-11.3125 73.0625 -11.3125 73.0625 -13 72 C-13 71.01 -13 70.02 -13 69 C-13.71929687 68.73316406 -14.43859375 68.46632813 -15.1796875 68.19140625 C-18.02481555 66.98951698 -20.5051535 65.56789377 -23.125 63.9375 C-25.80251948 62.27320598 -27.99972402 61.00009199 -31 60 C-31 58.68 -31 57.36 -31 56 C-31.680625 56.515625 -32.36125 57.03125 -33.0625 57.5625 C-36.91904535 59.4497456 -38.88866495 59.10125046 -43 58 C-45.9375 56.25 -45.9375 56.25 -48 54 C-48.3125 51.25 -48.3125 51.25 -48 49 C-49.0725 49.0825 -50.145 49.165 -51.25 49.25 C-55 49 -55 49 -57.4375 47.3125 C-59.28968623 44.57126438 -59.59716883 43.24177364 -59 40 C-56 38 -56 38 -52.9375 38.375 C-51.968125 38.58125 -50.99875 38.7875 -50 39 C-49.34 39 -48.68 39 -48 39 C-48.020625 38.030625 -48.04125 37.06125 -48.0625 36.0625 C-48 33 -48 33 -47 32 C-41.74549098 31.54308617 -41.74549098 31.54308617 -39.0625 33.1875 C-38 35 -38 35 -38.25 37.625 C-39 40 -39 40 -40 41 C-37.525 40.505 -37.525 40.505 -35 40 C-34.93941406 38.71222656 -34.87882812 37.42445312 -34.81640625 36.09765625 C-34.73201753 34.41925841 -34.6473687 32.74087364 -34.5625 31.0625 C-34.52318359 30.21236328 -34.48386719 29.36222656 -34.44335938 28.48632812 C-34.40146484 27.67744141 -34.35957031 26.86855469 -34.31640625 26.03515625 C-34.27974854 25.2862915 -34.24309082 24.53742676 -34.20532227 23.76586914 C-34 22 -34 22 -33 21 C-31.33382885 20.95936168 -29.66611905 20.957279 -28 21 C-28.66 20.01 -29.32 19.02 -30 18 C-29.91650391 15.52075195 -29.91650391 15.52075195 -29 13 C-26.97802734 11.23901367 -26.97802734 11.23901367 -24.3359375 9.66796875 C-23.37816406 9.09755859 -22.42039063 8.52714844 -21.43359375 7.93945312 C-20.42425781 7.36130859 -19.41492187 6.78316406 -18.375 6.1875 C-17.38886719 5.59001953 -16.40273438 4.99253906 -15.38671875 4.37695312 C-5.89269256 -1.16862292 -5.89269256 -1.16862292 0 0 Z " fill="#CEDDDB" transform="translate(68,27)"/>
<path d="M0 0 C15.54483577 -1.19528509 26.31766087 -0.37014014 39 9 C39.8971875 9.62648438 40.794375 10.25296875 41.71875 10.8984375 C47.85156446 15.32529301 47.85156446 15.32529301 48.6875 19.125 C48 23 48 23 46.12329102 24.68554688 C45.30014404 25.23275391 44.47699707 25.77996094 43.62890625 26.34375 C42.71923096 26.94977051 41.80955566 27.55579102 40.87231445 28.18017578 C36.39130842 31.01922542 31.84189345 33.71993689 27.25 36.375 C25.31551086 37.51149812 23.38191659 38.64952081 21.44921875 39.7890625 C16.07212857 42.95775482 16.07212857 42.95775482 13.74072266 44.32324219 C6.78024411 48.4310108 0.90257137 52.31462278 -3.66796875 59.15234375 C-5 61 -5 61 -8 63 C-13.99496408 63.71126692 -17.22509796 62.77904312 -22.23828125 59.484375 C-25.44314423 56.78404699 -26.84392819 54.98646916 -27.51171875 50.765625 C-27.56972656 49.60546875 -27.62773438 48.4453125 -27.6875 47.25 C-27.75324219 46.07953125 -27.81898437 44.9090625 -27.88671875 43.703125 C-27.92410156 42.81109375 -27.96148437 41.9190625 -28 41 C-28.99 42.65 -29.98 44.3 -31 46 C-32.65 45.67 -34.3 45.34 -36 45 C-36 44.67 -36 44.34 -36 44 C-37.03125 43.938125 -38.0625 43.87625 -39.125 43.8125 C-43.92952697 42.80509918 -45.53529968 41.38220746 -49 38 C-50.62334671 34.75330659 -50.69541503 31.49713522 -50 28 C-47.01803527 24.50891934 -45.18067466 23.17491476 -40.625 22.5 C-36.34031854 23.09099055 -32.98098082 24.32379755 -29 26 C-29.33 25.34 -29.66 24.68 -30 24 C-30.07033769 22.12620395 -30.0843022 20.24998898 -30.0625 18.375 C-30.05347656 17.37210938 -30.04445313 16.36921875 -30.03515625 15.3359375 C-30.02355469 14.56507812 -30.01195313 13.79421875 -30 13 C-25.09573204 10.59790957 -21.58228587 9.37974601 -16 10 C-12.13626414 11.49280704 -11.15726339 12.7169259 -9.125 16.375 C-7.64278075 21.15103979 -8.4706778 23.41203341 -10 28 C-9.34 28.33 -8.68 28.66 -8 29 C-8 29.66 -8 30.32 -8 31 C-4.73539027 29.19587357 -3.11070205 28.16605307 -1 25 C-0.63201307 22.28924456 -0.63201307 22.28924456 -0.5859375 19.23828125 C-0.54726562 18.12001953 -0.50859375 17.00175781 -0.46875 15.84960938 C-0.4378125 14.68236328 -0.406875 13.51511719 -0.375 12.3125 C-0.33632812 11.13365234 -0.29765625 9.95480469 -0.2578125 8.74023438 C-0.16345609 5.82698023 -0.07786839 2.91373393 0 0 Z " fill="#1EB8AA" transform="translate(68,107)"/>
<path d="M0 0 C6.78289527 1.13048255 11.18056218 3.5694665 17 7 C17.73653809 7.433125 18.47307617 7.86625 19.23193359 8.3125 C48.70378973 25.70378973 48.70378973 25.70378973 53 30 C53.4375 33.3125 53.4375 33.3125 53 37 C49.72197972 40.79817512 46.16039019 43.35506468 41.87890625 45.92578125 C41.29769516 46.27706589 40.71648407 46.62835052 40.11766052 46.99028015 C38.26994176 48.10450499 36.41631523 49.20845543 34.5625 50.3125 C33.35443851 51.04038665 32.14675336 51.76889828 30.93945312 52.49804688 C28.52261049 53.95509719 26.09724368 55.39624469 23.66455078 56.82666016 C21.179451 58.28884956 18.72625896 59.79204997 16.28466797 61.32568359 C5.06336524 68.26387352 5.06336524 68.26387352 -0.82373047 67.65185547 C-5.51002275 66.24817582 -9.4813367 63.70043461 -13.5625 61.0625 C-14.93245117 60.21655273 -14.93245117 60.21655273 -16.33007812 59.35351562 C-20.98207449 56.44819254 -20.98207449 56.44819254 -23 55 C-23 54.67 -23 54.34 -23 54 C-15.41 54 -7.82 54 0 54 C0 36.18 0 18.36 0 0 Z " fill="#43B290" transform="translate(128,53)"/>
<path d="M0 0 C3.97222494 0.93248164 6.94467939 2.78721364 9.25390625 6.1640625 C10.48228398 9.49743299 10.41539513 12.51692656 10.42578125 16.05859375 C10.44189453 16.73083984 10.45800781 17.40308594 10.47460938 18.09570312 C10.47950197 23.0225487 10.47950197 23.0225487 8.59375 25.4609375 C8.10519531 25.80253906 7.61664063 26.14414063 7.11328125 26.49609375 C7.644375 26.32207031 8.17546875 26.14804688 8.72265625 25.96875 C11.72634697 25.37488304 14.31996153 25.63587769 17.36328125 25.93359375 C18.4409375 26.03542969 19.51859375 26.13726562 20.62890625 26.2421875 C21.44875 26.32597656 22.26859375 26.40976563 23.11328125 26.49609375 C23.11328125 27.48609375 23.11328125 28.47609375 23.11328125 29.49609375 C23.85578125 29.74359375 24.59828125 29.99109375 25.36328125 30.24609375 C28.63388333 31.73273106 30.1190631 32.46783655 32.11328125 35.49609375 C32.79898341 39.29382881 32.82940811 42.70118527 32.11328125 46.49609375 C28.82872661 50.75713761 26.06247077 51.60905164 20.92578125 52.80859375 C14.13290154 54.39980256 9.50735778 58.25313408 4.11328125 62.49609375 C0.88367142 64.11089867 -2.39527637 64.08775345 -5.88671875 63.49609375 C-8.32778947 62.08799282 -9.85545198 60.52736052 -11.88671875 58.49609375 C-12.46421875 57.95984375 -13.04171875 57.42359375 -13.63671875 56.87109375 C-14.88671875 55.49609375 -14.88671875 55.49609375 -16.88671875 52.49609375 C-18.09702656 53.48122266 -18.09702656 53.48122266 -17.96850586 55.36621094 C-17.9415564 56.56745605 -17.9415564 56.56745605 -17.9140625 57.79296875 C-17.90181641 58.66953125 -17.88957031 59.54609375 -17.87695312 60.44921875 C-17.8420899 62.29826103 -17.80309836 64.14723057 -17.75976562 65.99609375 C-17.64812129 74.98017892 -17.64812129 74.98017892 -19.88671875 78.49609375 C-22.3125 80.41015625 -22.3125 80.41015625 -25.19921875 82.12109375 C-26.61654297 82.97574219 -26.61654297 82.97574219 -28.0625 83.84765625 C-28.99449219 84.39164062 -29.92648438 84.935625 -30.88671875 85.49609375 C-32.55381225 86.49538202 -34.2205498 87.49526469 -35.88671875 88.49609375 C-36.75296875 89.01171875 -37.61921875 89.52734375 -38.51171875 90.05859375 C-40.33114105 91.15982304 -42.11716793 92.3163932 -43.88671875 93.49609375 C-46.07421875 93.12109375 -46.07421875 93.12109375 -47.88671875 92.49609375 C-44.09942637 90.15560219 -40.3061889 87.82492733 -36.51171875 85.49609375 C-35.43148437 84.82835937 -34.35125 84.160625 -33.23828125 83.47265625 C-32.20703125 82.84101563 -31.17578125 82.209375 -30.11328125 81.55859375 C-29.16018066 80.97207031 -28.20708008 80.38554687 -27.22509766 79.78125 C-24.88671875 78.49609375 -24.88671875 78.49609375 -22.88671875 78.49609375 C-20.95366604 74.41597716 -20.61718079 71.0898828 -20.56787109 66.59448242 C-20.55782547 65.92075592 -20.54777985 65.24702942 -20.53742981 64.55288696 C-20.50669441 62.33995365 -20.48958996 60.12714079 -20.47265625 57.9140625 C-20.4539368 56.37420116 -20.4343628 54.83434999 -20.41397095 53.29450989 C-20.36272569 49.2520651 -20.32305944 45.20958709 -20.28582764 41.16699219 C-20.24574016 37.03767732 -20.1946695 32.90849977 -20.14453125 28.77929688 C-20.04786209 20.68498977 -19.96342867 12.5906145 -19.88671875 4.49609375 C-17.94921875 4.87109375 -17.94921875 4.87109375 -15.88671875 5.49609375 C-15.39171875 6.48609375 -15.39171875 6.48609375 -14.88671875 7.49609375 C-14.41363281 6.99078125 -13.94054687 6.48546875 -13.453125 5.96484375 C-9.14211111 1.72946168 -6.17253141 -0.52237312 0 0 Z " fill="#C2CFD2" transform="translate(205.88671875,94.50390625)"/>
<path d="M0 0 C1.72524616 1.72524616 1.15427009 4.03688355 1.17700195 6.39013672 C1.19625481 8.11730423 1.19625481 8.11730423 1.21589661 9.87936401 C1.22328354 11.13347076 1.23067047 12.38757751 1.23828125 13.6796875 C1.246353 14.95852814 1.25442474 16.23736877 1.26274109 17.55496216 C1.27778053 20.2669461 1.2876127 22.97890371 1.29516602 25.69091797 C1.30623411 29.1671123 1.34063294 32.64266708 1.38033772 36.11863518 C1.41274585 39.43062773 1.4172779 42.74254856 1.42578125 46.0546875 C1.44328934 47.30474579 1.46079742 48.55480408 1.47883606 49.84274292 C1.47591049 51.00049225 1.47298492 52.15824158 1.4699707 53.35107422 C1.47583694 54.37175995 1.48170319 55.39244568 1.48774719 56.44406128 C1 59 1 59 -0.86238098 60.82058716 C-3.94370287 62.52067992 -5.49274853 62.54749348 -9 62 C-12.24978733 60.4896329 -15.22851906 58.60749679 -18.25 56.6875 C-19.11882812 56.14931641 -19.98765625 55.61113281 -20.8828125 55.05664062 C-22.69112919 53.9362705 -24.49644273 52.81103967 -26.29882812 51.68115234 C-28.90739263 50.05763687 -31.53390927 48.46973032 -34.171875 46.89453125 C-34.98495117 46.40702393 -35.79802734 45.9195166 -36.63574219 45.41723633 C-38.17638893 44.49370738 -39.71863319 43.57283661 -41.26269531 42.6550293 C-44.92821418 40.43377231 -48.23608113 38.34469169 -51 35 C-51.6875 32.125 -51.6875 32.125 -51 29 C-44.93841983 22.97371287 -37.55170626 18.89740973 -30.25 14.5625 C-28.41835337 13.46773666 -26.58786392 12.37107894 -24.75817871 11.27304077 C-23.56123417 10.55580087 -22.36275882 9.84110904 -21.16271973 9.12905884 C-16.44234886 6.31545689 -11.89467031 3.28326236 -7.39355469 0.13256836 C-4.45030703 -1.26010054 -3.04761505 -1.00542259 0 0 Z " fill="#07516C" transform="translate(126,136)"/>
<path d="M0 0 C1.06927734 0.80824219 1.06927734 0.80824219 2.16015625 1.6328125 C2.89105469 2.16648437 3.62195313 2.70015625 4.375 3.25 C8.15129669 6.33171358 8.15129669 6.33171358 8.62890625 9.18359375 C8.8796838 16.90545244 8.8796838 16.90545244 5.91015625 20.7578125 C3.10224388 22.62316273 0.29671596 23.30865887 -2.96484375 24.0703125 C-9.75772346 25.66152131 -14.38326722 29.51485283 -19.77734375 33.7578125 C-23.0075582 35.37291972 -26.28541726 35.34845434 -29.77734375 34.7578125 C-33.28189938 32.77597864 -35.54957546 30.09946493 -37.77734375 26.7578125 C-38.63507524 22.34260451 -39.00302767 17.79923876 -36.62109375 13.83203125 C-34.4812307 11.79429802 -32.29020782 10.32626683 -29.77734375 8.7578125 C-29.11718262 8.34047852 -28.45702148 7.92314453 -27.77685547 7.49316406 C-25.48450094 6.0656684 -23.1696396 4.68578253 -20.83984375 3.3203125 C-19.71376709 2.64536743 -19.71376709 2.64536743 -18.56494141 1.95678711 C-12.39561382 -1.48763154 -6.67651299 -2.98611973 0 0 Z " fill="#089EA1" transform="translate(229.77734375,123.2421875)"/>
<path d="M0 0 C2.68451993 1.13152124 5.06201983 2.6015562 7.5 4.1875 C8.12519531 4.57486328 8.75039062 4.96222656 9.39453125 5.36132812 C13.72133022 8.07117634 17.86855012 11.00256923 22 14 C21.875 16.74609375 21.875 16.74609375 21 20 C18.375 22.16015625 18.375 22.16015625 15 24.0625 C14.41347656 24.39830078 13.82695313 24.73410156 13.22265625 25.08007812 C11.4899009 26.06778659 9.74508989 27.03425139 8 28 C7.113125 28.53496094 6.22625 29.06992187 5.3125 29.62109375 C1.26658495 32.03360729 -1.19108856 33.40909442 -6 33 C-10.11897921 31.13497998 -13.89987021 28.67690486 -17.75 26.3125 C-18.81605469 25.68666016 -19.88210937 25.06082031 -20.98046875 24.41601562 C-21.99238281 23.80048828 -23.00429688 23.18496094 -24.046875 22.55078125 C-24.97338867 21.99044189 -25.89990234 21.43010254 -26.85449219 20.8527832 C-29.41582216 18.64091097 -29.72305191 17.31308024 -30 14 C-24.75485874 10.33672674 -19.36549879 6.90667744 -13.875 3.625 C-13.30185059 3.26728516 -12.72870117 2.90957031 -12.13818359 2.54101562 C-7.90751411 0.05992566 -4.85505171 -0.66984709 0 0 Z " fill="#36AA92" transform="translate(68,27)"/>
<path d="M0 0 C0.12373184 4.91120223 0.21439824 9.82149485 0.2746582 14.73388672 C0.29978078 16.40429489 0.33388552 18.07459337 0.37719727 19.74462891 C0.43795399 22.1477362 0.46623021 24.54938904 0.48828125 26.953125 C0.51408768 27.69806213 0.5398941 28.44299927 0.56648254 29.21051025 C0.56851728 32.98426327 0.37908731 34.61276502 -2.3059082 37.35546875 C-3.1949585 37.89816406 -4.08400879 38.44085938 -5 39 C-5.61552734 39.42249023 -6.23105469 39.84498047 -6.86523438 40.28027344 C-8.7365894 41.44854875 -10.61490765 42.60401316 -12.5 43.75 C-13.15097656 44.16121094 -13.80195312 44.57242188 -14.47265625 44.99609375 C-18.06529129 47.18070617 -20.65160098 48.68146552 -25 48 C-27.70935796 45.29064204 -26.68033783 37.03194226 -26.78955078 33.26489258 C-26.84609891 31.72468324 -26.9277808 30.1851731 -27.03564453 28.64770508 C-27.39008574 23.49830769 -27.43048373 18.99327204 -26 14 C-22.08062647 10.13474421 -18.03288344 8.23980124 -13 6 C-11.10677902 4.8631401 -9.22764672 3.70184701 -7.375 2.5 C-3.37234043 0 -3.37234043 0 0 0 Z " fill="#196351" transform="translate(93,50)"/>
<path d="M0 0 C3.07155976 2.64495424 4.05657066 5.09200547 5.25 8.9375 C4.9821857 11.88345728 4.18648828 14.12803516 3.25 16.9375 C4.24 17.9275 5.23 18.9175 6.25 19.9375 C3.49557901 23.16786874 -0.0894067 24.97842235 -3.75 27 C-7.14734737 28.89708434 -10.50927545 30.77701696 -13.75 32.9375 C-14.08 31.9475 -14.41 30.9575 -14.75 29.9375 C-15.74 31.5875 -16.73 33.2375 -17.75 34.9375 C-19.4 34.6075 -21.05 34.2775 -22.75 33.9375 C-22.75 33.6075 -22.75 33.2775 -22.75 32.9375 C-23.78125 32.875625 -24.8125 32.81375 -25.875 32.75 C-30.67952697 31.74259918 -32.28529968 30.31970746 -35.75 26.9375 C-37.37334671 23.69080659 -37.44541503 20.43463522 -36.75 16.9375 C-33.76803527 13.44641934 -31.93067466 12.11241476 -27.375 11.4375 C-23.09031854 12.02849055 -19.73098082 13.26129755 -15.75 14.9375 C-16.08 14.2775 -16.41 13.6175 -16.75 12.9375 C-16.82033769 11.06370395 -16.8343022 9.18748898 -16.8125 7.3125 C-16.80347656 6.30960937 -16.79445313 5.30671875 -16.78515625 4.2734375 C-16.77355469 3.50257812 -16.76195313 2.73171875 -16.75 1.9375 C-10.98360679 -0.88685586 -6.31869386 -2.44131354 0 0 Z " fill="#D1DAD8" transform="translate(54.75,118.0625)"/>
<path d="M0 0 C4.87920434 1.74675515 9.26770578 4.24632987 13.75 6.8125 C14.91982422 7.45155273 14.91982422 7.45155273 16.11328125 8.10351562 C21.76749595 11.3534599 21.76749595 11.3534599 23.015625 14.82421875 C23.01046875 15.54222656 23.0053125 16.26023437 23 17 C16.49091918 21.7018191 9.82304576 25.97746018 2.8828125 30.0078125 C-0.07522487 32.05198467 -1.79754554 34.19557317 -4 37 C-7.85742989 37.73865679 -9.4870767 37.30106368 -12.875 35.3125 C-15 33 -15 33 -15.3125 30.25 C-15.1578125 29.13625 -15.1578125 29.13625 -15 28 C-16.60875 28.12375 -16.60875 28.12375 -18.25 28.25 C-22 28 -22 28 -24.4375 26.3125 C-26.28968623 23.57126438 -26.59716883 22.24177364 -26 19 C-23 17 -23 17 -19.9375 17.375 C-18.4834375 17.684375 -18.4834375 17.684375 -17 18 C-16.34 18 -15.68 18 -15 18 C-15.020625 17.030625 -15.04125 16.06125 -15.0625 15.0625 C-15 12 -15 12 -14 11 C-8.74549098 10.54308617 -8.74549098 10.54308617 -6.0625 12.1875 C-5 14 -5 14 -5.25 16.625 C-6 19 -6 19 -7 20 C-5.35 19.67 -3.7 19.34 -2 19 C-1.93941406 17.71222656 -1.87882812 16.42445312 -1.81640625 15.09765625 C-1.73201753 13.41925841 -1.6473687 11.74087364 -1.5625 10.0625 C-1.52318359 9.21236328 -1.48386719 8.36222656 -1.44335938 7.48632812 C-1.40146484 6.67744141 -1.35957031 5.86855469 -1.31640625 5.03515625 C-1.27974854 4.2862915 -1.24309082 3.53742676 -1.20532227 2.76586914 C-1 1 -1 1 0 0 Z " fill="#22B7A9" transform="translate(35,48)"/>
<path d="M0 0 C1.2684375 0.3403125 1.2684375 0.3403125 2.5625 0.6875 C3.305 0.831875 4.0475 0.97625 4.8125 1.125 C5.39 1.310625 5.9675 1.49625 6.5625 1.6875 C8.05547212 4.67344424 7.68005228 7.39603624 7.5625 10.6875 C7.2325 11.3475 6.9025 12.0075 6.5625 12.6875 C7.284375 12.77 8.00625 12.8525 8.75 12.9375 C12.23034771 13.86559272 14.0559447 15.10932883 16.5625 17.6875 C17.0625 20.25 17.0625 20.25 16.5625 22.6875 C14.40530314 25.31658367 12.17799602 26.46745414 9.0625 27.75 C6.27687656 28.90603373 4.09864914 29.99673391 1.5625 31.6875 C-1.63670361 31.35424962 -4.38608478 30.70463841 -7.4375 29.6875 C-7.19 30.55761719 -7.19 30.55761719 -6.9375 31.4453125 C-6.39571045 34.0103474 -6.15308725 36.07607385 -6.4375 38.6875 C-8.56943421 41.42855827 -11.50224512 42.89613121 -14.4375 44.6875 C-15.51770958 45.47841595 -16.59020422 46.27993809 -17.65625 47.08984375 C-18.7915506 47.93505176 -19.92696733 48.78010381 -21.0625 49.625 C-21.6002002 50.03943359 -22.13790039 50.45386719 -22.69189453 50.88085938 C-25.67916726 53.02519333 -27.11315797 53.71098684 -30.8359375 53.44140625 C-31.69445312 53.19261719 -32.55296875 52.94382813 -33.4375 52.6875 C-33.4375 52.0275 -33.4375 51.3675 -33.4375 50.6875 C-32.44492188 50.28789063 -31.45234375 49.88828125 -30.4296875 49.4765625 C-26.25155208 47.68533165 -22.43313483 45.43383755 -18.5625 43.0625 C-17.88703125 42.65515625 -17.2115625 42.2478125 -16.515625 41.828125 C-13.29910973 39.99562126 -13.29910973 39.99562126 -10.4375 37.6875 C-10.27753834 35.09596893 -10.17811303 32.5279798 -10.12109375 29.93359375 C-10.10031265 29.15814713 -10.07953156 28.3827005 -10.05812073 27.58375549 C-9.99254198 25.09759692 -9.93370201 22.61132955 -9.875 20.125 C-9.83182267 18.44334796 -9.78820864 16.76170706 -9.74414062 15.08007812 C-9.63685221 10.94933129 -9.53560868 6.81847464 -9.4375 2.6875 C-8.839375 2.56375 -8.24125 2.44 -7.625 2.3125 C-4.54033503 1.43116715 -3.30800331 -0.42410299 0 0 Z " fill="#BDCBCD" transform="translate(102.4375,47.3125)"/>
<path d="M0 0 C5.46341463 2.92682927 5.46341463 2.92682927 7 6 C8.07508046 17.25762822 8.07508046 17.25762822 5.1875 21.9375 C-8.57834651 30.84481245 -8.57834651 30.84481245 -14 30 C-16.8848493 25.67272606 -16.48293521 21.78310579 -16.5625 16.6875 C-16.61212891 15.74970703 -16.66175781 14.81191406 -16.71289062 13.84570312 C-16.81241435 7.12074277 -16.81241435 7.12074277 -14.56225586 4.01660156 C-10.05011667 -0.08036977 -6.03196087 -1.31367569 0 0 Z " fill="#055375" transform="translate(208,95)"/>
<path d="M0 0 C0 9.9 0 19.8 0 30 C-6.78730472 31.35746094 -9.18506892 28.98761643 -14.75 25.375 C-15.62527344 24.84003906 -16.50054687 24.30507812 -17.40234375 23.75390625 C-18.23378906 23.22410156 -19.06523438 22.69429687 -19.921875 22.1484375 C-20.68081055 21.66552246 -21.43974609 21.18260742 -22.22167969 20.68505859 C-24.4563977 18.56753749 -24.67982821 17.00846679 -25 14 C-20.86246967 10.53451471 -16.49291024 7.622706 -11.9375 4.75 C-10.87692383 4.06164062 -10.87692383 4.06164062 -9.79492188 3.359375 C-9.10849609 2.92625 -8.42207031 2.493125 -7.71484375 2.046875 C-7.09730225 1.65338867 -6.47976074 1.25990234 -5.84350586 0.85449219 C-4 0 -4 0 0 0 Z " fill="#07516C" transform="translate(63,68)"/>
<path d="M0 0 C0.33 0 0.66 0 1 0 C1.49152542 7.37288136 1.49152542 7.37288136 -0.8125 10.3125 C-1.534375 10.869375 -2.25625 11.42625 -3 12 C-3.5775 12.5775 -4.155 13.155 -4.75 13.75 C-5.36875 14.36875 -5.36875 14.36875 -6 15 C-5.01 15.66 -4.02 16.32 -3 17 C-3.74048584 17.4532666 -4.48097168 17.9065332 -5.24389648 18.37353516 C-8.03480009 20.08306983 -10.82471606 21.79419489 -13.61401367 23.50634766 C-14.81317604 24.2419966 -16.01270999 24.97704022 -17.21264648 25.71142578 C-24.23337561 30.00887417 -31.19150437 34.37160125 -38 39 C-38.99 39.66 -39.98 40.32 -41 41 C-41.33 40.34 -41.66 39.68 -42 39 C-42.7734375 39.5878125 -42.7734375 39.5878125 -43.5625 40.1875 C-44.366875 40.785625 -45.17125 41.38375 -46 42 C-46.81597656 42.63228516 -46.81597656 42.63228516 -47.6484375 43.27734375 C-53.49430777 47.68089231 -57.6512425 48.14409328 -65 48 C-65.66 46.68 -66.32 45.36 -67 44 C-66.01 44.33 -65.02 44.66 -64 45 C-58.32748997 45.51281746 -58.32748997 45.51281746 -53.25 43.375 C-50.90457741 41.07071374 -50.90457741 41.07071374 -49.3125 38.1875 C-43.83495024 30.63736384 -34.20766816 26.22650699 -26.25 21.625 C-24.32336058 20.49234389 -22.39757972 19.35822612 -20.47265625 18.22265625 C-17.86593693 16.68628743 -15.25897493 15.15076903 -12.64404297 13.62841797 C-10.64619183 12.45895521 -8.66516707 11.26567759 -6.6875 10.0625 C-5.59824219 9.41410156 -4.50898437 8.76570312 -3.38671875 8.09765625 C-0.71346227 6.14199972 -0.71346227 6.14199972 -0.14453125 2.74609375 C-0.09683594 1.83988281 -0.04914063 0.93367188 0 0 Z " fill="#C4D2D7" transform="translate(116,124)"/>
<path d="M0 0 C0.66 0.33 1.32 0.66 2 1 C2.875 4.25 2.875 4.25 3 8 C1.31891684 10.8640676 0.26977178 12.64287669 -3 13.5625 C-3.66 13.706875 -4.32 13.85125 -5 14 C-7.31278117 15.72937829 -7.31278117 15.72937829 -9 18 C-9 19.32 -9 20.64 -9 22 C-11.10713604 24.75379546 -13.93433732 26.29212576 -16.89453125 28.03125 C-17.85037109 28.59457031 -18.80621094 29.15789062 -19.79101562 29.73828125 C-20.78810547 30.31964844 -21.78519531 30.90101562 -22.8125 31.5 C-24.29073242 32.37205078 -24.29073242 32.37205078 -25.79882812 33.26171875 C-28.52214658 34.86022804 -31.25529857 36.43853528 -34 38 C-34.63873047 38.36391846 -35.27746094 38.72783691 -35.93554688 39.1027832 C-39.64137731 41.10134989 -39.64137731 41.10134989 -42.875 40.1875 C-43.90625 39.795625 -44.9375 39.40375 -46 39 C-48.0642809 38.8641472 -48.0642809 38.8641472 -50.1875 38.9375 C-54 39 -54 39 -57 38 C-56.67 37.34 -56.34 36.68 -56 36 C-54.71480469 36.10570312 -53.42960937 36.21140625 -52.10546875 36.3203125 C-46.17845494 36.30412163 -42.25855842 33.92208714 -37.3125 30.875 C-36.42199951 30.34745117 -35.53149902 29.81990234 -34.61401367 29.27636719 C-26.6092157 24.49092805 -18.74241853 19.46750851 -10.93286133 14.37060547 C-10.0539624 13.79971191 -9.17506348 13.22881836 -8.26953125 12.640625 C-7.49198486 12.13047852 -6.71443848 11.62033203 -5.91333008 11.09472656 C-4 10 -4 10 -2 10 C-1.34 6.7 -0.68 3.4 0 0 Z " fill="#C3D3D2" transform="translate(181,83)"/>
<path d="M0 0 C2.87305972 1.40460697 4.74510999 2.74510999 7 5 C7.57039258 8.05610339 7.5337277 10.94031349 7 14 C4.10799895 17.65305395 1.88959163 19.74232841 -2.75 20.375 C-7.2753858 19.8528401 -8.7671103 18.15770622 -12 15 C-13.62334671 11.75330659 -13.69541503 8.49713522 -13 5 C-9.04184431 0.36606163 -6.01942875 -0.87555327 0 0 Z " fill="#0D526C" transform="translate(31,130)"/>
<path d="M0 0 C4.6 2.2 4.6 2.2 6 5 C6.68571429 11.97142857 6.68571429 11.97142857 4 16 C0.6660243 18.22265047 -1.14052666 18.73748232 -5.06640625 18.5 C-8.34720232 17.65163253 -9.96643739 15.5881706 -12 13 C-13.462958 10.074084 -13.44523109 8.24382653 -13 5 C-8.94186265 0.44696785 -6.2575823 -0.91019379 0 0 Z " fill="#32B999" transform="translate(52,117)"/>
<path d="M0 0 C2.875 1.6875 2.875 1.6875 5 4 C5.5 6.5625 5.5 6.5625 5 9 C2.84280314 11.62908367 0.61549602 12.77995414 -2.5 14.0625 C-5.28562344 15.21853373 -7.46385086 16.30923391 -10 18 C-13.0625 17.8125 -13.0625 17.8125 -16 17 C-18 14 -18 14 -18.6875 11.1875 C-17.84366208 7.27516054 -16.93314906 6.90498452 -13.6875 4.75 C-12.13345361 3.81907366 -10.57152087 2.90111386 -9 2 C-5.48746854 -0.34168764 -4.13530644 -0.49623677 0 0 Z " fill="#09969A" transform="translate(114,61)"/>
<path d="M0 0 C3.125 0.25 3.125 0.25 5.0625 1.4375 C6.125 3.25 6.125 3.25 5.875 5.875 C5.125 8.25 5.125 8.25 4.125 9.25 C4.785 9.91 5.445 10.57 6.125 11.25 C-2.12308184 17.66517477 -2.12308184 17.66517477 -7.1875 17.875 C-10.875 17.25 -10.875 17.25 -13.375 15.5625 C-15.15382189 12.82014959 -15.46556408 11.4559193 -14.875 8.25 C-11.875 6.25 -11.875 6.25 -8.8125 6.625 C-7.843125 6.83125 -6.87375 7.0375 -5.875 7.25 C-5.215 7.25 -4.555 7.25 -3.875 7.25 C-3.895625 6.280625 -3.91625 5.31125 -3.9375 4.3125 C-3.85633333 0.33533333 -3.85633333 0.33533333 0 0 Z " fill="#C6D9D7" transform="translate(23.875,58.75)"/>
<path d="M0 0 C0.33 0.99 0.66 1.98 1 3 C0.38125 3.0825 -0.2375 3.165 -0.875 3.25 C-1.57625 3.4975 -2.2775 3.745 -3 4 C-3.28230469 4.62261719 -3.56460938 5.24523437 -3.85546875 5.88671875 C-5.310147 8.57266051 -6.72811982 9.21448326 -9.4375 10.5625 C-12.48582007 12.09419295 -14.65994648 13.52468327 -17 16 C-17.721875 16.433125 -18.44375 16.86625 -19.1875 17.3125 C-21.27809726 18.92764188 -21.27809726 18.92764188 -21.5625 21.875 C-20.82259093 25.98560592 -19.1570047 27.3569263 -16 30 C-12.32653229 32.44897847 -10.33643601 32.31537716 -6 32 C-5.34 31.34 -4.68 30.68 -4 30 C-3.01 30 -2.02 30 -1 30 C-0.773125 29.113125 -0.54625 28.22625 -0.3125 27.3125 C1.57703616 22.54367065 4.16342055 19.85707041 8.8125 17.6875 C9.534375 17.460625 10.25625 17.23375 11 17 C11 16.34 11 15.68 11 15 C11.99 14.67 12.98 14.34 14 14 C14.495 15.485 14.495 15.485 15 17 C14.27554688 17.4846875 13.55109375 17.969375 12.8046875 18.46875 C7.32607596 22.267254 2.88325991 25.72744978 -0.78125 31.3359375 C-2 33 -2 33 -5 35 C-10.99496408 35.71126692 -14.22509796 34.77904312 -19.23828125 31.484375 C-22.01377638 29.14582034 -23.7477991 27.20235311 -24.50390625 23.59765625 C-24.52324219 22.76105469 -24.54257812 21.92445313 -24.5625 21.0625 C-24.60503906 20.22847656 -24.64757813 19.39445312 -24.69140625 18.53515625 C-23.31216938 13.47795438 -18.2882816 11.0896766 -13.984375 8.61328125 C-12.57641519 7.83995017 -11.16489388 7.07307024 -9.75 6.3125 C-8.32647926 5.54078849 -6.90452751 4.76617378 -5.484375 3.98828125 C-4.86272461 3.65352783 -4.24107422 3.31877441 -3.60058594 2.97387695 C-1.81808688 1.97577059 -1.81808688 1.97577059 0 0 Z " fill="#24898B" transform="translate(65,135)"/>
<path d="M0 0 C0.375 2.1875 0.375 2.1875 0 5 C-3.43801277 8.90260909 -6.15257583 10.18000273 -11.1875 11.3125 C-17.98037971 12.90370881 -22.60592347 16.75704033 -28 21 C-31.17024765 22.58512383 -34.54667028 22.42372144 -38 22 C-40 20.5 -40 20.5 -41 19 C-40.67 18.67 -40.34 18.34 -40 18 C-40 17.67 -40 17.34 -40 17 C-38.6078125 17.0928125 -38.6078125 17.0928125 -37.1875 17.1875 C-33.49878508 16.97051677 -33.35906744 16.55565639 -31 14 C-29.96875 13.67 -28.9375 13.34 -27.875 13 C-26.92625 12.67 -25.9775 12.34 -25 12 C-24.67 11.01 -24.34 10.02 -24 9 C-23.236875 9.185625 -22.47375 9.37125 -21.6875 9.5625 C-18.91032625 10.22819173 -18.91032625 10.22819173 -16 9 C-15.38125 8.896875 -14.7625 8.79375 -14.125 8.6875 C-11.22549551 7.74942502 -9.34316798 5.91153177 -7 4 C-6.34 4 -5.68 4 -5 4 C-5 3.34 -5 2.68 -5 2 C-1.125 0 -1.125 0 0 0 Z " fill="#23BCBA" transform="translate(238,136)"/>
<path d="M0 0 C1.32 0 2.64 0 4 0 C6.55609325 4.26015542 6.04366285 7.79101081 4.94140625 12.421875 C3.29968784 16.91786733 0.94963817 20.25840134 -3 23 C-5.62489627 23.60102765 -8.0186666 23.74774786 -10.70703125 23.8046875 C-14.06054256 24.09033582 -15.63885037 25.70631179 -18 28 C-18.928125 28.515625 -19.85625 29.03125 -20.8125 29.5625 C-21.534375 30.036875 -22.25625 30.51125 -23 31 C-23 31.99 -23 32.98 -23 34 C-24.485 34.495 -24.485 34.495 -26 35 C-26 34.34 -26 33.68 -26 33 C-26.66 33 -27.32 33 -28 33 C-28 33.66 -28 34.32 -28 35 C-31.11547441 34.32116957 -33.85137721 33.25893098 -36.75 31.9375 C-37.54921875 31.57527344 -38.3484375 31.21304688 -39.171875 30.83984375 C-39.77515625 30.56269531 -40.3784375 30.28554687 -41 30 C-40.67 28.68 -40.34 27.36 -40 26 C-39.34 26.66 -38.68 27.32 -38 28 C-34.99778399 30.00147734 -33.01828424 30.8163688 -29.390625 30.6640625 C-23.9573129 29.15480914 -19.47990131 25.30517163 -15 22 C-12.12581191 20.0838746 -10.88886449 19.67083399 -7.625 19.125 C-3.44845668 18.20520661 -0.68158721 17.54661534 2 14 C2.73713697 8.77730613 2.97118011 4.45677016 0 0 Z " fill="#A5C8CA" transform="translate(235,127)"/>
<path d="M0 0 C0.66 0.33 1.32 0.66 2 1 C2.875 4.25 2.875 4.25 3 8 C1.28986945 10.91355574 0.18962492 12.60345836 -3.0625 13.6875 C-3.701875 13.790625 -4.34125 13.89375 -5 14 C-5.99 14.66 -6.98 15.32 -8 16 C-8.99 16 -9.98 16 -11 16 C-11.23074219 16.59554687 -11.46148437 17.19109375 -11.69921875 17.8046875 C-13.34133981 20.57607499 -15.03014702 21.53150849 -17.8125 23.125 C-18.66457031 23.62257813 -19.51664063 24.12015625 -20.39453125 24.6328125 C-23 26 -23 26 -25.5390625 27 C-30.65241244 29.07780569 -35.40924775 32.36506019 -39.25 36.3125 C-42.38064273 39.33133406 -45.98484681 39.04917302 -50.125 39.125 C-54 39 -54 39 -57 38 C-56.67 37.34 -56.34 36.68 -56 36 C-54.71480469 36.10570312 -53.42960937 36.21140625 -52.10546875 36.3203125 C-46.17845494 36.30412163 -42.25855842 33.92208714 -37.3125 30.875 C-36.42199951 30.34745117 -35.53149902 29.81990234 -34.61401367 29.27636719 C-26.6092157 24.49092805 -18.74241853 19.46750851 -10.93286133 14.37060547 C-10.0539624 13.79971191 -9.17506348 13.22881836 -8.26953125 12.640625 C-7.49198486 12.13047852 -6.71443848 11.62033203 -5.91333008 11.09472656 C-4 10 -4 10 -2 10 C-1.34 6.7 -0.68 3.4 0 0 Z " fill="#B0CFC8" transform="translate(181,83)"/>
<path d="M0 0 C0.33 0 0.66 0 1 0 C1.02505615 0.9286084 1.0501123 1.8572168 1.07592773 2.81396484 C1.17097932 6.25435804 1.27021707 9.69457713 1.37231445 13.13476562 C1.41566589 14.62462641 1.45734084 16.11453695 1.49731445 17.60449219 C1.55501215 19.74429327 1.61870755 21.88384385 1.68359375 24.0234375 C1.72025146 25.31169434 1.75690918 26.59995117 1.79467773 27.92724609 C1.79530675 30.9127682 1.79530675 30.9127682 3 33 C-1.46187416 34.80599669 -4.31860892 35.17034777 -9 34 C-9.66 33.67 -10.32 33.34 -11 33 C-10.67 32.34 -10.34 31.68 -10 31 C-8.02 31.33 -6.04 31.66 -4 32 C-3.67 22.1 -3.34 12.2 -3 2 C-2.34 2.33 -1.68 2.66 -1 3 C-0.67 2.01 -0.34 1.02 0 0 Z " fill="#AFC0C2" transform="translate(66,66)"/>
<path d="M0 0 C2.68705992 0.96458561 3.87217041 1.48581273 5.4375 3.875 C6.0625 6.75 6.0625 6.75 5.4375 9.875 C2.60616381 12.92047086 -0.10021842 14.80407621 -4.30078125 15.0078125 C-5.04714844 14.96398438 -5.79351562 14.92015625 -6.5625 14.875 C-6.67057131 12.93872231 -6.7481225 11.00072244 -6.8125 9.0625 C-6.85890625 7.98355469 -6.9053125 6.90460937 -6.953125 5.79296875 C-6.5625 2.875 -6.5625 2.875 -4.70703125 0.98046875 C-2.5625 -0.125 -2.5625 -0.125 0 0 Z " fill="#105979" transform="translate(102.5625,47.125)"/>
<path d="M0 0 C0.33 0 0.66 0 1 0 C1.1772083 8.51877655 1.34314615 17.03766687 1.49477577 25.5569334 C1.56553911 29.51294171 1.64015464 33.4687985 1.72363281 37.42456055 C1.80407974 41.24344505 1.87433049 45.06239453 1.93757248 48.88160133 C1.9634579 50.33727722 1.99299122 51.79289304 2.02626419 53.24841881 C2.07230934 55.29016539 2.1052744 57.33174223 2.13525391 59.3737793 C2.15746002 60.53515915 2.17966614 61.696539 2.20254517 62.89311218 C1.995631 66.06701714 1.45831271 68.18648309 0 71 C-2.42578125 72.9140625 -2.42578125 72.9140625 -5.3125 74.625 C-6.72982422 75.47964844 -6.72982422 75.47964844 -8.17578125 76.3515625 C-9.10777344 76.89554687 -10.03976563 77.43953125 -11 78 C-12.6670935 78.99928827 -14.33383105 79.99917094 -16 81 C-16.86625 81.515625 -17.7325 82.03125 -18.625 82.5625 C-20.4444223 83.66372929 -22.23044918 84.82029945 -24 86 C-26.1875 85.625 -26.1875 85.625 -28 85 C-24.21270762 82.65950844 -20.41947015 80.32883358 -16.625 78 C-15.54476562 77.33226562 -14.46453125 76.66453125 -13.3515625 75.9765625 C-12.3203125 75.34492188 -11.2890625 74.71328125 -10.2265625 74.0625 C-9.27346191 73.47597656 -8.32036133 72.88945312 -7.33837891 72.28515625 C-5 71 -5 71 -3 71 C-1.12173639 67.00254153 -0.73162722 63.77350587 -0.68115234 59.3737793 C-0.67110672 58.72931351 -0.6610611 58.08484772 -0.65071106 57.42085266 C-0.61999064 55.30531652 -0.60287552 53.18990628 -0.5859375 51.07421875 C-0.56721683 49.60161769 -0.54764274 48.12902725 -0.5272522 46.65644836 C-0.47601977 42.79155758 -0.43634672 38.92663205 -0.39910889 35.06158447 C-0.3590133 31.11323515 -0.30794636 27.16502924 -0.2578125 23.21679688 C-0.16115856 15.47796314 -0.07672037 7.73905975 0 0 Z " fill="#AEC6C3" transform="translate(186,102)"/>
<path d="M0 0 C15.98239602 7.38273116 15.98239602 7.38273116 21 13 C21.875 16.625 21.875 16.625 21 20 C17.68497887 23.75523627 14.14951366 26.37889379 9.89453125 28.98828125 C9.32925217 29.33634323 8.76397308 29.68440521 8.18156433 30.04301453 C6.99785125 30.76974175 5.81205327 31.49308319 4.62426758 32.21313477 C2.80195229 33.31890026 0.98757855 34.43689366 -0.82617188 35.55664062 C-9.71860117 41 -9.71860117 41 -12 41 C-11.67 40.01 -11.34 39.02 -11 38 C-9.515 37.505 -9.515 37.505 -8 37 C-7.67 36.34 -7.34 35.68 -7 35 C-4.04109405 33.43325706 -1.01578356 32.0451027 2.01953125 30.6328125 C4.93811723 29.0339017 6.73493456 27.39743939 9 25 C11.97664239 23.35980929 14.77725194 22.07424935 18 21 C18.50074688 16.42999506 18.50074688 16.42999506 16.765625 12.43359375 C14.78983108 10.829354 12.79285002 9.60112834 10.5625 8.375 C9.80066406 7.94960937 9.03882813 7.52421875 8.25390625 7.0859375 C6.08378362 5.9059285 6.08378362 5.9059285 3.83984375 5.6640625 C2 5 2 5 0.75 2.4375 C0.5025 1.633125 0.255 0.82875 0 0 Z " fill="#71BF9B" transform="translate(160,70)"/>
<path d="M0 0 C2 3 2 3 2 5 C2.99 5.33 3.98 5.66 5 6 C4.01773438 6.39445312 3.03546875 6.78890625 2.0234375 7.1953125 C-2.3337705 9.06770465 -6.33729105 11.39883595 -10.375 13.875 C-11.45974609 14.50728516 -11.45974609 14.50728516 -12.56640625 15.15234375 C-16.75590782 17.5833637 -16.75590782 17.5833637 -18.8515625 21.7578125 C-18.90054688 22.49773437 -18.94953125 23.23765625 -19 24 C-19.66 24.33 -20.32 24.66 -21 25 C-21 23.68 -21 22.36 -21 21 C-21.721875 21.495 -22.44375 21.99 -23.1875 22.5 C-26.14848659 24.07919285 -27.71253029 24.28178312 -31 24 C-30.443125 23.79375 -29.88625 23.5875 -29.3125 23.375 C-26.78499812 22.07314776 -26.78499812 22.07314776 -24.9921875 19.296875 C-21.44222854 14.93203165 -16.66050478 12.58102408 -11.8125 9.875 C-10.00098762 8.8613701 -8.19471696 7.83829966 -6.39453125 6.8046875 C-5.20114136 6.13928955 -5.20114136 6.13928955 -3.98364258 5.46044922 C-1.77912873 3.83738437 -1.00058193 2.51711523 0 0 Z " fill="#B8CCD0" transform="translate(58,62)"/>
<path d="M0 0 C1.06927734 0.80824219 1.06927734 0.80824219 2.16015625 1.6328125 C2.89105469 2.16648437 3.62195313 2.70015625 4.375 3.25 C6.22265625 4.7578125 6.22265625 4.7578125 8.22265625 6.7578125 C8.34765625 9.8828125 8.34765625 9.8828125 8.22265625 12.7578125 C7.89265625 12.7578125 7.56265625 12.7578125 7.22265625 12.7578125 C6.88234375 11.3965625 6.88234375 11.3965625 6.53515625 10.0078125 C5.02164661 6.26007435 3.56007496 4.95562482 0.22265625 2.7578125 C-4.58736921 1.15447068 -8.93615123 1.07737179 -13.65234375 2.8203125 C-17.31083852 5.08857926 -20.82025664 7.52332321 -24.3125 10.0390625 C-26.77734375 11.7578125 -26.77734375 11.7578125 -29.4453125 13.27734375 C-32.5087469 15.22213711 -33.88152485 17.7109607 -35.77734375 20.7578125 C-36.10734375 20.7578125 -36.43734375 20.7578125 -36.77734375 20.7578125 C-37.21484375 18.1328125 -37.21484375 18.1328125 -36.77734375 14.7578125 C-32.50352684 9.8365979 -26.51691244 6.53802852 -20.90234375 3.3828125 C-19.77505859 2.70798828 -19.77505859 2.70798828 -18.625 2.01953125 C-12.43629385 -1.47289469 -6.71749555 -3.00444948 0 0 Z " fill="#238B90" transform="translate(229.77734375,123.2421875)"/>
<path d="M0 0 C0.66 0 1.32 0 2 0 C2.042721 1.66611905 2.04063832 3.33382885 2 5 C1.67 5.33 1.34 5.66 1 6 C1.66 6.66 2.32 7.32 3 8 C2.44054687 8.268125 1.88109375 8.53625 1.3046875 8.8125 C-2.75158462 10.79498669 -6.73276802 12.80134995 -10.5703125 15.18359375 C-11.17987793 15.55548828 -11.78944336 15.92738281 -12.41748047 16.31054688 C-13.62234382 17.05150734 -14.81722127 17.80900224 -16.00048828 18.58398438 C-19.28190714 20.58276087 -20.60608016 21.08948636 -24.421875 20.22265625 C-25.27265625 19.81917969 -26.1234375 19.41570313 -27 19 C-26.41661865 18.7124585 -25.8332373 18.42491699 -25.23217773 18.12866211 C-23.21945148 17.11096185 -21.25043419 16.04724366 -19.28515625 14.94140625 C-18.59873047 14.55533203 -17.91230469 14.16925781 -17.20507812 13.77148438 C-16.49802734 13.37251953 -15.79097656 12.97355469 -15.0625 12.5625 C-14.35931641 12.16740234 -13.65613281 11.77230469 -12.93164062 11.36523438 C-11.5668111 10.59647847 -10.20385604 9.82438289 -8.84301758 9.04858398 C-7.26115669 8.14858497 -5.67046673 7.26413533 -4.078125 6.3828125 C-1.43867164 4.62648451 -0.88796147 2.9867795 0 0 Z " fill="#B8CFCA" transform="translate(90,42)"/>
<path d="M0 0 C-1.875 4.75 -1.875 4.75 -3 7 C-4.11375 7.309375 -5.2275 7.61875 -6.375 7.9375 C-10.97720762 9.28642292 -12.10857049 10.44968781 -14.4375 14.5 C-16.55347462 17.88555939 -18.4741759 19.54637662 -22.3125 20.6875 C-25.55883462 21.06498077 -28.7348647 21.06402226 -32 21 C-32.66 19.68 -33.32 18.36 -34 17 C-33.01 17.33 -32.02 17.66 -31 18 C-25.32748997 18.51281746 -25.32748997 18.51281746 -20.25 16.375 C-17.90457741 14.07071374 -17.90457741 14.07071374 -16.3125 11.1875 C-13.03209456 6.66586006 -5.98893125 0 0 0 Z " fill="#AECECF" transform="translate(83,151)"/>
<path d="M0 0 C0 22.77 0 45.54 0 69 C-0.33 69 -0.66 69 -1 69 C-1 46.56 -1 24.12 -1 1 C-2.485 2.485 -2.485 2.485 -4 4 C-7.67510779 6.54955274 -10.40386906 8 -15 8 C-12.86495107 5.73192622 -10.68604821 3.98935519 -8.0625 2.3125 C-7.39347656 1.87550781 -6.72445312 1.43851562 -6.03515625 0.98828125 C-4 0 -4 0 0 0 Z " fill="#4C8272" transform="translate(186,99)"/>
<path d="M0 0 C0.33 0.99 0.66 1.98 1 3 C-1.26506466 5.54819774 -3.36023455 6.76996322 -6.5 8.0625 C-9.28562344 9.21853373 -11.46385086 10.30923391 -14 12 C-17.125 11.75 -17.125 11.75 -20 11 C-20.33 10.34 -20.66 9.68 -21 9 C-19.35743644 5.71487288 -16.16313558 5.17064714 -12.85546875 3.88671875 C-8.61156321 2.56884384 -4.42353931 2.18823572 0 2 C0 1.34 0 0.68 0 0 Z " fill="#10B3B2" transform="translate(118,67)"/>
<path d="M0 0 C0.33 0 0.66 0 1 0 C1.09272514 7.62343616 1.16377754 15.24681377 1.20724869 22.87068558 C1.22811412 26.41090072 1.25641126 29.95072974 1.30175781 33.49072266 C1.35357738 37.56156091 1.37295369 41.63199427 1.390625 45.703125 C1.41127014 46.97303284 1.43191528 48.24294067 1.45318604 49.55133057 C1.45348816 50.73225281 1.45379028 51.91317505 1.45410156 53.12988281 C1.46298401 54.16912903 1.47186646 55.20837524 1.48101807 56.27911377 C0.87282871 59.71934639 -0.28976279 60.86384374 -3 63 C-5.875 64 -5.875 64 -9 64 C-12.375 62.0625 -12.375 62.0625 -15 60 C-14.67 59.34 -14.34 58.68 -14 58 C-13.46375 58.33 -12.9275 58.66 -12.375 59 C-9.3838974 60.25941162 -7.22270017 60.26855835 -4 60 C-2.68 59.34 -1.36 58.68 0 58 C0 38.86 0 19.72 0 0 Z " fill="#B2C8CE" transform="translate(127,137)"/>
<path d="M0 0 C0.33 0.99 0.66 1.98 1 3 C0.38125 3.0825 -0.2375 3.165 -0.875 3.25 C-1.57625 3.4975 -2.2775 3.745 -3 4 C-3.28230469 4.62261719 -3.56460938 5.24523437 -3.85546875 5.88671875 C-5.310147 8.57266051 -6.72811982 9.21448326 -9.4375 10.5625 C-12.48472805 12.09364424 -14.66373752 13.52153023 -17 16 C-17.70125 16.433125 -18.4025 16.86625 -19.125 17.3125 C-21.701036 19.6309324 -21.70092534 21.63541004 -22 25 C-22.33 25 -22.66 25 -23 25 C-23.33232818 23.61328513 -23.61427971 22.21444332 -23.875 20.8125 C-24.03742187 20.03519531 -24.19984375 19.25789063 -24.3671875 18.45703125 C-23.88857716 15.25441526 -22.38104232 14.13771678 -19.85791016 12.23852539 C-16.59453348 10.06308388 -13.20267971 8.16847343 -9.75 6.3125 C-8.32647926 5.54078849 -6.90452751 4.76617378 -5.484375 3.98828125 C-4.86272461 3.65352783 -4.24107422 3.31877441 -3.60058594 2.97387695 C-1.81808688 1.97577059 -1.81808688 1.97577059 0 0 Z " fill="#2CA59D" transform="translate(65,135)"/>
<path d="M0 0 C14.78132118 -0.738041 14.78132118 -0.738041 21 4 C20.01 4.33 19.02 4.66 18 5 C17.67 5.66 17.34 6.32 17 7 C17 6.34 17 5.68 17 5 C15.68 5 14.36 5 13 5 C13 5.66 13 6.32 13 7 C14.65 7.33 16.3 7.66 18 8 C18 8.66 18 9.32 18 10 C18.99 10 19.98 10 21 10 C21 10.66 21 11.32 21 12 C16.26525903 10.3003494 12.03832889 7.86340973 7.6875 5.375 C6.94693359 4.95476562 6.20636719 4.53453125 5.44335938 4.1015625 C3.62730989 3.07051505 1.81343467 2.03563954 0 1 C0 0.67 0 0.34 0 0 Z " fill="#C7E1DD" transform="translate(91,107)"/>
<path d="M0 0 C0.99 0.33 1.98 0.66 3 1 C3.75 3.6875 3.75 3.6875 4 7 C2.375 9.8125 2.375 9.8125 0 12 C-1.65614657 12.38218767 -3.32457024 12.71395102 -5 13 C-5.825 13.66 -6.65 14.32 -7.5 15 C-10.20056203 17.16044963 -11.56010132 17.91400253 -15 18 C-17.8125 16.5625 -17.8125 16.5625 -20 15 C-18 14 -18 14 -15.3125 13.6875 C-11.85996962 12.97093709 -9.63386101 11.8694024 -6.6796875 10.03125 C-5 9 -5 9 -2.0625 7.625 C-1.381875 7.08875 -0.70125 6.5525 0 6 C0.41746608 2.87364791 0.41746608 2.87364791 0 0 Z " fill="#B4CACB" transform="translate(118,64)"/>
<path d="M0 0 C2.875 0.6875 2.875 0.6875 3.875 1.6875 C4.1732732 4.52109542 4.23102594 6.12535378 2.6875 8.5625 C0.875 9.6875 0.875 9.6875 -1.6875 9.5 C-4.125 8.6875 -4.125 8.6875 -6.125 6.6875 C-6.4375 4.1875 -6.4375 4.1875 -6.125 1.6875 C-3.125 -0.3125 -3.125 -0.3125 0 0 Z " fill="#0F546E" transform="translate(15.125,65.3125)"/>
<path d="M0 0 C0.66 0.33 1.32 0.66 2 1 C0.20966193 2.31431172 -1.58231203 3.6263953 -3.375 4.9375 C-4.37273437 5.66839844 -5.37046875 6.39929688 -6.3984375 7.15234375 C-10.55391681 10.10360758 -13.9447124 10.62028069 -19 10 C-21 8.5 -21 8.5 -22 7 C-21.67 6.67 -21.34 6.34 -21 6 C-21 5.67 -21 5.34 -21 5 C-18.69 5.33 -16.38 5.66 -14 6 C-14 6.66 -14 7.32 -14 8 C-13.01 8 -12.02 8 -11 8 C-11 7.01 -11 6.02 -11 5 C-7.71379848 2.80919899 -4.78119262 2.05033128 -1 1 C-0.67 0.67 -0.34 0.34 0 0 Z " fill="#38C1BF" transform="translate(219,148)"/>
<path d="M0 0 C0.33 0 0.66 0 1 0 C1 4.29 1 8.58 1 13 C-0.98 13.99 -0.98 13.99 -3 15 C-3.309375 15.61875 -3.61875 16.2375 -3.9375 16.875 C-5.50255902 20.00511805 -6.96055624 21.22699114 -10 23 C-13.36120019 23.3294285 -16.63463035 23.23524914 -20 23 C-19.46632812 22.74476562 -18.93265625 22.48953125 -18.3828125 22.2265625 C-14.3729845 20.1624871 -10.54738914 17.77777589 -6.6796875 15.4609375 C-4 14 -4 14 -2 14 C-0.99740493 10.99221479 -0.69685358 8.46179353 -0.4375 5.3125 C-0.35371094 4.31863281 -0.26992187 3.32476562 -0.18359375 2.30078125 C-0.09271484 1.16189453 -0.09271484 1.16189453 0 0 Z " fill="#9EBEC6" transform="translate(215,103)"/>
<path d="M0 0 C3.0625 0.1875 3.0625 0.1875 5.0625 2.1875 C4.73278521 5.48464793 4.4398161 6.8101839 2.0625 9.1875 C-2.49305556 8.63194444 -2.49305556 8.63194444 -3.9375 7.1875 C-4.0625 4.1875 -4.0625 4.1875 -3.9375 1.1875 C-2.9375 0.1875 -2.9375 0.1875 0 0 Z " fill="#35C19D" transform="translate(23.9375,58.8125)"/>
<path d="M0 0 C2.9375 1.375 2.9375 1.375 5 3 C5 3.66 5 4.32 5 5 C4.06027344 4.85691406 4.06027344 4.85691406 3.1015625 4.7109375 C2.28429688 4.60007812 1.46703125 4.48921875 0.625 4.375 C-0.18710937 4.25898437 -0.99921875 4.14296875 -1.8359375 4.0234375 C-2.55007812 4.01570313 -3.26421875 4.00796875 -4 4 C-4.66 4.66 -5.32 5.32 -6 6 C-7.98821313 6.39764263 -9.98944339 6.73775349 -12 7 C-12.33 8.32 -12.66 9.64 -13 11 C-13.375 8.3125 -13.375 8.3125 -13 5 C-8.94186265 0.44696785 -6.2575823 -0.91019379 0 0 Z " fill="#5BCAAC" transform="translate(52,117)"/>
<path d="M0 0 C0.66 0.33 1.32 0.66 2 1 C0.64022513 5.62800569 -1.21199145 7.19465799 -5.3125 9.625 C-6.25738281 10.19476563 -7.20226562 10.76453125 -8.17578125 11.3515625 C-9.10777344 11.89554688 -10.03976563 12.43953125 -11 13 C-12.6670935 13.99928827 -14.33383105 14.99917094 -16 16 C-16.86625 16.515625 -17.7325 17.03125 -18.625 17.5625 C-20.4444223 18.66372929 -22.23044918 19.82029945 -24 21 C-26.1875 20.625 -26.1875 20.625 -28 20 C-24.21270762 17.65950844 -20.41947015 15.32883358 -16.625 13 C-15.54476562 12.33226562 -14.46453125 11.66453125 -13.3515625 10.9765625 C-11.8046875 10.02910156 -11.8046875 10.02910156 -10.2265625 9.0625 C-9.27346191 8.47597656 -8.32036133 7.88945312 -7.33837891 7.28515625 C-5 6 -5 6 -3 6 C-2.690625 5.195625 -2.38125 4.39125 -2.0625 3.5625 C-1 1 -1 1 0 0 Z " fill="#A2BAB8" transform="translate(186,167)"/>
<path d="M0 0 C0.33 0 0.66 0 1 0 C1.06058594 1.16917969 1.12117187 2.33835937 1.18359375 3.54296875 C1.26804034 5.09115614 1.35268625 6.63933268 1.4375 8.1875 C1.47681641 8.95642578 1.51613281 9.72535156 1.55664062 10.51757812 C1.77507034 14.43251075 2.08692108 18.17120688 3 22 C6.465 21.505 6.465 21.505 10 21 C10 20.34 10 19.68 10 19 C12.8125 17.4375 12.8125 17.4375 16 16 C16.99 16.33 17.98 16.66 19 17 C17.11248318 18.18007431 15.21460805 19.34359173 13.3125 20.5 C12.25675781 21.1496875 11.20101562 21.799375 10.11328125 22.46875 C7.00908447 23.99553186 5.3859051 24.61669725 2 24 C-0.16926659 20.74610012 -0.24080049 19.86604043 -0.1953125 16.11328125 C-0.18886719 15.17548828 -0.18242187 14.23769531 -0.17578125 13.27148438 C-0.15902344 12.29501953 -0.14226562 11.31855469 -0.125 10.3125 C-0.11597656 9.32443359 -0.10695312 8.33636719 -0.09765625 7.31835938 C-0.0740843 4.87866235 -0.04118022 2.43945303 0 0 Z " fill="#316B83" transform="translate(192,101)"/>
<path d="M0 0 C0.99 0 1.98 0 3 0 C4.49297212 2.98594424 4.11755228 5.70853624 4 9 C3.67 9.66 3.34 10.32 3 11 C4.32 11.33 5.64 11.66 7 12 C6.13375 12.268125 5.2675 12.53625 4.375 12.8125 C1.08208036 13.97111987 -1.91127875 15.38209839 -5 17 C-5.33 16.34 -5.66 15.68 -6 15 C-6.99 14.34 -7.98 13.68 -9 13 C-7.27473958 12.28385417 -5.54947917 11.56770833 -3.82421875 10.8515625 C-1.73466068 9.93193308 -1.73466068 9.93193308 1 8 C1.25660094 4.92078868 1.39431504 2.78863007 0 0 Z " fill="#BCCDCF" transform="translate(106,49)"/>
<path d="M0 0 C0.33 0 0.66 0 1 0 C1.49122807 7.36842105 1.49122807 7.36842105 -0.75 10.25 C-1.4925 10.8275 -2.235 11.405 -3 12 C-3.515625 12.70125 -4.03125 13.4025 -4.5625 14.125 C-8.49943276 17.15340981 -13.16243024 17.36611155 -18 18 C-14.95664925 14.62585026 -11.89834237 12.75848335 -7.875 10.6875 C-3.7332764 8.47114365 -3.7332764 8.47114365 -0.7734375 4.9921875 C-0.14304396 2.90037806 -0.14304396 2.90037806 0 0 Z " fill="#B1D1D0" transform="translate(116,124)"/>
<path d="M0 0 C0.763125 0.185625 1.52625 0.37125 2.3125 0.5625 C5.08967375 1.22819173 5.08967375 1.22819173 8 0 C7 3 7 3 4.9375 4.5625 C1.32239738 6.33159277 -2.07176601 7.13445692 -6 8 C-6 8.99 -6 9.98 -6 11 C-6.99 11 -7.98 11 -9 11 C-9.33 10.01 -9.66 9.02 -10 8 C-8.05063872 5.61744733 -6.88308087 4.96258588 -3.875 4 C-2.92625 3.67 -1.9775 3.34 -1 3 C-0.67 2.01 -0.34 1.02 0 0 Z " fill="#10C2BF" transform="translate(214,145)"/>
<path d="M0 0 C3.5 0.3125 3.5 0.3125 7 1 C7.33 1.66 7.66 2.32 8 3 C4.26043767 5.49304155 1.56885393 5.40180557 -2.8203125 5.65625 C-3.89925781 5.82640625 -3.89925781 5.82640625 -5 6 C-5.33 6.66 -5.66 7.32 -6 8 C-6.33 6.68 -6.66 5.36 -7 4 C-6.030625 3.525625 -5.06125 3.05125 -4.0625 2.5625 C-1.19522563 1.29806053 -1.19522563 1.29806053 0 0 Z " fill="#37C5A0" transform="translate(48,120)"/>
<path d="M0 0 C0.7425 0.66 1.485 1.32 2.25 2 C6.94531961 5.22094389 12.55789549 4.3170158 18 4 C17.67 4.99 17.34 5.98 17 7 C17.33 7.66 17.66 8.32 18 9 C17.01 9 16.02 9 15 9 C15 8.34 15 7.68 15 7 C14.34 7 13.68 7 13 7 C13 7.66 13 8.32 13 9 C9.88452559 8.32116957 7.14862279 7.25893098 4.25 5.9375 C3.45078125 5.57527344 2.6515625 5.21304688 1.828125 4.83984375 C1.22484375 4.56269531 0.6215625 4.28554687 0 4 C0 2.68 0 1.36 0 0 Z " fill="#B0D0CF" transform="translate(194,153)"/>
<path d="M0 0 C-3.24854224 1.96075924 -6.4990831 3.91818087 -9.75 5.875 C-10.67039062 6.43058594 -11.59078125 6.98617187 -12.5390625 7.55859375 C-13.42851563 8.09355469 -14.31796875 8.62851563 -15.234375 9.1796875 C-16.05131836 9.67194824 -16.86826172 10.16420898 -17.70996094 10.67138672 C-19.7733857 11.86852505 -21.85338921 12.96117831 -24 14 C-23.67 13.01 -23.34 12.02 -23 11 C-22.34 11 -21.68 11 -21 11 C-21 10.01 -21 9.02 -21 8 C-19.02 7.67 -17.04 7.34 -15 7 C-15 6.34 -15 5.68 -15 5 C-13.06891037 3.96709159 -11.129882 2.94901328 -9.1875 1.9375 C-8.10855469 1.36902344 -7.02960938 0.80054688 -5.91796875 0.21484375 C-3 -1 -3 -1 0 0 Z " fill="#34A99F" transform="translate(104,138)"/>
<path d="M0 0 C0.33 0.99 0.66 1.98 1 3 C-17.07692308 16 -17.07692308 16 -21 16 C-20.67 15.01 -20.34 14.02 -20 13 C-19.01 12.67 -18.02 12.34 -17 12 C-16.67 11.34 -16.34 10.68 -16 10 C-13.04109405 8.43325706 -10.01578356 7.0451027 -6.98046875 5.6328125 C-4.08456896 4.04633005 -2.18742421 2.44694912 0 0 Z " fill="#62B495" transform="translate(169,95)"/>
<path d="M0 0 C6.13680387 2.15617433 6.13680387 2.15617433 8 5 C8.8125 8.25 8.8125 8.25 8 12 C0.45631068 19 0.45631068 19 -4 19 C-3.3125 17.0625 -3.3125 17.0625 -2 15 C0.625 14.25 0.625 14.25 3 14 C3 13.34 3 12.68 3 12 C3.99 11.34 4.98 10.68 6 10 C5.88658466 7.59122743 5.88658466 7.59122743 5 5 C2.50240018 3.30117552 2.50240018 3.30117552 0 2 C0 1.34 0 0.68 0 0 Z " fill="#4AB9A9" transform="translate(108,118)"/>
<path d="M0 0 C0.99 0.66 1.98 1.32 3 2 C2.40832031 1.99097656 1.81664062 1.98195312 1.20703125 1.97265625 C-3.6380975 2.08809533 -3.6380975 2.08809533 -7.640625 4.51953125 C-8.88550375 6.30060778 -9.96262582 8.0918981 -11 10 C-11.66 10.99 -12.32 11.98 -13 13 C-13.2978711 10.07093421 -13.50159903 7.85647449 -13 5 C-9.03390645 0.35676853 -6.03055828 -0.79648883 0 0 Z " fill="#3D7B90" transform="translate(31,130)"/>
<path d="M0 0 C0 0.33 0 0.66 0 1 C-0.886875 1.2475 -1.77375 1.495 -2.6875 1.75 C-6.03845321 2.81976675 -6.03845321 2.81976675 -8.5 5 C-11.24614678 7.19691743 -13.63656396 8.06136669 -17 9 C-17 9.66 -17 10.32 -17 11 C-15.68 10.67 -14.36 10.34 -13 10 C-14.32 11.65 -15.64 13.3 -17 15 C-18 14 -18 14 -18.625 11.3125 C-18 8 -18 8 -16.09765625 6.33984375 C-13.77300332 4.8064017 -11.41547117 3.38503701 -9 2 C-5.5647952 -0.29013653 -4.014669 -0.17842973 0 0 Z " fill="#1B9196" transform="translate(114,61)"/>
<path d="M0 0 C0 11.55 0 23.1 0 35 C-0.33 35 -0.66 35 -1 35 C-1 24.44 -1 13.88 -1 3 C-2.65 3 -4.3 3 -6 3 C-3.375 0 -3.375 0 0 0 Z " fill="#387B65" transform="translate(93,50)"/>
<path d="M0 0 C2 2 2 2 2.1953125 4.6262207 C2.16050781 6.25950317 2.16050781 6.25950317 2.125 7.92578125 C2.10953125 9.11494141 2.0940625 10.30410156 2.078125 11.52929688 C2.02628356 14.03971855 1.9742025 16.55013529 1.921875 19.06054688 C1.90640625 20.25357422 1.8909375 21.44660156 1.875 22.67578125 C1.85179687 23.76802002 1.82859375 24.86025879 1.8046875 25.9855957 C2.00444422 29.06859097 2.69028377 31.2216871 4 34 C3.01 34 2.02 34 1 34 C-0.47905238 31.04189524 -0.12190903 28.0452845 -0.09765625 24.8046875 C-0.0962413 24.09724396 -0.09482635 23.38980042 -0.09336853 22.66091919 C-0.087766 20.39890331 -0.07521318 18.13698602 -0.0625 15.875 C-0.05748532 14.34244935 -0.05292236 12.80989714 -0.04882812 11.27734375 C-0.03779577 7.51819112 -0.02052952 3.75911228 0 0 Z " fill="#1D514A" transform="translate(134,161)"/>
<path d="M0 0 C0.66 0.99 1.32 1.98 2 3 C0.87851563 3.77923828 0.87851563 3.77923828 -0.265625 4.57421875 C-1.25046875 5.27160156 -2.2353125 5.96898437 -3.25 6.6875 C-4.22453125 7.37199219 -5.1990625 8.05648437 -6.203125 8.76171875 C-8.94640806 10.95711148 -10.92501437 13.17900763 -13 16 C-13.3125 13.8125 -13.3125 13.8125 -13 11 C-9.84794062 7.10627959 -6.55305858 5.01181658 -2 3 C-2 2.34 -2 1.68 -2 1 C-1.34 0.67 -0.68 0.34 0 0 Z " fill="#1F9B95" transform="translate(78,149)"/>
<path d="M0 0 C4.76551013 1.37605916 8.7248553 3.46778066 12.875 6.125 C13.46796875 6.49753906 14.0609375 6.87007813 14.671875 7.25390625 C16.1181343 8.16365 17.55958046 9.08103798 19 10 C16 11 16 11 12 11 C11.360625 10.195625 10.72125 9.39125 10.0625 8.5625 C8.2261093 5.78303602 8.2261093 5.78303602 5.25 5.1875 C4.13625 5.0946875 4.13625 5.0946875 3 5 C3 4.01 3 3.02 3 2 C2.01 1.67 1.02 1.34 0 1 C0 0.67 0 0.34 0 0 Z " fill="#42CDB4" transform="translate(89,107)"/>
<path d="M0 0 C-0.66 1.98 -1.32 3.96 -2 6 C-2.66 6 -3.32 6 -4 6 C-4 15.57 -4 25.14 -4 35 C-4.33 35 -4.66 35 -5 35 C-5.07429025 30.65840162 -5.12866741 26.3171423 -5.16479492 21.97509766 C-5.17985923 20.49879509 -5.20031482 19.02253712 -5.22631836 17.54638672 C-5.26280739 15.42143742 -5.27974933 13.29708099 -5.29296875 11.171875 C-5.3086792 9.8940918 -5.32438965 8.61630859 -5.34057617 7.29980469 C-4.96529164 3.66371452 -4.23276442 0 0 0 Z " fill="#2F685C" transform="translate(139,126)"/>
<path d="M0 0 C0.99 0.495 0.99 0.495 2 1 C1.01 1.495 1.01 1.495 0 2 C0 1.34 0 0.68 0 0 Z M-2.25 1.25 C-1.5075 1.4975 -0.765 1.745 0 2 C0 2.66 0 3.32 0 4 C-0.969375 4.5775 -1.93875 5.155 -2.9375 5.75 C-6.28740528 7.72054161 -6.28740528 7.72054161 -6.875 11.25 C-6.91625 12.1575 -6.9575 13.065 -7 14 C-7.33 14 -7.66 14 -8 14 C-9.58383234 5.94311377 -9.58383234 5.94311377 -7.375 2.375 C-5 1 -5 1 -2.25 1.25 Z " fill="#1A9B97" transform="translate(50,146)"/>
<path d="M0 0 C0 0.99 0 1.98 0 3 C-3.60847413 6.49912643 -7.39737741 8.19504997 -12 10 C-12.33 9.01 -12.66 8.02 -13 7 C-11.21190303 5.82786955 -9.41940875 4.66244474 -7.625 3.5 C-6.62726563 2.8503125 -5.62953125 2.200625 -4.6015625 1.53125 C-2 0 -2 0 0 0 Z " fill="#145E76" transform="translate(123,135)"/>
<path d="M0 0 C0.8125 1.6875 0.8125 1.6875 1 4 C-2.82929311 9.14973901 -8.270143 11.38540506 -14 14 C-13.67 12.68 -13.34 11.36 -13 10 C-11.68 10 -10.36 10 -9 10 C-9 9.34 -9 8.68 -9 8 C-8.236875 7.773125 -7.47375 7.54625 -6.6875 7.3125 C-3.43573397 5.72442822 -2.62356929 4.16596012 -1 1 C-0.67 0.67 -0.34 0.34 0 0 Z " fill="#1E5549" transform="translate(184,166)"/>
<path d="M0 0 C2 2 2 2 2.5 4.0625 C2.665 4.701875 2.83 5.34125 3 6 C3.66 6.33 4.32 6.66 5 7 C5 7.66 5 8.32 5 9 C5.8353125 9.1546875 5.8353125 9.1546875 6.6875 9.3125 C9.4769101 10.14178408 11.6139064 11.34299056 14 13 C14 13.66 14 14.32 14 15 C8.97830752 13.22763795 3.10501432 10.48502069 0 6 C-0.1875 2.8125 -0.1875 2.8125 0 0 Z " fill="#255A6B" transform="translate(75,165)"/>
<path d="M0 0 C0.99 0.33 1.98 0.66 3 1 C2.34 1.66 1.68 2.32 1 3 C0.71397838 7.14509433 0.71397838 7.14509433 2 11 C2.039992 12.99960012 2.04346799 15.00047242 2 17 C1.01 17.33 0.02 17.66 -1 18 C-1.66 16.68 -2.32 15.36 -3 14 C-2.01 14 -1.02 14 0 14 C-0.33 13.34 -0.66 12.68 -1 12 C-1.09584979 10.1478437 -1.12983606 8.29212847 -1.125 6.4375 C-1.12757812 5.44621094 -1.13015625 4.45492187 -1.1328125 3.43359375 C-1 1 -1 1 0 0 Z " fill="#C8DDDB" transform="translate(39,119)"/>
<path d="M0 0 C0 0.66 0 1.32 0 2 C-3.67452438 4.8394052 -5.26886581 6 -10 6 C-10.33 7.32 -10.66 8.64 -11 10 C-12.32 9.34 -13.64 8.68 -15 8 C-12.8782637 6.66121428 -10.75294812 5.32884524 -8.625 4 C-8.02171875 3.6184375 -7.4184375 3.236875 -6.796875 2.84375 C-2.2265625 0 -2.2265625 0 0 0 Z " fill="#A7CECC" transform="translate(98,142)"/>
<path d="M0 0 C1.33998047 0.06960937 1.33998047 0.06960937 2.70703125 0.140625 C3.60808594 0.17671875 4.50914063 0.2128125 5.4375 0.25 C6.46810547 0.31960937 6.46810547 0.31960937 7.51953125 0.390625 C7.51953125 1.380625 7.51953125 2.370625 7.51953125 3.390625 C6.77703125 3.184375 6.03453125 2.978125 5.26953125 2.765625 C0.10988583 2.06203699 -3.34524145 5.57115184 -7.48046875 8.390625 C-3.86760467 0.6090716 -3.86760467 0.6090716 0 0 Z " fill="#0F5E7A" transform="translate(27.48046875,131.609375)"/>
<path d="M0 0 C1.051875 0.495 1.051875 0.495 2.125 1 C6.15681285 2.40236969 9.39897049 2.67411769 13.375 1 C14.179375 0.505 14.179375 0.505 15 0 C14.67 1.32 14.34 2.64 14 4 C11.18759885 4.9697935 8.92781571 5.74814488 6 6 C2.5 4.25 2.5 4.25 0 2 C0 1.34 0 0.68 0 0 Z " fill="#ABBEC2" transform="translate(112,195)"/>
<path d="M0 0 C0.66 0.33 1.32 0.66 2 1 C1.21753906 1.56589844 0.43507812 2.13179688 -0.37109375 2.71484375 C-1.88896484 3.81505859 -1.88896484 3.81505859 -3.4375 4.9375 C-4.44683594 5.66839844 -5.45617187 6.39929688 -6.49609375 7.15234375 C-8.82292608 8.77321885 -8.82292608 8.77321885 -10 10 C-11.66617115 10.04063832 -13.33388095 10.042721 -15 10 C-12.38221206 7.0447272 -9.32416665 5.24167273 -5.9375 3.25 C-4.87402344 2.61578125 -3.81054688 1.9815625 -2.71484375 1.328125 C-1.81894531 0.88984375 -0.92304688 0.4515625 0 0 Z " fill="#3C7967" transform="translate(154,116)"/>
<path d="M0 0 C1.17046875 0.11085938 2.3409375 0.22171875 3.546875 0.3359375 C4.43890625 0.43132812 5.3309375 0.52671875 6.25 0.625 C6.25 1.285 6.25 1.945 6.25 2.625 C5.18072266 2.55539063 5.18072266 2.55539063 4.08984375 2.484375 C-2.59940504 2.23229025 -6.22637233 2.86423222 -11.75 6.625 C-12.41 6.625 -13.07 6.625 -13.75 6.625 C-13.75 4.625 -13.75 4.625 -12.5 3.125 C-8.34529977 -0.43617163 -5.41848647 -0.54184865 0 0 Z " fill="#ACD0D5" transform="translate(222.75,120.375)"/>
<path d="M0 0 C1.96534541 0.90153459 3.92210625 1.82180109 5.875 2.75 C7.51082031 3.51570313 7.51082031 3.51570313 9.1796875 4.296875 C12.04202519 6.02537809 12.93521458 6.89999181 14 10 C13.46890625 9.72285156 12.9378125 9.44570312 12.390625 9.16015625 C11.68421875 8.79792969 10.9778125 8.43570313 10.25 8.0625 C9.55390625 7.70285156 8.8578125 7.34320313 8.140625 6.97265625 C6.05932008 5.90810866 6.05932008 5.90810866 3.859375 5.68359375 C2 5 2 5 0.75 2.4375 C0.5025 1.633125 0.255 0.82875 0 0 Z " fill="#65B793" transform="translate(160,70)"/>
<path d="M0 0 C0.66 1.65 1.32 3.3 2 5 C1.13375 4.7525 0.2675 4.505 -0.625 4.25 C-5.00054583 3.92588549 -6.50961591 5.51794909 -10 8 C-10.99 7.67 -11.98 7.34 -13 7 C-12.67 6.34 -12.34 5.68 -12 5 C-9.6859378 4.26924352 -7.35171131 3.59861742 -5 3 C-5 2.34 -5 1.68 -5 1 C-3 0 -3 0 0 0 Z " fill="#BDD1D8" transform="translate(125,132)"/>
<path d="M0 0 C8.19256018 -0.4726477 8.19256018 -0.4726477 11.5625 1.5 C12.036875 1.995 12.51125 2.49 13 3 C12.67 3.66 12.34 4.32 12 5 C11.29875 4.67 10.5975 4.34 9.875 4 C6.70893872 2.89876129 4.32935296 2.77804314 1 3 C0.01 3.495 0.01 3.495 -1 4 C-0.67 2.68 -0.34 1.36 0 0 Z " fill="#165065" transform="translate(199,95)"/>
<path d="M0 0 C0.33 0.99 0.66 1.98 1 3 C-1.21368294 5.21368294 -2.93016625 6.86552921 -6.11328125 7.265625 C-8.07746787 7.25166986 -10.0402625 7.13286356 -12 7 C-12 6.34 -12 5.68 -12 5 C-10.88625 4.87625 -9.7725 4.7525 -8.625 4.625 C-4.96896323 4.3534187 -4.96896323 4.3534187 -3 2 C-2.01 2 -1.02 2 0 2 C0 1.34 0 0.68 0 0 Z " fill="#1E8186" transform="translate(64,163)"/>
<path d="M0 0 C-0.33 0.66 -0.66 1.32 -1 2 C-0.34 2.33 0.32 2.66 1 3 C0.26394531 2.98839844 -0.47210938 2.97679687 -1.23046875 2.96484375 C-2.20628906 2.95582031 -3.18210937 2.94679687 -4.1875 2.9375 C-5.15042969 2.92589844 -6.11335938 2.91429687 -7.10546875 2.90234375 C-9.85576513 2.99513378 -12.32479591 3.37888315 -15 4 C-11.00296185 0.1278693 -5.49952171 -2.74976086 0 0 Z " fill="#D5E2E7" transform="translate(34,128)"/>
<path d="M0 0 C-0.61488281 0.26554687 -1.22976562 0.53109375 -1.86328125 0.8046875 C-2.67152344 1.15789062 -3.47976562 1.51109375 -4.3125 1.875 C-5.11300781 2.22304687 -5.91351563 2.57109375 -6.73828125 2.9296875 C-9.1961834 4.02571894 -9.1961834 4.02571894 -12 6 C-13.32 6 -14.64 6 -16 6 C-15.67 5.01 -15.34 4.02 -15 3 C-11.9375 1.8125 -11.9375 1.8125 -9 1 C-9 0.67 -9 0.34 -9 0 C-5.5657338 -0.85856655 -3.38317487 -0.97591583 0 0 Z " fill="#27C2BF" transform="translate(116,73)"/>
<path d="M0 0 C0.99 0 1.98 0 3 0 C2.38722388 2.96175123 1.74627478 4.38058783 0 7 C0.66 7 1.32 7 2 7 C1.67 7.66 1.34 8.32 1 9 C-0.65 8.01 -2.3 7.02 -4 6 C-3.34 5.67 -2.68 5.34 -2 5 C-1.6278958 3.67696283 -1.29369827 2.34262065 -1 1 C-0.67 0.67 -0.34 0.34 0 0 Z " fill="#19A9AA" transform="translate(198,147)"/>
<path d="M0 0 C0 0.99 0 1.98 0 3 C-1.98 3.99 -3.96 4.98 -6 6 C-6.33 5.34 -6.66 4.68 -7 4 C-7.99 3.34 -8.98 2.68 -10 2 C-3.375 -1.125 -3.375 -1.125 0 0 Z " fill="#A7C1C8" transform="translate(107,60)"/>
<path d="M0 0 C2.475 0.99 2.475 0.99 5 2 C3.02 2.99 3.02 2.99 1 4 C1 5.98 1 7.96 1 10 C0.34 10 -0.32 10 -1 10 C-1.02689216 8.52093108 -1.04634621 7.04172517 -1.0625 5.5625 C-1.07410156 4.73878906 -1.08570313 3.91507813 -1.09765625 3.06640625 C-1 1 -1 1 0 0 Z " fill="#45DDC9" transform="translate(35,48)"/>
<path d="M0 0 C0.598125 0.226875 1.19625 0.45375 1.8125 0.6875 C1.1628125 1.2753125 1.1628125 1.2753125 0.5 1.875 C-1.44624318 3.96540934 -2.73187028 6.23939548 -4.1875 8.6875 C-4.5175 8.6875 -4.8475 8.6875 -5.1875 8.6875 C-5.55003776 3.24943353 -5.55003776 3.24943353 -3.9375 0.75 C-2.1875 -0.3125 -2.1875 -0.3125 0 0 Z " fill="#14888E" transform="translate(198.1875,135.3125)"/>
<path d="M0 0 C1.5471219 2.4571936 2.04484402 3.632279 1.6875 6.5625 C1.17232879 8.38901612 0.60013019 10.19960942 0 12 C-1.65 12 -3.3 12 -5 12 C-4.360625 11.319375 -3.72125 10.63875 -3.0625 9.9375 C-0.6741507 6.53591161 -0.32122847 4.09566299 0 0 Z " fill="#ACD3CB" transform="translate(58,123)"/>
<path d="M0 0 C1.32 0.33 2.64 0.66 4 1 C3.67 2.65 3.34 4.3 3 6 C2.01 6 1.02 6 0 6 C0 6.66 0 7.32 0 8 C-0.99 7.67 -1.98 7.34 -3 7 C-2.34 6.34 -1.68 5.68 -1 5 C-0.35232207 2.42938689 -0.35232207 2.42938689 0 0 Z " fill="#0BA9AC" transform="translate(233,132)"/>
<path d="M0 0 C0.66 0.33 1.32 0.66 2 1 C0.40412987 4.19174026 -2.80631026 5.63788802 -6 7 C-7.32 7 -8.64 7 -10 7 C-7.20283196 3.70921407 -3.80471422 1.93694542 0 0 Z " fill="#43846A" transform="translate(181,100)"/>
<path d="M0 0 C0.66 0.33 1.32 0.66 2 1 C2.875 4.25 2.875 4.25 3 8 C1.1875 10.9375 1.1875 10.9375 -1 13 C-1.66 13 -2.32 13 -3 13 C-3 12.34 -3 11.68 -3 11 C-2.34 10.67 -1.68 10.34 -1 10 C-0.53248212 7.64400765 -0.53248212 7.64400765 -0.375 4.9375 C-0.30023438 4.01839844 -0.22546875 3.09929687 -0.1484375 2.15234375 C-0.09945312 1.44207031 -0.05046875 0.73179688 0 0 Z " fill="#C1D2CB" transform="translate(181,83)"/>
<path d="M0 0 C0.66 0.33 1.32 0.66 2 1 C0.8125 3.5 0.8125 3.5 -1 6 C-3.5625 6.1875 -3.5625 6.1875 -6 6 C-6.66 6.66 -7.32 7.32 -8 8 C-7.9375 6.25 -7.9375 6.25 -7 4 C-4.74876994 2.27481113 -2.59865097 1.23093993 0 0 Z " fill="#169E9A" transform="translate(29,70)"/>
<path d="M0 0 C0.66 0.33 1.32 0.66 2 1 C-3.16923077 6.90769231 -3.16923077 6.90769231 -7.375 7.375 C-8.674375 7.189375 -8.674375 7.189375 -10 7 C-10 6.34 -10 5.68 -10 5 C-8.27473958 4.28385417 -6.54947917 3.56770833 -4.82421875 2.8515625 C-2.73466068 1.93193308 -2.73466068 1.93193308 0 0 Z " fill="#B3BFBF" transform="translate(79,93)"/>
<path d="M0 0 C-1.2065625 0.8971875 -1.2065625 0.8971875 -2.4375 1.8125 C-5.22327984 3.80947276 -5.22327984 3.80947276 -6 7 C-6.99 7 -7.98 7 -9 7 C-8.8125 4.6875 -8.8125 4.6875 -8 2 C-3.84375 -1.28125 -3.84375 -1.28125 0 0 Z " fill="#1D8D91" transform="translate(47,38)"/>
<path d="M0 0 C0.66 0.33 1.32 0.66 2 1 C-2.67460782 5.55774263 -5.48277089 6.66290194 -12 7 C-11.13761719 6.58814453 -11.13761719 6.58814453 -10.2578125 6.16796875 C-7.29160329 4.63354565 -4.57692421 2.78265678 -1.8046875 0.92578125 C-1.20914063 0.62027344 -0.61359375 0.31476563 0 0 Z " fill="#A6BCBA" transform="translate(151,191)"/>
<path d="M0 0 C-0.33 1.32 -0.66 2.64 -1 4 C-4.75 5.125 -4.75 5.125 -7 4 C-7 3.01 -7 2.02 -7 1 C-2.25 0 -2.25 0 0 0 Z " fill="#34B99A" transform="translate(28,63)"/>
<path d="M0 0 C0.33 0 0.66 0 1 0 C1 5.94 1 11.88 1 18 C-0.98 18.99 -0.98 18.99 -3 20 C-2.505 18.515 -2.505 18.515 -2 17 C-1.34 17 -0.68 17 0 17 C0 11.39 0 5.78 0 0 Z " fill="#B4DFDD" transform="translate(33,49)"/>
<path d="M0 0 C0.99 0.33 1.98 0.66 3 1 C2.01 1.33 1.02 1.66 0 2 C-0.34342449 3.33076989 -0.67619874 4.66431979 -1 6 C-1.99 6.66 -2.98 7.32 -4 8 C-4.33 7.01 -4.66 6.02 -5 5 C-3.35 3.35 -1.7 1.7 0 0 Z " fill="#CDCFD2" transform="translate(74,158)"/>
<path d="M0 0 C0.33 0 0.66 0 1 0 C1 2.97 1 5.94 1 9 C-0.32 9.33 -1.64 9.66 -3 10 C-3.33 10.99 -3.66 11.98 -4 13 C-4.99 12.34 -5.98 11.68 -7 11 C-6.21625 10.67 -5.4325 10.34 -4.625 10 C-0.84142777 7.1172783 -0.83052742 4.60565207 0 0 Z " fill="#AFC6CC" transform="translate(38,138)"/>
<path d="M0 0 C-3.63 1.98 -7.26 3.96 -11 6 C-10.67 4.68 -10.34 3.36 -10 2 C-8.68 2 -7.36 2 -6 2 C-6 1.34 -6 0.68 -6 0 C-3 -1 -3 -1 0 0 Z " fill="#B8E1E0" transform="translate(61,139)"/>
<path d="M0 0 C1.32 0 2.64 0 4 0 C6.48887372 4.68493876 5.85687773 7.9444214 5 13 C4.67 13 4.34 13 4 13 C3.96261719 12.39671875 3.92523438 11.7934375 3.88671875 11.171875 C3.43746659 5.00632228 3.43746659 5.00632228 0 0 Z " fill="#B3CCCF" transform="translate(235,127)"/>
<path d="M0 0 C2.475 0.99 2.475 0.99 5 2 C5 2.66 5 3.32 5 4 C5.66 4 6.32 4 7 4 C7.125 6.875 7.125 6.875 7 10 C6.34 10.66 5.68 11.32 5 12 C4.9175 10.948125 4.835 9.89625 4.75 8.8125 C3.94679238 4.72952791 2.80665291 2.9877273 0 0 Z " fill="#C1DCDA" transform="translate(112,119)"/>
<path d="M0 0 C1.32 0.33 2.64 0.66 4 1 C1.36 2.98 -1.28 4.96 -4 7 C-4.66 6.67 -5.32 6.34 -6 6 C-5.09972412 4.96468274 -4.17906965 3.94705835 -3.25 2.9375 C-2.48429687 2.08478516 -2.48429687 2.08478516 -1.703125 1.21484375 C-1.14109375 0.81394531 -0.5790625 0.41304688 0 0 Z M-9 7 C-6 8 -6 8 -6 8 Z " fill="#C5CCCC" transform="translate(81,93)"/>
<path d="M0 0 C3.63 1.98 7.26 3.96 11 6 C8 7 8 7 5.95703125 6.22265625 C5.24933594 5.83980469 4.54164062 5.45695313 3.8125 5.0625 C3.09707031 4.68222656 2.38164063 4.30195313 1.64453125 3.91015625 C1.10183594 3.60980469 0.55914062 3.30945313 0 3 C0 2.01 0 1.02 0 0 Z " fill="#B2C5CA" transform="translate(101,188)"/>
<path d="M0 0 C0 0.66 0 1.32 0 2 C-1.32 2 -2.64 2 -4 2 C-4 2.66 -4 3.32 -4 4 C-6.31 4 -8.62 4 -11 4 C-9.07392696 1.53890667 -8.06050223 1.01358213 -4.9375 0.3125 C-2 0 -2 0 0 0 Z " fill="#91C9C7" transform="translate(231,146)"/>
<path d="M0 0 C0.33 0 0.66 0 1 0 C1.1080023 2.10304477 1.18558987 4.20766909 1.25 6.3125 C1.29640625 7.48425781 1.3428125 8.65601562 1.390625 9.86328125 C1 13 1 13 -1.015625 14.91796875 C-1.67046875 15.27503906 -2.3253125 15.63210937 -3 16 C-3.66 15.67 -4.32 15.34 -5 15 C-4.01 14.67 -3.02 14.34 -2 14 C-0.99740493 10.99221479 -0.69685358 8.46179353 -0.4375 5.3125 C-0.35371094 4.31863281 -0.26992187 3.32476562 -0.18359375 2.30078125 C-0.12300781 1.54152344 -0.06242188 0.78226562 0 0 Z " fill="#96BBC6" transform="translate(215,103)"/>
<path d="M0 0 C0.66 0.33 1.32 0.66 2 1 C-1.67832102 5.0655127 -5.56866979 7.22409568 -11 8 C-8.83385197 5.69125289 -6.60793392 3.94709819 -3.9375 2.25 C-2.89916016 1.57710938 -2.89916016 1.57710938 -1.83984375 0.890625 C-1.23269531 0.59671875 -0.62554687 0.3028125 0 0 Z " fill="#47876E" transform="translate(167,108)"/>
<path d="M0 0 C0.99 0.33 1.98 0.66 3 1 C-1.75 6.75 -1.75 6.75 -4 9 C-4.25 6.75 -4.25 6.75 -4 4 C-2 1.6875 -2 1.6875 0 0 Z " fill="#238F8C" transform="translate(69,156)"/>
<path d="M0 0 C0.66 0 1.32 0 2 0 C0.549046 3.82524236 -1.38181932 5.19090966 -5 7 C-5.66 7 -6.32 7 -7 7 C-6.3125 5.0625 -6.3125 5.0625 -5 3 C-2.375 2.25 -2.375 2.25 0 2 C0 1.34 0 0.68 0 0 Z " fill="#3EB6A3" transform="translate(111,130)"/>
<path d="M0 0 C-2.97 2.475 -2.97 2.475 -6 5 C-6.66 4.67 -7.32 4.34 -8 4 C-5.97675095 -0.48005146 -4.79569304 -1.43870791 0 0 Z " fill="#ACC4CD" transform="translate(212,120)"/>
<path d="M0 0 C0.33 0 0.66 0 1 0 C1 1.65 1 3.3 1 5 C1.66 5.33 2.32 5.66 3 6 C2 7 2 7 0.15234375 7.09765625 C-1.8984375 7.06510417 -3.94921875 7.03255208 -6 7 C-5.195625 6.401875 -4.39125 5.80375 -3.5625 5.1875 C-0.77672016 3.19052724 -0.77672016 3.19052724 0 0 Z " fill="#BACBCE" transform="translate(19,69)"/>
<path d="M0 0 C0.33 0 0.66 0 1 0 C1.13277344 0.68707031 1.26554688 1.37414062 1.40234375 2.08203125 C1.57894531 2.98308594 1.75554687 3.88414062 1.9375 4.8125 C2.11152344 5.70582031 2.28554687 6.59914062 2.46484375 7.51953125 C2.97741153 10.11397171 2.97741153 10.11397171 4 13 C3.01 13 2.02 13 1 13 C-0.32229189 10.35541621 -0.09677194 8.32238699 -0.0625 5.375 C-0.05347656 4.37210938 -0.04445312 3.36921875 -0.03515625 2.3359375 C-0.02355469 1.56507813 -0.01195312 0.79421875 0 0 Z " fill="#184944" transform="translate(134,182)"/>
<path d="M0 0 C0.99 0.495 0.99 0.495 2 1 C1.01 1.495 1.01 1.495 0 2 C0 1.34 0 0.68 0 0 Z M-6 2 C-3.125 1.8125 -3.125 1.8125 0 2 C0.66 2.99 1.32 3.98 2 5 C1.01 5 0.02 5 -1 5 C-1 4.34 -1 3.68 -1 3 C-1.66 3 -2.32 3 -3 3 C-3 3.66 -3 4.32 -3 5 C-4.32 4.67 -5.64 4.34 -7 4 C-6.67 3.34 -6.34 2.68 -6 2 Z " fill="#C4CACA" transform="translate(210,157)"/>
<path d="M0 0 C0 0.99 0 1.98 0 3 C-2.64 3.33 -5.28 3.66 -8 4 C-8 3.34 -8 2.68 -8 2 C-4.91190305 0.23537317 -3.76687864 0 0 0 Z " fill="#08A3A6" transform="translate(118,66)"/>
<path d="M0 0 C1.4540625 0.0309375 1.4540625 0.0309375 2.9375 0.0625 C1.9475 0.5575 1.9475 0.5575 0.9375 1.0625 C0.9375 1.7225 0.9375 2.3825 0.9375 3.0625 C-0.0525 3.3925 -1.0425 3.7225 -2.0625 4.0625 C-2.7225 5.0525 -3.3825 6.0425 -4.0625 7.0625 C-4.10504356 5.06295254 -4.10330783 3.06208364 -4.0625 1.0625 C-3.0625 0.0625 -3.0625 0.0625 0 0 Z " fill="#4CC8A8" transform="translate(24.0625,58.9375)"/>
<path d="M0 0 C-0.66 1.65 -1.32 3.3 -2 5 C-3.32 5 -4.64 5 -6 5 C-3.74193548 0 -3.74193548 0 0 0 Z " fill="#B8CED1" transform="translate(83,151)"/>
<path d="M0 0 C0.33 1.32 0.66 2.64 1 4 C-0.32 3.67 -1.64 3.34 -3 3 C-2.01 2.01 -1.02 1.02 0 0 Z M-4 4 C-3.34 4.33 -2.68 4.66 -2 5 C-2 5.66 -2 6.32 -2 7 C-3.32 6.67 -4.64 6.34 -6 6 C-5.34 5.34 -4.68 4.68 -4 4 Z " fill="#CFD3D7" transform="translate(115,133)"/>
<path d="M0 0 C-4.95 2.475 -4.95 2.475 -10 5 C-9.34 3.35 -8.68 1.7 -8 0 C-4.71071522 -1.1807689 -3.34715311 -1.1157177 0 0 Z " fill="#B1D4DD" transform="translate(209,128)"/>
<path d="M0 0 C2.31 0.33 4.62 0.66 7 1 C7.66 2.98 8.32 4.96 9 7 C7.4972763 6.02501855 5.99788037 5.04490611 4.5 4.0625 C3.6646875 3.51722656 2.829375 2.97195312 1.96875 2.41015625 C1.3190625 1.94480469 0.669375 1.47945313 0 1 C0 0.67 0 0.34 0 0 Z " fill="#C0DFD2" transform="translate(172,76)"/>
<path d="M0 0 C1.65 0.99 3.3 1.98 5 3 C4.625 5.4375 4.625 5.4375 4 8 C3.01 8.495 3.01 8.495 2 9 C2.04125 8.2575 2.0825 7.515 2.125 6.75 C1.99601866 3.91241048 1.42948778 2.41226062 0 0 Z " fill="#40C0AD" transform="translate(53,58)"/>
<path d="M0 0 C0.33 0 0.66 0 1 0 C1.1953125 6.0546875 1.1953125 6.0546875 1 8 C0.34 8.66 -0.32 9.32 -1 10 C-3.125 9.625 -3.125 9.625 -5 9 C-4.0409375 8.443125 -4.0409375 8.443125 -3.0625 7.875 C-0.36141928 5.41947207 -0.31592995 3.55421195 0 0 Z " fill="#A5CFCC" transform="translate(116,124)"/>
<path d="M0 0 C2 3 2 3 2 5 C3.65 5 5.3 5 7 5 C6.67 5.66 6.34 6.32 6 7 C4.33388095 7.042721 2.66617115 7.04063832 1 7 C0 6 0 6 -0.0625 2.9375 C-0.041875 1.968125 -0.02125 0.99875 0 0 Z " fill="#175669" transform="translate(193,118)"/>
<path d="M0 0 C0.598125 0.20625 1.19625 0.4125 1.8125 0.625 C0.5 2.125 0.5 2.125 -1.1875 3.625 C-2.1775 3.625 -3.1675 3.625 -4.1875 3.625 C-4.5175 4.615 -4.8475 5.605 -5.1875 6.625 C-5.375 4.25 -5.375 4.25 -5.1875 1.625 C-2.1875 -0.375 -2.1875 -0.375 0 0 Z " fill="#2F738C" transform="translate(14.1875,65.375)"/>
<path d="M0 0 C0.66 0.33 1.32 0.66 2 1 C0.35 2.65 -1.3 4.3 -3 6 C-3.99 5.34 -4.98 4.68 -6 4 C-4.02 2.68 -2.04 1.36 0 0 Z " fill="#205D72" transform="translate(85,157)"/>
<path d="M0 0 C0.66 0.33 1.32 0.66 2 1 C0.35 2.65 -1.3 4.3 -3 6 C-3.99 5.34 -4.98 4.68 -6 4 C-4.02 2.68 -2.04 1.36 0 0 Z " fill="#1D5D7A" transform="translate(108,143)"/>
<path d="M0 0 C0.33 0 0.66 0 1 0 C1 1.65 1 3.3 1 5 C-0.98 5.99 -0.98 5.99 -3 7 C-3 5.68 -3 4.36 -3 3 C-2.34 3 -1.68 3 -1 3 C-0.67 2.01 -0.34 1.02 0 0 Z " fill="#39B9B5" transform="translate(237,136)"/>
<path d="M0 0 C1.11375 0.185625 2.2275 0.37125 3.375 0.5625 C6.82568861 1.31680657 6.82568861 1.31680657 9 0 C8.67 1.32 8.34 2.64 8 4 C2.25 3.125 2.25 3.125 0 2 C0 1.34 0 0.68 0 0 Z " fill="#B9C7C8" transform="translate(55,97)"/>
<path d="M0 0 C1.98 0 3.96 0 6 0 C3.38485683 2.12038635 0.80362384 4.13091744 -2 6 C-1.34 4.02 -0.68 2.04 0 0 Z " fill="#BEDEDF" transform="translate(43,145)"/>
<path d="M0 0 C0.99 0.33 1.98 0.66 3 1 C2.34 1.66 1.68 2.32 1 3 C0.53993654 5.20250992 0.53993654 5.20250992 0.375 7.625 C0.30023438 8.44226563 0.22546875 9.25953125 0.1484375 10.1015625 C0.07496094 11.04128906 0.07496094 11.04128906 0 12 C-0.33 12 -0.66 12 -1 12 C-1.02687279 10.18757948 -1.04633715 8.37504767 -1.0625 6.5625 C-1.07410156 5.55316406 -1.08570313 4.54382813 -1.09765625 3.50390625 C-1 1 -1 1 0 0 Z " fill="#CFE8E2" transform="translate(39,119)"/>
<path d="M0 0 C0.99 0.66 1.98 1.32 3 2 C2.67 3.32 2.34 4.64 2 6 C0.68 5.67 -0.64 5.34 -2 5 C-1.34 3.35 -0.68 1.7 0 0 Z " fill="#27C3AA" transform="translate(112,122)"/>
<path d="M0 0 C0.6875 2.0625 0.6875 2.0625 1 4 C-1.91517292 2.92598892 -3.77810176 2.22189824 -6 0 C-3 -1 -3 -1 0 0 Z " fill="#CAE4E1" transform="translate(43,48)"/>
</svg>
