<?xml version="1.0" encoding="utf-8" standalone="yes"?>
<!DOCTYPE svg PUBLIC "-//W3C//DTD SVG 1.1//EN" "http://www.w3.org/Graphics/SVG/1.1/DTD/svg11.dtd">
<svg width="603" height="482" viewBox="0 0 603 482" style="fill:none;stroke:none;fill-rule:evenodd;clip-rule:evenodd;stroke-linecap:round;stroke-linejoin:round;stroke-miterlimit:1.5;" version="1.1" xmlns="http://www.w3.org/2000/svg" xmlns:xlink="http://www.w3.org/1999/xlink"><style class="text-font-style fontImports" data-font-family="Shantell Sans">@import url('https://fonts.googleapis.com/css2?family=Shantell+Sans:wght@300..800&amp;display=block');</style><rect id="" x="0" y="0" width="602.014" height="481.941" style="fill: #ffffff;"></rect><g id="items" style="isolation: isolate"><g id="blend" style="mix-blend-mode: normal"><g id="g-root-tf_1430f6tscn7y8-fill" data-item-order="-287971" transform="translate(-9, -9)"><g id="tf_1430f6tscn7y8-fill" stroke="none" fill="#ffffff"><g><path d="M 10 10L 610.01 10L 610.01 489.94L 10 489.94Z"></path></g></g></g><g id="g-root-0.cr-big_cr_1q88fdxsc6f4d-fill" data-item-order="-94987" transform="translate(243.0068359375, 183)"><g id="0.cr-big_cr_1q88fdxsc6f4d-fill" stroke="none" fill="#ebebeb"><g><path d="M 10 70C 10.000003 103.137088 36.862918 130.000003 70.000003 130.000003C 103.137088 130.000003 130.000003 103.137088 130.000003 70.000003C 130.000003 36.862918 103.137088 10.000003 70.000003 10.000003C 36.862918 10.000003 10.000003 36.862918 10.000003 70.000003"></path></g></g></g><g id="g-root-3.cu_sy_1cxee3psc6dji-fill" data-item-order="-94983" transform="translate(158.98345947265625, 98.982666015625)"><g id="3.cu_sy_1cxee3psc6dji-fill" stroke="none" fill="#e9ffb9"><g><path d="M 154.023015 92.4848C 154.023015 93.3138 153.350015 93.9836 152.522015 94.0037C 142.815015 94.2385 133.027015 96.838 124.026015 102.0346C 95.328715 118.603 85.496215 155.299 102.064815 183.996C 102.069615 184.005 102.066715 184.015 102.058415 184.02L 75.736015 199.217C 74.449915 199.96 74.868315 202.331 76.188915 203.01C 78.167515 204.028 79.886415 205.608 81.081615 207.678C 84.395315 213.417 82.428815 220.756 76.689315 224.07C 70.949815 227.384 63.610715 225.417 60.297015 219.678C 59.101815 217.608 58.593515 215.329 58.701415 213.107C 58.773415 211.624 56.928915 210.076 55.642815 210.818L 30.615415 225.268C 29.898015 225.682 28.976415 225.43 28.569615 224.709C -10.147885 156.032 13.585515 68.823 82.024115 29.3099C 104.278615 16.4613 128.537015 10.228 152.523015 10.000068C 153.351015 9.9922 154.021015 10.6644 154.021015 11.4922L 154.022015 40.4161C 154.022015 41.9009 151.760015 42.7243 150.511015 41.9204C 148.640015 40.716 146.414015 40.0173 144.023015 40.0173C 137.396015 40.0173 132.023015 45.3898 132.023015 52.0173C 132.023015 58.6447 137.396015 64.0173 144.023015 64.0173C 146.414015 64.0173 148.641015 63.3184 150.511015 62.1139C 151.760015 61.31 154.022015 62.1332 154.022015 63.6181L 154.023015 92.4848Z"></path></g></g></g><g id="g-root-2.cu_sy_18hkvz9sc6ebr-fill" data-item-order="-94979" transform="translate(178.829833984375, 272.99969482421875)"><g id="2.cu_sy_18hkvz9sc6ebr-fill" stroke="none" fill="#c8ffe5"><g><path d="M 80.889415 10.76753C 81.607315 10.35303 82.523615 10.60043 82.955315 11.30803C 88.012015 19.59693 95.157115 26.77363 104.158015 31.97023C 132.856015 48.53883 169.551015 38.70633 186.120015 10.00873C 186.124015 10.00043 186.135015 9.99753 186.143015 10.00233L 212.435015 25.18173C 213.725015 25.92673 215.585015 24.36023 215.510015 22.87213C 215.398015 20.64383 215.906015 18.35853 217.105015 16.28253C 220.419015 10.54303 227.758015 8.57653 233.497015 11.89023C 239.237015 15.20393 241.203015 22.54303 237.889015 28.28253C 236.691015 30.35853 234.966015 31.94093 232.980015 32.95833C 231.654015 33.63783 231.227015 36.03143 232.517015 36.77643L 257.586015 51.24993C 258.304015 51.66423 258.547015 52.58803 258.125015 53.30113C 218.008015 121.17003 130.616015 144.22103 62.177715 104.70763C 39.923215 91.85893 22.395715 73.96703 10.205515 53.30893C 9.784815 52.59593 10.031615 51.67913 10.748615 51.26513L 35.797115 36.80273C 37.083115 36.06023 38.927215 37.60773 38.855315 39.09083C 38.747515 41.31293 39.255815 43.59083 40.450915 45.66073C 43.764615 51.40023 51.103715 53.36673 56.843215 50.05303C 62.582715 46.73933 64.549215 39.40023 61.235515 33.66073C 60.040415 31.59073 58.321615 30.01143 56.343115 28.99373C 55.022715 28.31443 54.604615 25.94373 55.890515 25.20133L 80.889415 10.76753Z"></path></g></g></g><g id="g-root-1.cu_sy_v6qup1sc6cqw-fill" data-item-order="-94975" transform="translate(280.96484375, 99.0076904296875)"><g id="1.cu_sy_v6qup1sc6cqw-fill" stroke="none" fill="#d1f4ff"><g><path d="M 85.3315 184.758C 84.6136 184.343 84.3697 183.426 84.7667 182.698C 89.4167 174.175 92.0593 164.398 92.0593 154.005C 92.0593 120.868 65.1964 94.005 32.0593 94.005C 32.0497 94.005 32.0419 93.9972 32.0419 93.9876L 32.0419 63.6288C 32.0419 62.1388 29.7555 61.3116 28.5041 62.1203C 26.6301 63.3312 24.3971 64.0341 22 64.0341C 15.3726 64.0341 10 58.6615 10 52.0341C 10 45.4067 15.3726 40.0341 22 40.0341C 24.3971 40.0341 26.6301 40.737 28.5041 41.9479C 29.7555 42.7565 32.0419 41.9294 32.0419 40.4394L 32.0419 11.4924C 32.0419 10.6639 32.7205 9.9916 33.5488 10.00008C 112.384 10.8083 176.042 74.9663 176.042 153.992C 176.042 179.69 169.311 203.815 157.515 224.701C 157.108 225.422 156.191 225.666 155.474 225.253L 130.425 210.791C 129.139 210.049 129.557 207.678 130.878 206.999C 132.856 205.981 134.575 204.402 135.77 202.332C 139.083 196.592 137.117 189.253 131.377 185.939C 125.638 182.626 118.299 184.592 114.985 190.332C 113.79 192.402 113.282 194.68 113.389 196.902C 113.461 198.385 111.617 199.933 110.331 199.191L 85.3315 184.758Z"></path></g></g></g><g id="g-root-tx_streamli_qqxcklsc6dj5-fill" data-item-order="0" transform="translate(87.0068359375, 27)"><g id="tx_streamli_qqxcklsc6dj5-fill" stroke="none" fill="#484848"><g><text style="font: bold 25px &quot;Shantell Sans&quot;, cursive; white-space: pre;" font-weight="bold" font-size="25px" font-family="'Shantell Sans', cursive"><tspan x="13.82" y="44.5" dominant-baseline="ideographic">Streamlining AI with Edge Tools</tspan></text></g></g></g><g id="g-root-tx_aiapplic_1hdugh1sc7sas-fill" data-item-order="0" transform="translate(3, 146.9849853515625)"><g id="tx_aiapplic_1hdugh1sc7sas-fill" stroke="none" fill="#484848"><g><text style="font: 20px &quot;Shantell Sans&quot;, cursive; white-space: pre;" font-size="20px" font-family="'Shantell Sans', cursive"><tspan x="14.3" y="35.5" dominant-baseline="ideographic">AI Applications</tspan></text></g></g></g><g id="g-root-tx_aihardwa_1hfpvqdsc7rb6-fill" data-item-order="0" transform="translate(447.013671875, 147.011962890625)"><g id="tx_aihardwa_1hfpvqdsc7rb6-fill" stroke="none" fill="#484848"><g><text style="font: 20px &quot;Shantell Sans&quot;, cursive; white-space: pre;" font-size="20px" font-family="'Shantell Sans', cursive"><tspan x="12" y="35.5" dominant-baseline="ideographic">AI Hardware</tspan></text></g></g></g><g id="g-root-clou_dhytphsc7sw5-fill" data-item-order="0" transform="translate(190.643310546875, 167.95379638671875)"></g><g id="g-root-micr_1cws06dsckglp-fill" data-item-order="0" transform="translate(367.37060546875, 167.95330810546875)"></g><g id="g-root-belt_dfgu79sc6f42-fill" data-item-order="0" transform="translate(267.0068359375, 206.99609375)"></g><g id="g-root-robo_93e9r9scdfrd-fill" data-item-order="0" transform="translate(279.007080078125, 321.003662109375)"></g><g id="g-root-tx_aimodels_hvwwklsc7t3j-fill" data-item-order="0" transform="translate(249.0068359375, 398.9405517578125)"><g id="tx_aimodels_hvwwklsc7t3j-fill" stroke="none" fill="#484848"><g><text style="font: 20px &quot;Shantell Sans&quot;, cursive; white-space: pre;" font-size="20px" font-family="'Shantell Sans', cursive"><tspan x="12.7" y="35.5" dominant-baseline="ideographic">AI Models</tspan></text></g></g></g><g id="g-root-tf_1430f6tscn7y8-stroke" data-item-order="-287971" transform="translate(-9, -9)"></g><g id="g-root-0.cr-big_cr_1q88fdxsc6f4d-stroke" data-item-order="-94987" transform="translate(243.0068359375, 183)"><g id="0.cr-big_cr_1q88fdxsc6f4d-stroke" fill="none" stroke-linecap="round" stroke-linejoin="round" stroke-miterlimit="4" stroke="#ffffff" stroke-width="2"><g><path d="M 10 70C 10.000003 103.137088 36.862918 130.000003 70.000003 130.000003C 103.137088 130.000003 130.000003 103.137088 130.000003 70.000003C 130.000003 36.862918 103.137088 10.000003 70.000003 10.000003C 36.862918 10.000003 10.000003 36.862918 10.000003 70.000003"></path></g></g></g><g id="g-root-3.cu_sy_1cxee3psc6dji-stroke" data-item-order="-94983" transform="translate(158.98345947265625, 98.982666015625)"><g id="3.cu_sy_1cxee3psc6dji-stroke" fill="none" stroke-linecap="round" stroke-linejoin="round" stroke-miterlimit="4" stroke="#ffffff" stroke-width="2"><g><path d="M 154.022715 92.4848C 154.022715 93.3138 153.350315 93.9836 152.521615 94.0037C 142.814915 94.2385 133.027215 96.838 124.026315 102.0346C 95.328715 118.6032 85.496215 155.2986 102.064815 183.9962C 102.069615 184.0045 102.066715 184.0152 102.058415 184.02L 75.736015 199.2172C 74.449915 199.9597 74.868315 202.3312 76.188915 203.0105C 78.167515 204.0282 79.886415 205.6076 81.081615 207.6777C 84.395315 213.4172 82.428815 220.7563 76.689315 224.07C 70.949815 227.3837 63.610715 225.4172 60.297015 219.6777C 59.101815 217.6076 58.593515 215.3293 58.701415 213.1069C 58.773415 211.6236 56.928915 210.0755 55.642815 210.818L 30.615415 225.2676C 29.898015 225.6818 28.976415 225.4303 28.569615 224.7087C -10.147885 156.0315 13.585515 68.823 82.024115 29.3099C 104.278615 16.4613 128.537215 10.228 152.522815 10.0001C 153.350615 9.9922 154.021115 10.6644 154.021115 11.4922L 154.021715 40.4161C 154.021715 41.9009 151.759515 42.7243 150.511015 41.9204C 148.640515 40.716 146.413615 40.0173 144.023515 40.0173C 137.396015 40.0173 132.023515 45.3898 132.023515 52.0173C 132.023515 58.6447 137.396015 64.0173 144.023515 64.0173C 146.413715 64.0173 148.640815 63.3184 150.511415 62.1139C 151.759915 61.31 154.022115 62.1332 154.022115 63.6181L 154.022715 92.4848Z"></path></g></g></g><g id="g-root-2.cu_sy_18hkvz9sc6ebr-stroke" data-item-order="-94979" transform="translate(178.829833984375, 272.99969482421875)"><g id="2.cu_sy_18hkvz9sc6ebr-stroke" fill="none" stroke-linecap="round" stroke-linejoin="round" stroke-miterlimit="4" stroke="#ffffff" stroke-width="2"><g><path d="M 80.889415 10.76753C 81.607315 10.35303 82.523615 10.60043 82.955315 11.30803C 88.012015 19.59693 95.157115 26.77363 104.158015 31.97023C 132.855615 48.53883 169.551015 38.70633 186.119615 10.00873C 186.124415 10.00043 186.135015 9.99753 186.143415 10.00233L 212.434915 25.18173C 213.725215 25.92673 215.584715 24.36023 215.510115 22.87213C 215.398415 20.64383 215.906215 18.35853 217.104815 16.28253C 220.418515 10.54303 227.757615 8.57653 233.497115 11.89023C 239.236615 15.20393 241.203115 22.54303 237.889415 28.28253C 236.690815 30.35853 234.965615 31.94093 232.980015 32.95833C 231.653915 33.63783 231.227115 36.03143 232.517415 36.77643L 257.586315 51.24993C 258.303815 51.66423 258.546815 52.58803 258.125215 53.30113C 218.007815 121.17003 130.616315 144.22063 62.177715 104.70763C 39.923215 91.85893 22.395715 73.96703 10.205515 53.30893C 9.784815 52.59593 10.031615 51.67913 10.748615 51.26513L 35.797115 36.80273C 37.083115 36.06023 38.927215 37.60773 38.855315 39.09083C 38.747515 41.31293 39.255815 43.59083 40.450915 45.66073C 43.764615 51.40023 51.103715 53.36673 56.843215 50.05303C 62.582715 46.73933 64.549215 39.40023 61.235515 33.66073C 60.040415 31.59073 58.321615 30.01143 56.343115 28.99373C 55.022715 28.31443 54.604615 25.94373 55.890515 25.20133L 80.889415 10.76753Z"></path></g></g></g><g id="g-root-1.cu_sy_v6qup1sc6cqw-stroke" data-item-order="-94975" transform="translate(280.96484375, 99.0076904296875)"><g id="1.cu_sy_v6qup1sc6cqw-stroke" fill="none" stroke-linecap="round" stroke-linejoin="round" stroke-miterlimit="4" stroke="#ffffff" stroke-width="2"><g><path d="M 85.3315 184.7576C 84.6136 184.3431 84.3697 183.4259 84.7667 182.6982C 89.4167 174.1745 92.0593 164.3984 92.0593 154.005C 92.0593 120.8679 65.1964 94.005 32.0593 94.005C 32.0497 94.005 32.0419 93.9972 32.0419 93.9876L 32.0419 63.6288C 32.0419 62.1388 29.7555 61.3116 28.5041 62.1203C 26.6301 63.3312 24.3971 64.0341 22 64.0341C 15.3726 64.0341 10 58.6615 10 52.0341C 10 45.4067 15.3726 40.0341 22 40.0341C 24.3971 40.0341 26.6301 40.737 28.5041 41.9479C 29.7555 42.7565 32.0419 41.9294 32.0419 40.4394L 32.0419 11.4924C 32.0419 10.6639 32.7205 9.9916 33.5488 10.0001C 112.3837 10.8083 176.0419 74.9663 176.0419 153.9924C 176.0419 179.6897 169.3107 203.8149 157.5154 224.701C 157.1083 225.4218 156.1909 225.6664 155.474 225.2525L 130.425 210.7912C 129.1391 210.0488 129.5572 207.6779 130.8776 206.9986C 132.8559 205.9808 134.5745 204.4017 135.7696 202.3317C 139.0833 196.5922 137.1168 189.2531 131.3773 185.9394C 125.6377 182.6257 118.2987 184.5922 114.985 190.3317C 113.7898 192.4018 113.2815 194.6799 113.3894 196.9022C 113.4613 198.3854 111.6172 199.933 110.3313 199.1906L 85.3315 184.7576Z"></path></g></g></g><g id="g-root-tx_streamli_qqxcklsc6dj5-stroke" data-item-order="0" transform="translate(87.0068359375, 27)"></g><g id="g-root-tx_aiapplic_1hdugh1sc7sas-stroke" data-item-order="0" transform="translate(3, 146.9849853515625)"></g><g id="g-root-tx_aihardwa_1hfpvqdsc7rb6-stroke" data-item-order="0" transform="translate(447.013671875, 147.011962890625)"></g><g id="g-root-clou_dhytphsc7sw5-stroke" data-item-order="0" transform="translate(190.643310546875, 167.95379638671875)"><g id="clou_dhytphsc7sw5-stroke" fill="none" stroke-linecap="round" stroke-linejoin="round" stroke-miterlimit="4" stroke="#92bd39" stroke-width="2"><g><path d="M 49.534 56.731998L 49.534 43.664001M 46.919998 43.664001L 52.147999 43.664001M 46.919998 56.731998L 52.147999 56.731998M 32.237999 56.731998L 32.237999 51.504002M 32.237999 51.504002L 36.16 51.504002C 38.324745 51.5037 40.07946 49.748745 40.07946 47.584C 40.07946 45.419254 38.324745 43.664299 36.16 43.664001L 32.237999 43.664001ZM 14.941999 56.731998L 16.417999 46.894001C 16.713694 45.051308 18.303732 43.696075 20.17 43.696075C 22.03627 43.696075 23.626307 45.051308 23.922001 46.894001L 25.4 56.731998M 15.628 52.158001L 24.712 52.158001M 57 29.268C 57.00251 26.553617 55.899284 23.955311 53.944599 22.071943C 51.98991 20.188576 49.352413 19.182644 46.639999 19.285999C 43.916706 13.503402 37.61792 10.304704 31.342236 11.517374C 25.066551 12.730043 20.412907 18.045113 20.040001 24.426001C 17.828627 23.962803 15.526266 24.520912 13.772458 25.945301C 12.01865 27.369688 11.000196 29.508636 11 31.768C 11 39.388 19 39.267998 19 39.267998L 48 39.267998C 48 39.267998 57 38.096001 57 29.268Z"></path></g></g></g><g id="g-root-micr_1cws06dsckglp-stroke" data-item-order="0" transform="translate(367.37060546875, 167.95330810546875)"><g id="micr_1cws06dsckglp-stroke" fill="none" stroke-linecap="round" stroke-linejoin="round" stroke-miterlimit="4" stroke="#1eabda" stroke-width="2"><g><path d="M 45.400002 25.571999C 45.354992 23.955143 44.054859 22.655012 42.438 22.610001M 51.200001 25.686001C 51.064968 20.838743 47.167255 16.941029 42.32 16.806M 51.200001 25.686001C 51.064968 20.838743 47.167255 16.941029 42.32 16.806M 57 25.799999C 56.772968 17.722094 50.277905 11.227032 42.200001 11M 57 25.799999C 56.772968 17.722094 50.277905 11.227032 42.200001 11M 19 27L 39 27C 39 27 41 27 41 29L 41 49C 41 49 41 51 39 51L 19 51C 19 51 17 51 17 49L 17 29C 17 29 17 27 19 27M 29 51L 29 57M 37 51L 37 57M 37 21L 37 27M 29 21L 29 27M 21 51L 21 57M 21 21L 21 27M 41 47L 47 47M 17 39L 11 39M 47 39L 41 39M 17 31L 11 31M 17 47L 11 47M 25 31L 33 31C 33 31 37 31 37 35L 37 43C 37 43 37 47 33 47L 25 47C 25 47 21 47 21 43L 21 35C 21 35 21 31 25 31"></path></g></g></g><g id="g-root-belt_dfgu79sc6f42-stroke" data-item-order="0" transform="translate(267.0068359375, 206.99609375)"><g id="belt_dfgu79sc6f42-stroke" fill="none" stroke-linecap="round" stroke-linejoin="round" stroke-miterlimit="4" stroke="#969696" stroke-width="2"><g><path d="M 52.065102 57.785801C 55.6651 54.185799 61.365101 54.185799 64.6651 57.785801M 45.765099 51.1852C 52.6651 44.285202 64.065102 44.285202 71.265099 51.1852M 24.76519 67.685501C 24.10243 67.685501 23.565189 67.148201 23.565189 66.485504C 23.565189 65.8228 24.10243 65.2855 24.76519 65.2855M 24.76498 67.685501C 25.42771 67.685501 25.964981 67.148201 25.964981 66.485504C 25.964981 65.8228 25.42771 65.2855 24.76498 65.2855M 38.86504 67.685501C 38.202309 67.685501 37.665039 67.148201 37.665039 66.485504C 37.665039 65.8228 38.202309 65.2855 38.86504 65.2855M 38.86483 67.685501C 39.527557 67.685501 40.0648 67.148201 40.0648 66.485504C 40.0648 65.8228 39.527557 65.2855 38.86483 65.2855M 36.765099 52.985802L 14.8651 52.985802C 13.0651 52.985802 11.865112 54.185799 11.865112 55.985802L 11.865112 76.985802C 11.865112 78.785797 13.0651 79.985802 14.8651 79.985802L 61.365101 79.985802C 63.1651 79.985802 64.365097 78.785797 64.365097 76.985802L 64.365097 66.785797M 37.673618 34.33984L 35.865101 43.985199M 39.34375 18.48583L 62.265099 18.48583L 62.265099 28.98583L 42.859299 28.98583M 10 10M 23.865099 43.985802L 26.887779 30.98827M 10 10M 79.365097 18.48583L 73.365097 12.485839L 67.365097 12.485839L 61.365101 18.48583M 10 10M 79.365097 28.98583L 73.365097 34.985832L 67.365097 34.985832L 61.365101 28.98583M 34.365101 34.985832C 39.335678 34.985832 43.365101 30.956409 43.365101 25.98583C 43.365101 21.01528 39.335678 16.98583 34.365101 16.98583C 29.39455 16.98583 25.365099 21.01528 25.365099 25.98583C 25.365099 30.956409 29.39455 34.985832 34.365101 34.985832Z"></path></g></g></g><g id="g-root-robo_93e9r9scdfrd-stroke" data-item-order="0" transform="translate(279.007080078125, 321.003662109375)"><g id="robo_93e9r9scdfrd-stroke" fill="none" stroke-linecap="round" stroke-linejoin="round" stroke-miterlimit="4" stroke="#3cc583" stroke-width="2"><g><path d="M 12.6875 25.015621L 29.996099 25.015621M 12.6875 34.703201L 29.996099 34.703201M 12.6875 44.4062L 54.220798 44.4062M 12.6875 54.0938L 54.220798 54.0938M 41.475998 19.389999L 51.313999 19.389999C 51.313999 19.389999 55.313999 19.389999 55.313999 23.389999L 55.313999 29.266001C 55.313999 29.266001 55.313999 33.265999 51.313999 33.265999L 41.475998 33.265999C 41.475998 33.265999 37.475998 33.265999 37.475998 29.266001L 37.475998 23.389999C 37.475998 23.389999 37.475998 19.389999 41.475998 19.389999M 10 10M 46.3946 13.91718L 46.3946 19.390621M 10 10M 43.3204 25.176281L 43.3204 27.484381M 10 10M 49.464802 25.176281L 49.464802 27.484381"></path></g></g></g><g id="g-root-tx_aimodels_hvwwklsc7t3j-stroke" data-item-order="0" transform="translate(249.0068359375, 398.9405517578125)"></g></g></g></svg>