<?xml version="1.0" encoding="utf-8" standalone="yes"?>
<!DOCTYPE svg PUBLIC "-//W3C//DTD SVG 1.1//EN" "http://www.w3.org/Graphics/SVG/1.1/DTD/svg11.dtd">
<svg width="554" height="506" viewBox="0 0 554 506" style="fill:none;stroke:none;fill-rule:evenodd;clip-rule:evenodd;stroke-linecap:round;stroke-linejoin:round;stroke-miterlimit:1.5;" version="1.1" xmlns="http://www.w3.org/2000/svg" xmlns:xlink="http://www.w3.org/1999/xlink"><style class="text-font-style fontImports" data-font-family="Roboto">@import url('https://fonts.googleapis.com/css2?family=Roboto:wght@400;700&amp;display=block');</style><g id="items" style="isolation: isolate"><g id="blend" style="mix-blend-mode: normal"><g id="g-root-3.cu_sy_1lxejh2rsig3t-fill" data-item-order="-69875" transform="translate(180.67889404296875, 260.5001220703125)"><g id="3.cu_sy_1lxejh2rsig3t-fill" stroke="none" fill="url(#gradient-bceb57-497517668)"><g><path d="M 139.825 10L 203.345 47.4061C 200.688 51.9819 197.725 56.3399 194.501 60.4363L 206.308 82.1823C 198.379 90.811 189.361 98.3937 179.428 104.7127L 160.128 89.3728C 150.979 94.2973 141.046 97.9579 130.59 100.1369L 125.667 124.323C 119.96 125.064 114.079 125.5 108.1537 125.5C 102.2287 125.5 96.3911 125.064 90.6404 124.323L 85.7174 100.1369C 75.2181 97.9579 65.3285 94.2973 56.1797 89.3728L 36.88 104.7127C 26.947 98.3937 17.8854 90.811 10 82.1823L 21.8062 60.4363C 18.5387 56.2963 15.5764 51.9819 12.9625 47.4061L 76.8172 10C 83.1261 20.8423 94.8456 28.1452 108.321 28.1452C 121.796 28.1452 133.536 20.8423 139.825 10Z"></path></g></g></g><g id="g-root-2.cu_sy_18mki6ursieiy-fill" data-item-order="-69871" transform="translate(278.87579345703125, 113.087158203125)"><g id="2.cu_sy_18mki6ursieiy-fill" stroke="none" fill="url(#gradient-64edab-240055791)"><g><path d="M 105.1479 194.863C 107.7619 190.33 110.071 185.624 112.031 180.699L 136.777 180.046C 140.262 169.064 142.309 157.515 142.832 145.488L 119.83 136.423C 119.481 125.659 117.608 115.287 114.427 105.4819L 132.943 89.0961C 128.412 78.1578 122.487 68.0038 115.386 58.765L 91.9473 66.6093C 84.9768 58.8086 76.8737 51.9667 67.8992 46.4322L 71.5586 21.9843C 61.277 16.624 50.2549 12.5276 38.6228 10L 25.6839 31.0923C 20.5431 30.3515 15.315 29.9592 10 29.9592L 10.1243 102.9128C 30.1538 102.9128 46.3808 119.279 46.3808 139.481L 46.3604 139.44C 46.3604 146.105 44.5709 152.319 41.4801 157.713L 105.1479 194.863Z"></path></g></g></g><g id="g-root-1.cu_sy_vb3ztirsig3v-fill" data-item-order="-69867" transform="translate(146, 113)"><defs><linearGradient id="gradient-bceb57-497517668" x2="0" y2="1"><stop offset="0" stop-color="#cff976"></stop><stop offset="1" stop-color="#a8dd38"></stop></linearGradient><linearGradient id="gradient-64edab-240055791" x2="0" y2="1"><stop offset="0" stop-color="#83fac1"></stop><stop offset="1" stop-color="#44e095"></stop></linearGradient><linearGradient id="gradient-4dd3ff-378786070" x2="0" y2="1"><stop offset="0" stop-color="#7fdfff"></stop><stop offset="1" stop-color="#1ac6ff"></stop></linearGradient></defs><g id="1.cu_sy_vb3ztirsig3v-fill" stroke="none" fill="url(#gradient-4dd3ff-378786070)"><g><path d="M 143 103.3079C 122.97 103.3079 106.7436 119.486 106.7436 139.455L 106.7638 139.415C 106.7638 146.004 108.5533 152.167 111.644 157.479L 47.6846 194.863C 45.0706 190.33 42.7615 185.624 40.8011 180.699L 16.0557 180.046C 12.5705 169.064 10.4792 157.472 10 145.488L 33.0029 136.423C 33.3079 125.615 35.1811 115.244 38.405 105.4819L 19.8895 89.0961C 24.4204 78.2013 30.3452 68.0038 37.4464 58.765L 60.8849 66.6093C 67.899 58.8086 76.0023 52.0103 84.9333 46.4322L 81.2737 21.9843C 91.5552 16.624 102.5773 12.5712 114.209 10L 127.149 31.0923C 132.246 30.3515 137.517 29.9592 142.832 29.9592L 143 103.3079Z"></path></g></g></g><g id="g-root-tx_streamli_qvahp2rsigw4-fill" data-item-order="0" transform="translate(135, 39)"><g id="tx_streamli_qvahp2rsigw4-fill" stroke="none" fill="#484848"><g><text style="font: 20px Roboto, sans-serif; white-space: pre;" font-size="20px" font-family="Roboto, sans-serif"><tspan x="13.7" y="33.5" dominant-baseline="ideographic">Streamlining AI with Edge Tools</tspan></text></g></g></g><g id="g-root-tx_aihardwa_5vnrqrsjuh3-fill" data-item-order="0" transform="translate(15, 147)"><g id="tx_aihardwa_5vnrqrsjuh3-fill" stroke="none" fill="#484848"><g><text style="font: 20px Roboto, sans-serif; white-space: pre;" font-size="20px" font-family="Roboto, sans-serif"><tspan x="18.43" y="33.5" dominant-baseline="ideographic">AI Hardware</tspan></text></g></g></g><g id="g-root-tx_aimodels_94n1g6rsju33-fill" data-item-order="0" transform="translate(423, 147)"><g id="tx_aimodels_94n1g6rsju33-fill" stroke="none" fill="#484848"><g><text style="font: 20px Roboto, sans-serif; white-space: pre;" font-size="20px" font-family="Roboto, sans-serif"><tspan x="12" y="33.5" dominant-baseline="ideographic">AI Models</tspan></text></g></g></g><g id="g-root-micr_dkggeursifb9-fill" data-item-order="0" transform="translate(195, 189)"></g><g id="g-root-robo_1lw5ogmrsieip-fill" data-item-order="0" transform="translate(327, 189)"></g><g id="g-root-clou_de7spirsbg8y-fill" data-item-order="0" transform="translate(261, 298)"></g><g id="g-root-tx_aiapplic_18mklcmrsjtac-fill" data-item-order="0" transform="translate(207, 423)"><g id="tx_aiapplic_18mklcmrsjtac-fill" stroke="none" fill="#484848"><g><text style="font: 20px Roboto, sans-serif; white-space: pre;" font-size="20px" font-family="Roboto, sans-serif"><tspan x="14.89" y="33.5" dominant-baseline="ideographic">AI Applications</tspan></text></g></g></g><g id="g-root-3.cu_sy_1lxejh2rsig3t-stroke" data-item-order="-69875" transform="translate(180.67889404296875, 260.5001220703125)"><g id="3.cu_sy_1lxejh2rsig3t-stroke" fill="none" stroke-linecap="round" stroke-linejoin="round" stroke-miterlimit="4" stroke="#484848" stroke-width="2"><g><path d="M 139.8247 10L 203.3452 47.4061C 200.6877 51.9819 197.7251 56.3399 194.5012 60.4363L 206.3076 82.1823C 198.3787 90.811 189.3606 98.3937 179.4276 104.7127L 160.1277 89.3728C 150.9789 94.2973 141.046 97.9579 130.5902 100.1369L 125.6672 124.3233C 119.9601 125.0642 114.0786 125.5 108.1537 125.5C 102.2287 125.5 96.3911 125.0642 90.6404 124.3233L 85.7174 100.1369C 75.2181 97.9579 65.3285 94.2973 56.1797 89.3728L 36.88 104.7127C 26.947 98.3937 17.8854 90.811 10 82.1823L 21.8062 60.4363C 18.5387 56.2963 15.5764 51.9819 12.9624 47.4061L 76.8172 10C 83.1261 20.8423 94.8456 28.1452 108.321 28.1452C 121.7963 28.1452 133.5362 20.8423 139.8247 10Z"></path></g></g></g><g id="g-root-2.cu_sy_18mki6ursieiy-stroke" data-item-order="-69871" transform="translate(278.87579345703125, 113.087158203125)"><g id="2.cu_sy_18mki6ursieiy-stroke" fill="none" stroke-linecap="round" stroke-linejoin="round" stroke-miterlimit="4" stroke="#484848" stroke-width="2"><g><path d="M 105.1479 194.8627C 107.7619 190.3304 110.0707 185.6239 112.0311 180.6995L 136.7768 180.0458C 140.262 169.0638 142.3094 157.5154 142.8322 145.4875L 119.8296 136.4231C 119.4811 125.659 117.6078 115.2872 114.4275 105.4819L 132.943 89.0961C 128.4121 78.1578 122.487 68.0038 115.3858 58.765L 91.9473 66.6093C 84.9768 58.8086 76.8737 51.9667 67.8992 46.4322L 71.5586 21.9843C 61.277 16.624 50.2549 12.5276 38.6228 10L 25.6839 31.0923C 20.5431 30.3515 15.315 29.9592 10 29.9592L 10.1243 102.9128C 30.1538 102.9128 46.3808 119.2792 46.3808 139.4807L 46.3604 139.4397C 46.3604 146.1052 44.5709 152.3195 41.4801 157.7134L 105.1479 194.8627Z"></path></g></g></g><g id="g-root-1.cu_sy_vb3ztirsig3v-stroke" data-item-order="-69867" transform="translate(146, 113)"><g id="1.cu_sy_vb3ztirsig3v-stroke" fill="none" stroke-linecap="round" stroke-linejoin="round" stroke-miterlimit="4" stroke="#484848" stroke-width="2"><g><path d="M 143 103.3079C 122.9705 103.3079 106.7436 119.4861 106.7436 139.4554L 106.7638 139.4149C 106.7638 146.0038 108.5533 152.1669 111.6442 157.4785L 47.6846 194.8627C 45.0706 190.3304 42.7615 185.6239 40.8011 180.6994L 16.0557 180.0457C 12.5704 169.0638 10.4792 157.4718 10 145.4875L 33.0029 136.4231C 33.3079 125.6154 35.1811 115.2436 38.405 105.4819L 19.8895 89.0961C 24.4204 78.2013 30.3452 68.0038 37.4464 58.765L 60.8849 66.6093C 67.899 58.8086 76.0023 52.0103 84.9333 46.4322L 81.2737 21.9843C 91.5552 16.624 102.5773 12.5712 114.2094 10L 127.1486 31.0923C 132.2458 30.3515 137.5172 29.9592 142.8322 29.9592L 143 103.3079Z"></path></g></g></g><g id="g-root-tx_streamli_qvahp2rsigw4-stroke" data-item-order="0" transform="translate(135, 39)"></g><g id="g-root-tx_aihardwa_5vnrqrsjuh3-stroke" data-item-order="0" transform="translate(15, 147)"></g><g id="g-root-tx_aimodels_94n1g6rsju33-stroke" data-item-order="0" transform="translate(423, 147)"></g><g id="g-root-micr_dkggeursifb9-stroke" data-item-order="0" transform="translate(195, 189)"><g id="micr_dkggeursifb9-stroke" fill="none" stroke-linecap="round" stroke-linejoin="round" stroke-miterlimit="4" stroke="#484848" stroke-width="2"><g><path d="M 36.550003 21.678999C 36.516243 20.466358 35.541145 19.491259 34.328499 19.4575M 40.900002 21.7645C 40.798725 18.129057 37.875443 15.205771 34.239998 15.1045M 40.900002 21.7645C 40.798725 18.129057 37.875443 15.205771 34.239998 15.1045M 45.25 21.85C 45.079727 15.791571 40.208427 10.920274 34.150002 10.75M 45.25 21.85C 45.079727 15.791571 40.208427 10.920274 34.150002 10.75M 16.75 22.75L 31.75 22.75C 31.75 22.75 33.25 22.75 33.25 24.25L 33.25 39.25C 33.25 39.25 33.25 40.75 31.75 40.75L 16.75 40.75C 16.75 40.75 15.25 40.75 15.25 39.25L 15.25 24.25C 15.25 24.25 15.25 22.75 16.75 22.75M 24.25 40.75L 24.25 45.25M 30.25 40.75L 30.25 45.25M 30.25 18.25L 30.25 22.75M 24.25 18.25L 24.25 22.75M 18.25 40.75L 18.25 45.25M 18.25 18.25L 18.25 22.75M 33.25 37.75L 37.75 37.75M 15.25 31.75L 10.75 31.75M 37.75 31.75L 33.25 31.75M 15.25 25.75L 10.75 25.75M 15.25 37.75L 10.75 37.75M 21.25 25.75L 27.25 25.75C 27.25 25.75 30.25 25.75 30.25 28.75L 30.25 34.75C 30.25 34.75 30.25 37.75 27.25 37.75L 21.25 37.75C 21.25 37.75 18.25 37.75 18.25 34.75L 18.25 28.75C 18.25 28.75 18.25 25.75 21.25 25.75"></path></g></g></g><g id="g-root-robo_1lw5ogmrsieip-stroke" data-item-order="0" transform="translate(327, 189)"><g id="robo_1lw5ogmrsieip-stroke" fill="none" stroke-linecap="round" stroke-linejoin="round" stroke-miterlimit="4" stroke="#484848" stroke-width="2"><g><path d="M 12.015625 21.261715L 24.997074 21.261715M 12.015625 28.527399L 24.997074 28.527399M 12.015625 35.804649L 43.1656 35.804649M 12.015625 43.070351L 43.1656 43.070351M 33.606998 17.0425L 40.9855 17.0425C 40.9855 17.0425 43.9855 17.0425 43.9855 20.0425L 43.9855 24.449501C 43.9855 24.449501 43.9855 27.449501 40.9855 27.449501L 33.606998 27.449501C 33.606998 27.449501 30.607 27.449501 30.607 24.449501L 30.607 20.0425C 30.607 20.0425 30.607 17.0425 33.606998 17.0425M 10 10M 37.295952 12.937885L 37.295952 17.042965M 10 10M 34.990299 21.38221L 34.990299 23.113285M 10 10M 39.598602 21.38221L 39.598602 23.113285"></path></g></g></g><g id="g-root-clou_de7spirsbg8y-stroke" data-item-order="0" transform="translate(261, 298)"><g id="clou_de7spirsbg8y-stroke" fill="none" stroke-linecap="round" stroke-linejoin="round" stroke-miterlimit="4" stroke="#484848" stroke-width="2"><g><path d="M 39.650501 45.049L 39.650501 35.248001M 37.689999 35.248001L 41.611 35.248001M 37.689999 45.049L 41.611 45.049M 26.678501 45.049L 26.678501 41.128002M 26.678501 41.128002L 29.619999 41.128002C 31.243559 41.127777 32.559593 39.811558 32.559593 38.188C 32.559593 36.564442 31.243559 35.248222 29.619999 35.248001L 26.678501 35.248001ZM 13.7065 45.049L 14.8135 37.670502C 15.035271 36.288483 16.227798 35.272057 17.627501 35.272057C 19.027203 35.272057 20.21973 36.288483 20.4415 37.670502L 21.549999 45.049M 14.221 41.6185L 21.034 41.6185M 45.25 24.451C 45.251884 22.415213 44.424461 20.466484 42.95845 19.053957C 41.492432 17.641432 39.514309 16.886984 37.48 16.9645C 35.437531 12.627551 30.71344 10.228528 26.006676 11.13803C 21.299913 12.047533 17.809681 16.033834 17.530001 20.8195C 15.871469 20.472103 14.144699 20.890684 12.829344 21.958975C 11.513988 23.027266 10.750148 24.631477 10.75 26.326C 10.75 32.041 16.75 31.951 16.75 31.951L 38.5 31.951C 38.5 31.951 45.25 31.072001 45.25 24.451Z"></path></g></g></g><g id="g-root-tx_aiapplic_18mklcmrsjtac-stroke" data-item-order="0" transform="translate(207, 423)"></g></g></g></svg>